<svg width="20" height="20" viewBox="0 0 20 20" fill="none" xmlns="http://www.w3.org/2000/svg">
<path d="M18.3334 5.20841V9.45839C18.3334 10.5167 17.9834 11.4084 17.3584 12.0251C16.7417 12.6501 15.85 13.0001 14.7917 13.0001V14.5084C14.7917 15.0751 14.1583 15.4167 13.6917 15.1001L12.8834 14.5667C12.9584 14.3084 12.9917 14.0251 12.9917 13.7251V10.3334C12.9917 8.63343 11.8584 7.50008 10.1584 7.50008H4.50002C4.38335 7.50008 4.27502 7.50843 4.16669 7.51676V5.20841C4.16669 3.08341 5.58335 1.66675 7.70835 1.66675H14.7917C16.9167 1.66675 18.3334 3.08341 18.3334 5.20841Z" stroke="white" stroke-width="1.5" stroke-miterlimit="10" stroke-linecap="round" stroke-linejoin="round"/>
<path d="M12.9917 10.3334V13.725C12.9917 14.025 12.9584 14.3083 12.8834 14.5667C12.575 15.7917 11.5584 16.5583 10.1584 16.5583H7.89169L5.37502 18.2333C5.00002 18.4917 4.50002 18.2167 4.50002 17.7667V16.5583C3.65002 16.5583 2.94169 16.275 2.45002 15.7833C1.95002 15.2833 1.66669 14.575 1.66669 13.725V10.3334C1.66669 8.75002 2.65002 7.65835 4.16669 7.51668C4.27502 7.50835 4.38335 7.5 4.50002 7.5H10.1584C11.8584 7.5 12.9917 8.63335 12.9917 10.3334Z" stroke="white" stroke-width="1.5" stroke-miterlimit="10" stroke-linecap="round" stroke-linejoin="round"/>
</svg>
