<svg width="316" height="255" viewBox="0 0 316 255" fill="none" xmlns="http://www.w3.org/2000/svg">
<path d="M33.7031 141.461V171.569C33.7031 174.186 34.7425 176.695 36.5927 178.545C38.4428 180.395 40.9521 181.435 43.5686 181.435H151.521C154.136 181.433 156.644 180.393 158.492 178.543C160.341 176.693 161.38 174.184 161.38 171.569V146.131L174.822 132.012L43.6066 131.601C42.3084 131.596 41.0219 131.848 39.821 132.341C38.6201 132.834 37.5283 133.559 36.6083 134.475C35.6883 135.391 34.9581 136.48 34.4595 137.678C33.961 138.877 33.7039 140.162 33.7031 141.461Z" fill="white"/>
<path d="M145.465 149.841L47.5117 149.386L47.518 146.378L145.478 146.826L145.465 149.841Z" fill="#E0E0E0"/>
<path d="M145.465 159.744L47.5117 159.296L47.518 156.281L145.478 156.736L145.465 159.744Z" fill="#E0E0E0"/>
<path d="M106.714 166.197L106.699 169.205L145.459 169.395L145.474 166.387L106.714 166.197Z" fill="#E0E0E0"/>
<path d="M133.73 245.488V275.596C133.73 278.213 134.77 280.722 136.62 282.572C138.47 284.422 140.979 285.462 143.596 285.462H251.535C254.151 285.46 256.658 284.42 258.507 282.57C260.356 280.72 261.394 278.212 261.394 275.596V250.158L274.837 236.039L143.615 235.629C142.318 235.626 141.034 235.879 139.835 236.373C138.636 236.868 137.547 237.593 136.629 238.509C135.711 239.425 134.982 240.513 134.485 241.71C133.988 242.907 133.731 244.191 133.73 245.488Z" fill="#F5F5F5"/>
<path d="M245.968 253.084L148.008 252.636L148.014 249.621L245.974 250.076L245.968 253.084Z" fill="#E0E0E0"/>
<path d="M91.4062 28.0545H155.074C156.582 28.0545 158.029 28.6538 159.096 29.7205C160.163 30.7872 160.762 32.234 160.762 33.7425V64.8811C160.762 66.3897 160.163 67.8365 159.096 68.9032C158.029 69.9699 156.582 70.5691 155.074 70.5691H101.051C99.542 70.5691 98.0952 69.9699 97.0285 68.9032C95.9618 67.8365 95.3626 66.3897 95.3626 64.8811V31.9919L91.4062 28.0545Z" fill="#F5F5F5"/>
<path d="M128.293 58.3273V78.2985C128.293 80.0334 127.604 81.6971 126.377 82.9239C125.15 84.1506 123.486 84.8397 121.751 84.8397H50.1712C49.3103 84.8422 48.4573 84.6749 47.6612 84.3474C46.865 84.0199 46.1412 83.5385 45.5313 82.931C44.9214 82.3234 44.4373 81.6015 44.1067 80.8066C43.7761 80.0117 43.6055 79.1594 43.6047 78.2985V61.4241L34.7188 52.0579L121.751 51.7861C123.486 51.7861 125.15 52.4753 126.377 53.702C127.604 54.9287 128.293 56.5925 128.293 58.3273Z" fill="white"/>
<path d="M54.186 63.8826L119.156 63.5856L119.149 61.5884L54.1797 61.8918L54.186 63.8826Z" fill="#F5F5F5"/>
<path d="M54.186 70.4554L119.156 70.1521L119.149 68.1613L54.1797 68.4583L54.186 70.4554Z" fill="#F5F5F5"/>
<path d="M79.5223 75.1259H53.8125V77.123H79.5223V75.1259Z" fill="#F5F5F5"/>
<path d="M263.947 150.922V170.893C263.947 172.628 263.258 174.291 262.031 175.518C260.804 176.745 259.14 177.434 257.406 177.434H185.806C184.071 177.434 182.407 176.745 181.179 175.519C179.951 174.292 179.261 172.628 179.259 170.893V154.018L170.348 144.652L257.38 144.38C258.241 144.378 259.094 144.545 259.89 144.873C260.687 145.2 261.41 145.682 262.02 146.289C262.63 146.897 263.114 147.619 263.445 148.414C263.775 149.208 263.946 150.061 263.947 150.922Z" fill="white"/>
<path d="M189.819 156.483L254.795 156.18L254.782 154.183L189.812 154.486L189.819 156.483Z" fill="#F5F5F5"/>
<path d="M189.819 163.05L254.795 162.753L254.782 160.756L189.812 161.053L189.819 163.05Z" fill="#F5F5F5"/>
<path d="M214.702 168.39H188.992V170.387H214.702V168.39Z" fill="#F5F5F5"/>
<path d="M202.619 250.051C191.919 239.629 191.742 223.507 194.523 209.508C194.99 207.17 195.155 204.648 196.596 202.765C198.037 200.881 200.887 199.902 202.833 201.241C204.445 202.347 204.875 204.503 205.576 206.342C206.511 208.797 208.124 210.936 210.228 212.51C211.599 213.534 213.388 214.311 214.98 213.742C217.192 212.952 217.894 210.191 218.261 207.852C218.943 203.487 219.63 199.124 220.321 194.763C220.687 192.419 221.073 190.03 222.16 187.932C223.247 185.833 225.2 184.032 227.526 183.773C229.851 183.514 232.392 185.246 232.487 187.616C232.415 188.597 232.278 189.572 232.076 190.535C231.981 191.515 232.259 192.665 233.138 193.063C234.016 193.462 235.072 192.981 235.881 192.431C238.68 190.466 240.817 187.698 242.833 184.923C244.849 182.149 246.852 179.292 249.469 177.074C252.085 174.855 255.441 173.313 258.822 173.674C262.204 174.034 265.439 176.682 265.743 180.12C266.046 183.558 263.581 186.585 261.053 188.911C257.3 192.361 253.068 195.252 248.489 197.494C247.668 197.898 246.776 198.328 246.353 199.15C245.588 200.628 246.814 202.417 248.249 203.182C249.898 204.048 251.813 204.174 253.602 204.692C255.391 205.21 257.236 206.329 257.647 208.168C258.209 210.696 255.801 212.889 253.564 214.21C249.085 216.852 244.185 218.704 239.079 219.683C237.258 220.031 235.356 220.284 233.77 221.27C232.184 222.255 231.008 224.215 231.577 225.997C232.146 227.779 234.206 228.664 236.064 228.626C237.922 228.588 239.692 227.868 241.518 227.501C244.931 226.818 249.045 227.716 250.644 230.832C251.7 232.879 251.403 235.439 250.36 237.506C249.228 239.523 247.702 241.292 245.873 242.707C239.73 247.902 232.342 251.688 224.46 253.053C216.579 254.418 209.564 253.988 202.6 250.063" fill="#00C159"/>
<path d="M200.723 260.466C202.438 254.041 204.766 247.796 207.675 241.816C211.27 234.527 215.279 227.449 219.683 220.619L223.121 215.228C224.252 213.458 225.371 211.701 226.578 210.058C228.9 206.894 231.396 203.862 234.054 200.976C236.582 198.202 239.047 195.667 241.392 193.31C243.737 190.952 245.961 188.81 248.078 186.939C251.398 183.966 254.948 181.26 258.696 178.85C260.023 177.996 261.072 177.364 261.786 176.954L262.608 176.48C262.704 176.419 262.806 176.368 262.911 176.328C262.829 176.399 262.74 176.462 262.646 176.518L261.85 177.023C261.148 177.459 260.118 178.11 258.81 178.989C255.104 181.445 251.591 184.179 248.3 187.167C246.201 189.063 243.996 191.205 241.664 193.563C239.332 195.92 236.867 198.473 234.37 201.241C231.739 204.121 229.266 207.142 226.963 210.292C225.769 211.929 224.656 213.673 223.525 215.442C222.394 217.212 221.256 219.013 220.093 220.833C215.703 227.653 211.694 234.71 208.085 241.974C205.164 247.923 202.806 254.133 201.045 260.523" fill="#263238"/>
<path d="M226.723 210.058C226.668 209.715 226.647 209.368 226.66 209.021C226.66 208.358 226.66 207.391 226.66 206.203C226.711 203.82 226.894 200.515 227.103 196.906C227.311 193.297 227.457 190.005 227.469 187.622C227.469 186.434 227.469 185.473 227.469 184.809C227.442 184.464 227.454 184.116 227.507 183.773C227.586 184.111 227.63 184.456 227.64 184.803C227.703 185.435 227.747 186.427 227.779 187.622C227.842 190.005 227.779 193.31 227.539 196.931C227.299 200.553 227.122 203.744 226.964 206.215C226.907 207.328 226.856 208.269 226.812 209.028C226.823 209.373 226.793 209.719 226.723 210.058Z" fill="#263238"/>
<path d="M257.71 209.363C257.302 209.386 256.894 209.369 256.49 209.312C255.706 209.255 254.594 209.16 253.172 209.097C250.366 208.946 246.492 208.87 242.207 208.971C237.922 209.072 234.054 209.344 231.254 209.603C229.857 209.729 228.726 209.862 227.949 209.95C227.544 210.021 227.133 210.052 226.723 210.045C227.114 209.921 227.516 209.832 227.923 209.78C228.701 209.641 229.819 209.464 231.222 209.293C234.022 208.939 237.903 208.63 242.2 208.516C245.866 208.415 249.534 208.502 253.191 208.775C254.594 208.882 255.719 209.015 256.509 209.129C256.916 209.167 257.318 209.246 257.71 209.363Z" fill="#263238"/>
<path d="M208.163 241.323C208.163 241.323 208.1 241.19 208.018 240.925C207.935 240.659 207.815 240.223 207.676 239.749C207.392 238.732 207.013 237.221 206.57 235.407C205.685 231.723 204.624 226.604 203.524 220.928C202.424 215.253 201.407 210.134 200.598 206.436C200.2 204.642 199.871 203.163 199.631 202.063C199.523 201.589 199.441 201.191 199.372 200.869C199.332 200.731 199.311 200.588 199.309 200.445C199.379 200.572 199.43 200.708 199.46 200.85C199.549 201.166 199.656 201.551 199.795 202.019C200.08 203.036 200.459 204.547 200.901 206.367C201.786 210.045 202.854 215.171 203.947 220.846C205.041 226.521 206.065 231.641 206.874 235.338C207.272 237.133 207.6 238.612 207.841 239.711C207.948 240.185 208.03 240.577 208.1 240.899C208.139 241.037 208.16 241.18 208.163 241.323Z" fill="#263238"/>
<path d="M250.222 234.99C250.085 235.041 249.943 235.073 249.798 235.085L248.572 235.287L244.066 235.97C240.274 236.551 235.022 237.417 229.227 238.371C223.431 239.326 218.173 240.147 214.356 240.647C212.46 240.899 210.899 241.089 209.83 241.197L208.566 241.317C208.424 241.339 208.279 241.339 208.137 241.317C208.274 241.27 208.416 241.238 208.56 241.222L209.78 241.02L214.286 240.337C218.078 239.756 223.336 238.896 229.132 237.935C234.927 236.975 240.185 236.159 244.003 235.66C245.899 235.407 247.453 235.218 248.528 235.11L249.792 234.997C249.934 234.972 250.079 234.97 250.222 234.99Z" fill="#263238"/>
<path d="M96.303 107.939C95.3502 107.145 94.6244 106.113 94.1993 104.947C93.7742 103.782 93.6649 102.525 93.8824 101.303C94.1224 100.088 94.6013 98.933 95.2913 97.9045C95.9813 96.876 96.8687 95.9947 97.9019 95.3119C98.8436 94.6799 100.013 94.149 101.113 94.4714C101.616 94.6551 102.062 94.9698 102.405 95.383C102.747 95.7962 102.973 96.293 103.059 96.8224C103.219 97.8896 103.092 98.9801 102.693 99.9824C101.492 103.446 99.6968 106.58 96.303 107.958" fill="#455A64"/>
<path d="M93.1002 113.855C91.1532 112.113 88.8189 110.86 86.2909 110.2C83.7629 109.541 81.1141 109.494 78.5642 110.063C77.3002 110.36 75.815 111.042 75.6065 112.351C75.3979 113.659 76.5608 114.778 77.711 115.447C80.1389 116.795 82.9113 117.395 85.6791 117.17C88.4469 116.945 91.0862 115.906 93.2646 114.183" fill="#455A64"/>
<path d="M74.5758 86.4639C75.6493 86.2162 76.7616 86.1858 77.847 86.3747C78.9324 86.5635 79.9691 86.9678 80.8958 87.5636C82.7571 88.7778 84.3141 90.404 85.4462 92.3163C87.734 95.9313 88.543 100.798 88.6441 105.076C83.8915 104.887 79.834 101.152 77.9001 99.1229C74.8286 95.925 71.2262 88.2841 74.5379 86.4829" fill="#455A64"/>
<path d="M100.286 120.32C99.8535 119.747 99.4567 119.147 99.0979 118.525C97.8681 116.114 96.9688 113.548 96.4245 110.897C95.8885 108.211 96.0939 105.43 97.0186 102.852C97.3074 102.08 97.6917 101.348 98.1625 100.671C98.3224 100.413 98.5206 100.181 98.7503 99.9824C98.201 100.938 97.7277 101.936 97.3346 102.965C96.5329 105.504 96.3808 108.203 96.8922 110.815C97.4433 113.431 98.2915 115.975 99.4202 118.399" fill="#263238"/>
<path d="M100.33 120.377L97.8523 117.185C95.773 114.487 92.8848 110.764 89.6363 106.694C86.3878 102.624 83.4111 98.9838 81.2497 96.3547L78.7217 93.1947C78.3888 92.8276 78.0885 92.4321 77.8242 92.0129C78.1971 92.339 78.5436 92.694 78.8607 93.0746C79.4927 93.7825 80.4217 94.8126 81.5404 96.1019C83.7713 98.6805 86.7986 102.296 90.0471 106.366C93.2956 110.436 96.1333 114.196 98.1493 116.952C99.1605 118.329 99.9632 119.48 100.507 120.232" fill="#263238"/>
<path d="M81.5273 112.863C81.7858 112.735 82.0633 112.649 82.3489 112.61C82.6741 112.52 83.0059 112.457 83.3412 112.42C83.7827 112.347 84.2279 112.299 84.6747 112.275C85.8412 112.201 87.0121 112.246 88.1697 112.408C89.5842 112.618 90.9721 112.981 92.3093 113.488C93.6404 114.02 94.9115 114.692 96.1013 115.492C97.062 116.154 97.9534 116.912 98.762 117.754C99.0777 118.072 99.3752 118.408 99.6531 118.759C99.8815 119.014 100.093 119.285 100.285 119.568C100.595 120.029 100.551 120.244 100.525 120.263C99.9089 119.472 99.2506 118.715 98.5534 117.994C97.7288 117.205 96.8363 116.491 95.8864 115.858C94.7155 115.105 93.4728 114.47 92.1765 113.962C90.8694 113.466 89.5168 113.1 88.1381 112.869C87.0098 112.689 85.8674 112.613 84.7253 112.641C82.7281 112.66 81.5273 112.951 81.5273 112.863Z" fill="#263238"/>
<path d="M187.538 274.124L114.542 273.782C110.331 273.757 106.302 272.062 103.34 269.069C100.377 266.076 98.7238 262.029 98.7423 257.818L99.5134 74.8098C99.5318 70.5959 101.222 66.5615 104.213 63.5931C107.204 60.6246 111.251 58.9648 115.465 58.9782L188.461 59.3132C192.672 59.3416 196.7 61.0388 199.662 64.0326C202.624 67.0264 204.278 71.0725 204.261 75.2838L203.503 258.286C203.484 262.502 201.792 266.539 198.799 269.509C195.805 272.479 191.755 274.139 187.538 274.124Z" fill="#263238"/>
<path d="M188.335 65.6332L174.178 65.5636C173.716 65.5719 173.261 65.6709 172.838 65.8552C172.415 66.0394 172.032 66.3052 171.711 66.6374C171.391 66.9696 171.139 67.3616 170.97 67.7912C170.801 68.2207 170.719 68.6793 170.727 69.1408V71.7067C170.735 72.1682 170.653 72.6268 170.484 73.0563C170.315 73.4858 170.063 73.8779 169.743 74.2101C169.422 74.5423 169.04 74.8081 168.616 74.9923C168.193 75.1765 167.738 75.2756 167.276 75.2838L139.69 75.1574C138.758 75.1309 137.875 74.7362 137.234 74.0597C136.593 73.3833 136.247 72.4803 136.27 71.5487V68.9828C136.294 68.0501 135.947 67.1462 135.305 66.4695C134.662 65.7929 133.778 65.3989 132.845 65.374H127.871L115.484 65.3172C112.529 65.3054 109.691 66.467 107.592 68.5467C105.494 70.6264 104.306 73.4542 104.291 76.4088L103.539 255.031C103.527 257.984 104.688 260.821 106.767 262.918C108.845 265.016 111.672 266.202 114.624 266.217L187.475 266.552C188.937 266.559 190.387 266.278 191.74 265.724C193.094 265.171 194.325 264.356 195.364 263.326C196.403 262.297 197.229 261.073 197.794 259.725C198.36 258.376 198.655 256.929 198.661 255.467L199.414 76.8385C199.424 75.3746 199.146 73.923 198.595 72.5668C198.043 71.2107 197.23 69.9767 196.2 68.9357C195.171 67.8947 193.947 67.0671 192.597 66.5004C191.247 65.9337 189.799 65.6389 188.335 65.6332Z" fill="#FAFAFA"/>
<path d="M147.127 249.425C147.173 249.733 147.124 250.048 146.987 250.327C146.849 250.606 146.629 250.836 146.356 250.986C146.083 251.137 145.771 251.2 145.462 251.167C145.152 251.135 144.86 251.008 144.624 250.805C144.389 250.601 144.221 250.33 144.145 250.028C144.068 249.727 144.085 249.409 144.195 249.117C144.304 248.826 144.5 248.575 144.757 248.398C145.013 248.222 145.318 248.128 145.629 248.129C145.998 248.107 146.362 248.23 146.642 248.472C146.922 248.714 147.096 249.056 147.127 249.425Z" fill="#455A64"/>
<path d="M151.788 249.45C151.833 249.758 151.783 250.072 151.644 250.351C151.505 250.629 151.285 250.859 151.012 251.008C150.739 251.157 150.427 251.219 150.117 251.186C149.808 251.152 149.517 251.025 149.282 250.821C149.047 250.617 148.88 250.346 148.804 250.044C148.728 249.743 148.746 249.425 148.856 249.134C148.966 248.843 149.162 248.592 149.418 248.416C149.675 248.24 149.979 248.147 150.29 248.148C150.661 248.126 151.025 248.249 151.305 248.493C151.585 248.737 151.759 249.08 151.788 249.45Z" fill="#455A64"/>
<path d="M156.443 249.469C156.49 249.777 156.441 250.092 156.303 250.371C156.165 250.65 155.945 250.88 155.672 251.031C155.4 251.181 155.088 251.244 154.778 251.212C154.468 251.179 154.176 251.052 153.941 250.849C153.705 250.645 153.538 250.374 153.461 250.072C153.384 249.771 153.402 249.453 153.511 249.161C153.621 248.87 153.817 248.619 154.073 248.442C154.33 248.266 154.634 248.172 154.945 248.174C155.315 248.149 155.68 248.272 155.96 248.514C156.241 248.757 156.414 249.1 156.443 249.469Z" fill="#455A64"/>
<path d="M126.094 151.743C127.282 151.914 198.888 165.957 198.888 165.957V151.743H126.094Z" fill="#EBEBEB"/>
<path d="M103.566 241.993C103.566 241.993 181.467 230.971 180.784 231.312C180.102 231.653 103.566 231.312 103.566 231.312V241.993Z" fill="#EBEBEB"/>
<path d="M194.024 33.4391C194.112 33.4391 194.188 37.3764 194.188 42.2302C194.188 47.084 194.112 51.0276 194.024 51.0276C193.935 51.0276 193.859 47.0903 193.859 42.2302C193.859 37.3701 193.935 33.4391 194.024 33.4391Z" fill="#263238"/>
<path d="M225.199 53.6821C225.237 53.7642 221.66 55.4201 217.217 57.3793C212.774 59.3385 209.14 60.8679 209.102 60.7794C209.064 60.6909 212.641 59.0414 217.084 57.0822C221.527 55.123 225.161 53.5936 225.199 53.6821Z" fill="#263238"/>
<path d="M224.409 22.9795C224.372 23.1009 224.316 23.2159 224.245 23.3208C224.099 23.5609 223.922 23.8706 223.701 24.2498C223.227 25.0588 222.526 26.2153 221.641 27.631C219.871 30.475 217.324 34.3302 214.436 38.5393C211.548 42.7485 208.982 46.5847 207.162 49.3908C206.271 50.7622 205.544 51.9188 205.013 52.7151L204.419 53.6125C204.356 53.7226 204.279 53.8245 204.191 53.9159C204.238 53.7974 204.295 53.6832 204.362 53.5746C204.507 53.3344 204.684 53.0248 204.906 52.6456C205.373 51.8366 206.081 50.6864 206.966 49.2644C208.735 46.4204 211.282 42.5652 214.164 38.3561C217.046 34.1469 219.625 30.336 221.445 27.5109L223.594 24.1803L224.188 23.2829C224.253 23.1758 224.327 23.0744 224.409 22.9795Z" fill="#263238"/>
<path d="M268.111 97.3849H125.627C124.895 97.3849 124.17 97.5291 123.494 97.8093C122.818 98.0895 122.204 98.5002 121.687 99.0179C121.17 99.5356 120.76 100.15 120.481 100.826C120.201 101.503 120.058 102.227 120.059 102.959V147.155C120.058 147.887 120.201 148.611 120.481 149.288C120.76 149.964 121.17 150.578 121.687 151.096C122.204 151.614 122.818 152.024 123.494 152.305C124.17 152.585 124.895 152.729 125.627 152.729H136.244C137.097 157.343 138.096 163.163 138.096 163.163L147.702 152.729H268.111C268.843 152.729 269.567 152.585 270.243 152.305C270.919 152.024 271.533 151.614 272.05 151.096C272.567 150.578 272.977 149.964 273.257 149.288C273.536 148.611 273.68 147.887 273.679 147.155V102.959C273.68 102.227 273.536 101.503 273.257 100.826C272.977 100.15 272.567 99.5356 272.05 99.0179C271.533 98.5002 270.919 98.0895 270.243 97.8093C269.567 97.5291 268.843 97.3849 268.111 97.3849Z" fill="#00C159"/>
<path d="M209.323 121.344C209.323 121.433 192.367 121.508 171.454 121.508C150.541 121.508 133.578 121.433 133.578 121.344C133.578 121.256 150.535 121.173 171.454 121.173C192.373 121.173 209.323 121.268 209.323 121.344Z" fill="#F5F5F5"/>
<path d="M209.323 114.569C209.323 114.657 192.367 114.733 171.454 114.733C150.541 114.733 133.578 114.657 133.578 114.569C133.578 114.48 150.535 114.405 171.454 114.405C192.373 114.405 209.323 114.474 209.323 114.569Z" fill="#F5F5F5"/>
<path d="M209.323 128.081C209.323 128.17 192.367 128.245 171.454 128.245C150.541 128.245 133.578 128.17 133.578 128.081C133.578 127.993 150.535 127.917 171.454 127.917C192.373 127.917 209.323 127.986 209.323 128.081Z" fill="#F5F5F5"/>
<path d="M183.19 135.039C183.19 135.128 172.086 135.204 158.384 135.204C144.682 135.204 133.578 135.128 133.578 135.039C133.578 134.951 144.682 134.875 158.384 134.875C172.086 134.875 183.19 134.945 183.19 135.039Z" fill="#F5F5F5"/>
<path d="M60.083 177.096H203.729L203.908 177.101C204.326 177.123 204.737 177.217 205.123 177.378C205.509 177.54 205.864 177.766 206.173 178.047L206.302 178.171C206.597 178.468 206.838 178.814 207.016 179.192L207.088 179.356C207.27 179.799 207.362 180.273 207.36 180.752V227.52C207.36 228.427 207.023 229.3 206.417 229.969L206.292 230.1C205.608 230.785 204.679 231.169 203.711 231.169H175.519L175.48 231.374C175.06 233.634 174.602 236.215 174.249 238.231C174.072 239.239 173.922 240.106 173.815 240.72C173.784 240.901 173.757 241.06 173.733 241.195L164.598 231.251L164.523 231.169H60.083C59.1756 231.169 58.3032 230.831 57.6338 230.225L57.5029 230.1C56.8185 229.416 56.4336 228.488 56.4336 227.52V180.752L56.4375 180.572C56.454 180.213 56.5233 179.859 56.6436 179.52L56.708 179.352C56.868 178.964 57.0938 178.606 57.375 178.295L57.499 178.166C57.7957 177.868 58.1408 177.625 58.5195 177.446L58.6836 177.373C59.0717 177.212 59.4846 177.12 59.9033 177.1L60.083 177.096Z" fill="white" stroke="#DADADA" stroke-width="0.5"/>
<path d="M198.099 200.976C198.099 201.065 181.143 201.14 160.223 201.14C139.304 201.14 122.348 201.065 122.348 200.976C122.348 200.888 139.304 200.812 160.223 200.812C181.143 200.812 198.099 200.862 198.099 200.976Z" fill="#EBEBEB"/>
<path d="M198.099 194.163C198.099 194.252 181.143 194.327 160.223 194.327C139.304 194.327 122.348 194.252 122.348 194.163C122.348 194.075 139.304 193.999 160.223 193.999C181.143 193.999 198.099 194.068 198.099 194.163Z" fill="#EBEBEB"/>
<path d="M198.099 207.675C198.099 207.764 181.143 207.84 160.223 207.84C139.304 207.84 122.348 207.764 122.348 207.675C122.348 207.587 139.304 207.511 160.223 207.511C181.143 207.511 198.099 207.587 198.099 207.675Z" fill="#EBEBEB"/>
<path d="M171.966 214.634C171.966 214.728 160.862 214.798 147.16 214.798C133.458 214.798 122.348 214.728 122.348 214.634C122.348 214.539 133.458 214.469 147.16 214.469C160.862 214.469 171.966 214.545 171.966 214.634Z" fill="#EBEBEB"/>
<path d="M232.29 78.6398C232.378 77.4769 231.342 75.8779 230.394 74.9552C229.845 74.4601 229.452 73.8153 229.265 73.1C229.077 72.3847 229.103 71.6302 229.339 70.9294C229.724 69.4947 230.634 69.6022 230.994 68.7553C231.17 68.1006 231.24 67.4223 231.203 66.7455C231.278 66.1738 231.47 65.6238 231.767 65.1296C232.064 64.6354 232.46 64.2078 232.929 63.8733C233.399 63.5389 233.933 63.3048 234.497 63.1857C235.061 63.0666 235.644 63.065 236.208 63.181C236.522 62.0595 237.166 61.0582 238.056 60.3071C238.946 59.5561 240.042 59.09 241.2 58.9694C242.358 58.8488 243.526 59.0792 244.552 59.6308C245.578 60.1823 246.414 61.0295 246.952 62.0624C247.607 61.73 248.333 61.5638 249.067 61.5786C249.8 61.5935 250.519 61.7888 251.16 62.1474C251.8 62.506 252.342 63.0168 252.738 63.6347C253.134 64.2526 253.372 64.9585 253.43 65.6901C254.094 65.2669 254.888 65.0978 255.666 65.2139C256.444 65.3301 257.154 65.7236 257.665 66.3221C258.144 66.9481 258.429 67.7016 258.483 68.4884C258.537 69.2752 258.358 70.0604 257.968 70.7461C257.568 71.4261 257.018 72.0068 256.362 72.4446C255.705 72.8824 254.958 73.1659 254.176 73.2741C252.608 73.4732 251.017 73.1841 249.619 72.4462C248.228 71.7131 246.964 70.759 245.878 69.6211" fill="#263238"/>
<path d="M242.621 151.269C257.731 151.269 269.98 139.306 269.98 124.548C269.98 109.791 257.731 97.8273 242.621 97.8273C227.511 97.8273 215.262 109.791 215.262 124.548C215.262 139.306 227.511 151.269 242.621 151.269Z" fill="#E0E0E0"/>
<path d="M270.097 124.567L267.07 116.806L256.219 123.626L265.888 138.534C265.888 138.534 269.819 133.428 270.097 124.567Z" fill="#EB996E"/>
<path d="M240.157 107.756C242.026 107.767 243.828 107.058 245.189 105.777C246.551 104.496 247.367 102.74 247.469 100.873C247.627 97.6566 247.766 94.5535 247.766 94.5535C247.766 94.5535 253.732 94.1237 254.282 88.2841C254.832 82.4444 254.914 68.9512 254.914 68.9512C251.677 67.2522 248.048 66.4408 244.396 66.5995C240.743 66.7583 237.198 67.8815 234.121 69.8549L233.552 70.2152L232.863 100.425C232.857 101.386 233.041 102.339 233.404 103.229C233.768 104.119 234.304 104.929 234.982 105.61C235.66 106.292 236.467 106.832 237.355 107.201C238.243 107.569 239.195 107.758 240.157 107.756Z" fill="#FFBE9D"/>
<path d="M243.558 77.9383C243.715 77.9936 243.853 78.0941 243.953 78.2272C244.053 78.3602 244.112 78.5199 244.122 78.6862C244.132 78.8524 244.093 79.018 244.009 79.1621C243.925 79.3062 243.801 79.4224 243.652 79.4962C243.502 79.57 243.335 79.5981 243.169 79.577C243.004 79.5559 242.849 79.4866 242.723 79.3776C242.597 79.2687 242.506 79.125 242.461 78.9645C242.416 78.804 242.42 78.6339 242.471 78.4755C242.544 78.2604 242.7 78.0832 242.904 77.9825C243.107 77.8818 243.343 77.8659 243.558 77.9383Z" fill="#263238"/>
<path d="M245.214 78.2416C245.113 78.3364 244.582 77.8561 243.748 77.8056C242.914 77.755 242.32 78.1342 242.238 78.0268C242.156 77.9193 242.301 77.7992 242.566 77.6223C242.93 77.3929 243.358 77.2866 243.786 77.3189C244.213 77.3478 244.619 77.5141 244.943 77.7929C245.164 78.0078 245.246 78.1974 245.214 78.2416Z" fill="#263238"/>
<path d="M252.468 77.9383C252.625 77.9936 252.763 78.0941 252.863 78.2272C252.963 78.3602 253.022 78.5199 253.032 78.6862C253.042 78.8524 253.003 79.018 252.919 79.1621C252.836 79.3062 252.711 79.4224 252.562 79.4962C252.413 79.57 252.245 79.5981 252.08 79.577C251.914 79.5559 251.759 79.4866 251.633 79.3776C251.507 79.2687 251.416 79.125 251.371 78.9645C251.326 78.804 251.33 78.6339 251.381 78.4755C251.455 78.2604 251.61 78.0832 251.814 77.9825C252.018 77.8818 252.253 77.8659 252.468 77.9383Z" fill="#263238"/>
<path d="M254.214 78.2543C254.12 78.3554 253.582 77.8751 252.748 77.8245C251.914 77.7739 251.32 78.1531 251.238 78.0457C251.156 77.9383 251.301 77.8182 251.573 77.6412C251.934 77.4111 252.359 77.3046 252.786 77.3379C253.214 77.368 253.622 77.5341 253.949 77.8119C254.189 78.0267 254.265 78.2163 254.214 78.2543Z" fill="#263238"/>
<path d="M248.082 84.5679C248.513 84.4348 248.965 84.3771 249.416 84.3973C249.63 84.3973 249.801 84.3594 249.826 84.2456C249.856 84.0296 249.821 83.8096 249.725 83.6136C249.561 83.0638 249.39 82.5076 249.213 81.9262C248.518 79.5246 248.057 77.5527 248.177 77.5022C248.297 77.4516 248.967 79.3982 249.662 81.7871C249.826 82.3686 249.978 82.9311 250.136 83.4809C250.251 83.7623 250.266 84.0743 250.18 84.3657C250.142 84.4445 250.086 84.5134 250.017 84.5671C249.948 84.6208 249.868 84.6579 249.782 84.6754C249.66 84.6904 249.537 84.6904 249.416 84.6754C248.968 84.7157 248.517 84.6793 248.082 84.5679Z" fill="#263238"/>
<path d="M247.743 94.4777C245.02 94.3092 242.408 93.3395 240.234 91.6906C240.234 91.6906 241.707 96.045 247.635 95.9945L247.743 94.4777Z" fill="#EB996E"/>
<path d="M233.376 78.7978C233.381 78.5684 233.297 78.3459 233.141 78.1773C232.986 78.0086 232.771 77.9071 232.542 77.894C231.442 77.8435 229.634 78.2416 229.382 81.2499C229.053 85.5475 233.249 84.5553 233.268 84.4099C233.287 84.2646 233.357 80.4726 233.376 78.7978Z" fill="#FFBE9D"/>
<path d="M232.372 82.7225C232.372 82.7225 232.29 82.773 232.157 82.8173C232.068 82.8543 231.972 82.8734 231.876 82.8734C231.779 82.8734 231.684 82.8543 231.594 82.8173C231.328 82.6211 231.118 82.357 230.988 82.0525C230.858 81.7479 230.812 81.414 230.855 81.0856C230.871 80.7164 230.97 80.3555 231.146 80.0302C231.2 79.897 231.286 79.779 231.396 79.6865C231.506 79.594 231.637 79.5298 231.778 79.4993C231.866 79.4816 231.958 79.4961 232.037 79.5401C232.116 79.5842 232.176 79.6548 232.208 79.7395C232.258 79.8595 232.208 79.948 232.245 79.9543C232.283 79.9607 232.347 79.8911 232.321 79.7079C232.306 79.6 232.252 79.5013 232.17 79.4298C232.059 79.3309 231.914 79.2788 231.765 79.2844C231.582 79.3077 231.408 79.3782 231.261 79.489C231.114 79.5999 230.998 79.7471 230.925 79.9164C230.708 80.2714 230.586 80.6762 230.571 81.0919C230.522 81.474 230.587 81.8621 230.757 82.2074C230.928 82.5526 231.198 82.8396 231.531 83.0322C231.646 83.0734 231.768 83.0892 231.889 83.0782C232.01 83.0673 232.128 83.03 232.233 82.969C232.353 82.8299 232.384 82.7351 232.372 82.7225Z" fill="#EB996E"/>
<path d="M241.346 75.9475C241.561 76.2255 242.307 76.0991 243.28 76.0549C244.253 76.0107 245.005 76.017 245.176 75.7136C245.346 75.4103 244.443 74.6835 243.191 74.7909C241.94 74.8983 241.106 75.6631 241.346 75.9475Z" fill="#263238"/>
<path d="M250.814 75.6631C250.928 76.0359 251.642 76.1497 252.432 76.1434C253.222 76.1371 253.93 75.998 254.037 75.6188C254.144 75.2396 253.405 74.7277 252.413 74.7403C251.421 74.753 250.694 75.2965 250.814 75.6631Z" fill="#263238"/>
<path d="M255.719 70.784C255.719 70.784 252.173 72.503 247.566 70.2025C244.539 68.6921 241.018 67.9526 240.241 68.5593C239.464 69.1661 239.299 72.2881 236.304 73.1982C236.304 73.1982 236.506 79.139 234.136 78.9305C231.766 78.7219 233.245 69.52 233.245 69.52L239.047 66.6886L245.367 65.4941L251.326 66.3347L255.94 67.5987L255.719 70.784Z" fill="#263238"/>
<path d="M216.023 105.215C222.223 98.8385 233.132 99.5274 233.132 99.5274L242.176 106.005L247.301 100.033C250.935 100.528 254.463 101.619 257.742 103.262L258.089 103.37V103.439C262.058 105.595 267.67 110.764 273.024 115.776L266.621 121.717L259.53 128.037C259.546 128.077 259.546 128.123 259.53 128.163C259.461 128.549 260.516 137.201 261.603 143.774C258.517 146.818 254.736 149.064 250.587 150.318C246.437 151.572 242.045 151.797 237.79 150.972C234.889 150.46 233.486 149.759 230.8 149.076C228.864 148.563 227.134 147.466 225.846 145.933C224.558 144.4 223.774 142.507 223.601 140.513C223.121 135.002 222.754 128.176 222.754 128.176" fill="#455A64"/>
<path d="M252.969 101.152C253.127 101.479 253.258 101.82 253.361 102.169C253.594 102.801 253.904 103.793 254.277 104.988C255.023 107.377 255.977 110.676 256.875 114.424C257.772 118.171 258.448 121.54 258.872 124.005C259.087 125.269 259.245 126.242 259.339 126.937C259.407 127.294 259.447 127.655 259.459 128.018C259.348 127.671 259.265 127.316 259.213 126.956C259.068 126.217 258.878 125.237 258.644 124.049C258.157 121.597 257.45 118.216 256.552 114.499C255.655 110.783 254.745 107.44 254.062 105.057L253.241 102.207C253.125 101.862 253.035 101.509 252.969 101.152Z" fill="#263238"/>
<path d="M258.79 123.935C258.733 123.866 261.438 121.565 264.832 118.803C268.226 116.042 271.019 113.855 271.076 113.924C271.133 113.994 268.434 116.294 265.04 119.056C261.647 121.818 258.853 124.005 258.79 123.935Z" fill="#263238"/>
<path opacity="0.2" d="M224.208 113.962L218.672 132.208L220.739 133.282L222.774 128.125C222.774 128.125 224.847 117.28 224.208 113.962Z" fill="black"/>
<g opacity="0.2">
<path d="M252.368 101.164C255.357 102.738 247.862 106.53 244.48 106.429L246.939 99.9445C246.939 99.9445 251.363 100.633 252.368 101.164Z" fill="black"/>
</g>
<path d="M232.238 99.9445V95.1097C232.238 95.1097 241.674 97.5429 242.015 103.187C242.015 103.187 243.216 96.9425 248.083 96.6454L248.771 105.424L243.083 110.354H237.376L232.832 106.429L232.238 100.336" fill="#455A64"/>
<path d="M244.146 130.274C244.113 129.929 244.113 129.582 244.146 129.238C244.146 128.568 244.146 127.601 244.177 126.406C244.177 124.024 244.108 120.718 243.811 117.097C243.514 113.476 243.033 110.202 242.635 107.851C242.433 106.72 242.262 105.784 242.136 105.07C242.054 104.732 242.003 104.387 241.984 104.04C242.103 104.367 242.196 104.703 242.262 105.045C242.427 105.677 242.635 106.637 242.863 107.813C243.448 110.875 243.87 113.965 244.127 117.072C244.382 120.178 244.471 123.297 244.392 126.413C244.361 127.607 244.316 128.574 244.26 129.244C244.246 129.59 244.208 129.934 244.146 130.274Z" fill="#263238"/>
<path d="M241.586 101.562C241.397 101.531 241.203 101.548 241.023 101.613C240.56 101.874 240.219 102.308 240.075 102.82C239.296 104.505 238.688 106.265 238.261 108.072L238.211 108.287L238.021 108.173C237.459 107.832 236.877 107.465 236.296 107.073C235.236 106.352 234.215 105.576 233.237 104.748C232.792 104.376 232.435 103.91 232.194 103.383C232.004 102.918 231.897 102.424 231.878 101.923C231.859 101.213 231.929 100.504 232.087 99.8118C232.124 99.5533 232.194 99.3007 232.295 99.0597C232.287 99.3184 232.26 99.5761 232.213 99.8307C232.106 100.518 232.072 101.215 232.112 101.91C232.142 102.379 232.255 102.839 232.447 103.269C232.678 103.759 233.018 104.191 233.439 104.533C234.33 105.279 235.367 106.05 236.479 106.808C237.06 107.2 237.629 107.573 238.192 107.914L237.952 108.015C238.374 106.2 239.01 104.441 239.848 102.776C239.976 102.484 240.142 102.21 240.341 101.961C240.496 101.768 240.705 101.625 240.941 101.55C241.421 101.398 241.598 101.556 241.586 101.562Z" fill="#263238"/>
<path d="M248.082 96.6454C248.14 96.8921 248.169 97.1443 248.171 97.3975L248.322 99.4578C248.392 100.324 248.499 101.354 248.676 102.485C248.828 103.092 248.867 103.722 248.79 104.343C248.551 104.994 248.107 105.551 247.526 105.93C246.787 106.388 246.093 106.915 245.453 107.503L245.2 107.788V107.408C245.086 105.758 244.609 104.152 243.804 102.706C243.203 101.626 242.71 101.076 242.748 101.044C242.786 101.013 242.9 101.158 243.121 101.417C243.439 101.79 243.726 102.187 243.981 102.605C244.859 104.058 245.386 105.697 245.516 107.389L245.238 107.295C245.888 106.682 246.597 106.135 247.355 105.664C247.869 105.327 248.263 104.836 248.48 104.261C248.547 103.682 248.512 103.096 248.379 102.529C248.221 101.385 248.139 100.343 248.095 99.4705C248.051 98.5983 248.044 97.8905 248.051 97.4038C248.029 97.1507 248.04 96.8959 248.082 96.6454Z" fill="#263238"/>
<path d="M278.465 97.8589C278.08 98.3076 264.176 116.92 264.176 116.92L266.135 118.032L280.393 99.7043L278.465 97.8589Z" fill="#263238"/>
<path d="M222.64 112.547C222.64 112.547 237.258 133.592 238.143 134.003C239.874 134.818 259.871 117.539 261.779 115.884C262.045 115.53 262.588 114.79 263.675 113.318C263.675 113.318 265.255 106.1 266.937 106.65C268.618 107.2 266.014 110.322 267.114 113.065C268.213 115.808 273.231 109.273 273.434 108.679L274.729 106.985C274.729 106.985 276.088 110.834 275.993 112.445C275.696 117.596 270.823 123.72 270.823 123.72C270.823 123.72 248.937 150.833 233.946 151.674C229.63 151.914 221.938 139.666 216.825 130.476C215.332 127.793 214.872 124.656 215.532 121.657C216.192 118.658 217.927 116.004 220.409 114.196L222.64 112.547Z" fill="#FFBE9D"/>
<path d="M273.509 113.356C273.789 112.708 274.101 112.076 274.444 111.46C274.726 110.811 275.042 110.178 275.392 109.564C274.994 110.931 274.351 112.216 273.496 113.356H273.509Z" fill="#EB996E"/>
<path d="M220.168 102.277C220.168 102.277 204.475 107.857 216.142 134.243L234.255 123.31L231.677 117.141L220.168 102.277Z" fill="#455A64"/>
<path d="M218.966 102.738C219.602 102.679 220.244 102.732 220.862 102.896C221.585 103.083 222.277 103.375 222.916 103.762C223.76 104.288 224.53 104.926 225.204 105.658C226.915 107.569 228.349 109.711 229.463 112.022C230.79 114.588 232.029 117.514 233.299 120.579C233.679 121.502 234.058 122.406 234.412 123.265L234.469 123.404L234.336 123.474C229.097 126.33 224.534 129.004 221.31 131.007C219.692 132.006 218.41 132.827 217.518 133.396L216.507 134.028C216.391 134.109 216.269 134.178 216.141 134.237C216.241 134.139 216.351 134.053 216.469 133.978C216.69 133.813 217.019 133.573 217.455 133.276C218.315 132.644 219.585 131.823 221.184 130.799C224.382 128.745 228.932 126.027 234.178 123.164L234.102 123.366C233.748 122.507 233.369 121.603 232.99 120.68C231.726 117.615 230.462 114.695 229.198 112.136C228.105 109.85 226.706 107.724 225.039 105.816C224.388 105.09 223.644 104.453 222.827 103.92C222.202 103.527 221.526 103.223 220.817 103.016C220.209 102.871 219.59 102.778 218.966 102.738Z" fill="#263238"/>
<path d="M252.717 63.6171C252.757 63.7052 252.783 63.799 252.793 63.8952C252.841 64.1641 252.858 64.4377 252.843 64.7105C252.783 65.7368 252.357 66.7076 251.643 67.447C251.1 67.9884 250.422 68.3734 249.679 68.5614C248.935 68.7493 248.156 68.7334 247.421 68.5151C246.531 68.2785 245.761 67.7199 245.259 66.9478C244.994 66.5217 244.88 66.0183 244.937 65.5194C244.966 65.2594 245.05 65.0086 245.184 64.784C245.318 64.5594 245.499 64.3662 245.714 64.2175C245.939 64.0761 246.195 63.9928 246.46 63.9752C246.725 63.9575 246.99 64.0061 247.231 64.1164C247.7 64.3151 248.072 64.6895 248.268 65.1592C248.424 65.5974 248.467 66.0676 248.394 66.5269C248.321 66.9862 248.134 67.4199 247.851 67.7883C247.376 68.4025 246.7 68.8294 245.941 68.9936C245.183 69.1578 244.391 69.0488 243.705 68.6858C243.21 68.4266 242.686 68.2272 242.144 68.0917C241.738 68.0004 241.314 68.0448 240.937 68.2181C240.62 68.3888 240.32 68.5876 240.039 68.8122C240.039 68.8122 240.096 68.73 240.222 68.591C240.3 68.5041 240.387 68.4257 240.481 68.3571C240.605 68.2544 240.741 68.1673 240.886 68.098C241.277 67.9028 241.719 67.8365 242.15 67.9084C242.713 68.03 243.258 68.2211 243.774 68.4772C244.067 68.6063 244.372 68.7058 244.684 68.7742C245.021 68.8371 245.366 68.8371 245.702 68.7742C246.459 68.6541 247.139 68.2438 247.598 67.6303C247.848 67.3038 248.012 66.92 248.076 66.5139C248.14 66.1078 248.102 65.6921 247.964 65.3046C247.889 65.1086 247.773 64.9307 247.625 64.7823C247.476 64.634 247.298 64.5185 247.102 64.4434C246.906 64.3683 246.696 64.3353 246.487 64.3465C246.277 64.3576 246.072 64.4128 245.885 64.5082C245.71 64.6332 245.564 64.7934 245.455 64.9784C245.346 65.1635 245.277 65.3693 245.253 65.5826C245.208 66.0088 245.306 66.4379 245.531 66.8024C245.989 67.5083 246.691 68.0211 247.503 68.2434C248.189 68.4535 248.918 68.477 249.615 68.3114C250.313 68.1459 250.954 67.7974 251.472 67.3017C252.167 66.6094 252.602 65.6988 252.704 64.7231C252.731 64.3551 252.735 63.9857 252.717 63.6171Z" fill="#455A64"/>
<path d="M249.298 87.4499C249.298 87.4878 249.109 87.5763 248.761 87.5889C248.306 87.595 247.855 87.4914 247.448 87.2868C247.041 87.0822 246.69 86.7826 246.423 86.4134C246.233 86.1227 246.176 85.9141 246.214 85.8951C246.63 86.3155 247.095 86.6847 247.598 86.9948C248.145 87.2143 248.715 87.3671 249.298 87.4499Z" fill="#263238"/>
<path d="M253.761 65.728C253.969 66.0796 254.074 66.4825 254.064 66.8909C254.114 67.889 253.776 68.8678 253.121 69.6227C252.466 70.3777 251.545 70.8503 250.55 70.942C250.147 71.011 249.732 70.9628 249.355 70.803C249.355 70.7461 249.817 70.803 250.518 70.7082C251.429 70.5682 252.261 70.1109 252.867 69.417C253.473 68.7231 253.814 67.8373 253.83 66.9162C253.849 66.1957 253.704 65.7596 253.761 65.728Z" fill="#455A64"/>
<path d="M232.384 118.626C232.422 118.709 228.257 120.851 223.075 123.411C217.892 125.97 213.664 127.986 213.595 127.904C213.525 127.822 217.715 125.68 222.898 123.114C228.08 120.548 232.346 118.544 232.384 118.626Z" fill="#E0E0E0"/>
<path d="M228.586 111.46C228.631 111.535 224.921 113.615 220.301 116.092C215.681 118.57 211.901 120.516 211.864 120.434C211.826 120.352 215.529 118.279 220.149 115.801C224.769 113.324 228.542 111.377 228.586 111.46Z" fill="#E0E0E0"/>
<path d="M224.915 105.664C224.325 106.073 223.706 106.438 223.063 106.757L218.526 109.285L214.013 111.864C213.406 112.25 212.773 112.592 212.117 112.888C212.675 112.431 213.272 112.023 213.899 111.668C215.024 110.954 216.598 110.006 218.368 109.001C220.137 107.996 221.768 107.149 222.962 106.555C223.587 106.203 224.24 105.905 224.915 105.664Z" fill="#E0E0E0"/>
<path d="M238.798 104.28C238.371 104.26 237.952 104.148 237.572 103.951C236.646 103.536 235.792 102.975 235.044 102.289C234.294 101.604 233.605 100.856 232.984 100.052C232.7 99.7424 232.46 99.3958 232.27 99.0217C232.307 99.0217 232.636 99.3314 233.161 99.9065C233.685 100.482 234.393 101.265 235.265 102.043C236 102.71 236.818 103.279 237.698 103.736C238.349 104.097 238.811 104.242 238.798 104.28Z" fill="#E0E0E0"/>
<path d="M248.013 100.867C247.805 101.629 247.343 102.298 246.705 102.763C246.139 103.316 245.401 103.657 244.613 103.73C245.268 103.36 245.901 102.953 246.509 102.51C247.038 101.988 247.54 101.44 248.013 100.867Z" fill="#E0E0E0"/>
<path d="M264.452 110.379C264.337 110.414 264.218 110.435 264.098 110.442L263.08 110.568C262.196 110.669 260.913 110.79 259.333 110.916C256.173 111.169 251.749 111.415 246.927 111.592C242.104 111.769 237.687 111.826 234.501 111.801C232.915 111.801 231.626 111.757 230.741 111.725L229.717 111.674C229.598 111.674 229.479 111.66 229.363 111.63C229.481 111.615 229.6 111.615 229.717 111.63H230.741L234.501 111.599C237.661 111.567 242.085 111.466 246.914 111.295C251.742 111.125 256.141 110.903 259.314 110.714L263.068 110.474L264.092 110.41C264.21 110.384 264.331 110.373 264.452 110.379Z" fill="#E0E0E0"/>
<path d="M259.46 117.874C259.118 117.952 258.772 118.007 258.423 118.039C257.747 118.121 256.774 118.222 255.573 118.336C253.165 118.557 249.834 118.784 246.15 118.936C242.465 119.088 239.122 119.119 236.67 119.094C235.463 119.094 234.483 119.056 233.807 119.031C233.456 119.034 233.105 119.006 232.758 118.949C233.106 118.907 233.456 118.89 233.807 118.898L236.67 118.86C239.084 118.86 242.421 118.753 246.099 118.607C249.778 118.462 253.115 118.266 255.522 118.102L258.379 117.906C258.738 117.862 259.099 117.851 259.46 117.874Z" fill="#E0E0E0"/>
<path d="M248.129 127.114C247.441 127.273 246.742 127.372 246.037 127.411C244.735 127.544 242.94 127.689 240.949 127.79C238.959 127.892 237.157 127.923 235.849 127.917C235.144 127.95 234.438 127.922 233.738 127.835C234.435 127.728 235.138 127.678 235.843 127.683L240.93 127.462L245.986 127.177C246.698 127.107 247.414 127.086 248.129 127.114Z" fill="#E0E0E0"/>
<path d="M233.647 105.184C233.647 105.279 231.706 105.298 229.317 105.399C226.929 105.5 225.001 105.632 224.988 105.538C227.846 105.033 230.758 104.914 233.647 105.184Z" fill="#E0E0E0"/>
<path d="M260.305 104.842C258.438 104.996 256.565 105.043 254.693 104.982C252.818 105.031 250.942 104.97 249.074 104.798C250.943 104.64 252.819 104.592 254.693 104.653C256.566 104.603 258.44 104.666 260.305 104.842Z" fill="#E0E0E0"/>
<path d="M261.28 143.3C261.102 143.432 260.909 143.542 260.705 143.628C260.326 143.824 259.763 144.083 259.062 144.38C257.218 145.14 255.316 145.746 253.374 146.194C251.432 146.637 249.458 146.922 247.471 147.047C246.712 147.092 246.093 147.104 245.663 147.092C245.452 147.102 245.239 147.087 245.031 147.047C245.031 146.997 245.967 146.959 247.477 146.814C249.444 146.624 251.396 146.31 253.323 145.872C255.255 145.428 257.155 144.856 259.011 144.159C260.383 143.628 261.261 143.249 261.28 143.3Z" fill="#E0E0E0"/>
<path d="M90.5585 229.321C105.669 229.321 117.918 217.635 117.918 203.22C117.918 188.804 105.669 177.118 90.5585 177.118C75.4484 177.118 63.1992 188.804 63.1992 203.22C63.1992 217.635 75.4484 229.321 90.5585 229.321Z" fill="#E0E0E0"/>
<path d="M84.9841 140.304C80.6486 140.532 78.9422 145.057 78.424 146.068C77.9789 147.116 77.7427 148.241 77.7288 149.38C77.7155 150.52 77.4295 151.64 76.8945 152.647C75.9402 154.17 73.9304 154.96 73.3869 156.673C72.7549 158.613 74.3539 160.686 73.9304 162.677C73.7029 163.745 72.9256 164.623 72.6664 165.679C72.4274 166.807 72.6383 167.984 73.2542 168.959C74.6762 171.411 77.634 172.637 80.4653 172.751C83.2967 172.865 86.0648 172.005 88.7761 171.171" fill="#263238"/>
<path d="M104.081 145.916C103.914 146.395 103.885 146.911 103.997 147.406C104.109 147.901 104.357 148.355 104.713 148.716C105.441 149.414 106.227 150.048 107.064 150.612C107.482 150.9 107.839 151.268 108.114 151.694C108.39 152.12 108.578 152.596 108.669 153.096C108.751 154.018 108.284 154.941 108.41 155.857C108.739 158.227 112.512 158.935 112.708 161.312C112.847 162.898 111.216 164.358 111.671 165.881C111.917 166.452 112.236 166.99 112.619 167.48C113.694 169.262 112.967 171.714 111.412 173.092C109.857 174.47 107.709 174.957 105.636 175.051C103.891 175.127 101.907 174.843 100.883 173.433C99.9413 172.138 100.137 170.381 100.321 168.795C101.199 161.387 101.047 153.905 100.902 146.447" fill="#263238"/>
<path d="M86.1272 180.19C86.1588 176.296 86.1272 172.201 86.1272 172.201C86.1272 172.201 81.128 171.31 80.1611 164.762C79.2447 158.512 80.7931 145.076 80.7931 145.076C88.0421 142.213 96.2076 143.319 101.283 149.152L100.486 180.752C100.398 184.418 97.1682 187.262 93.2435 187.135C89.2808 187.002 86.0956 183.912 86.1272 180.19Z" fill="#FFBE9D"/>
<path d="M82.1604 155.39C82.1552 155.609 82.2354 155.821 82.3841 155.981C82.5328 156.142 82.7382 156.238 82.9567 156.249C83.0635 156.259 83.1711 156.247 83.2733 156.215C83.3755 156.182 83.4703 156.13 83.552 156.06C83.6337 155.991 83.7009 155.906 83.7495 155.81C83.7981 155.715 83.8272 155.611 83.8352 155.504C83.8388 155.284 83.7571 155.072 83.6074 154.912C83.4577 154.752 83.2516 154.656 83.0326 154.644C82.9261 154.635 82.8188 154.646 82.717 154.679C82.6152 154.712 82.5209 154.764 82.4396 154.834C82.3584 154.903 82.2918 154.988 82.2439 155.084C82.1959 155.179 82.1675 155.283 82.1604 155.39Z" fill="#263238"/>
<path d="M80.8138 154.745C80.9149 154.853 81.5532 154.391 82.457 154.404C84.1571 154.65 84.1255 154.91 84.1128 154.764C84.1634 154.72 84.0623 154.518 83.7715 154.309C83.3868 154.032 82.925 153.881 82.4507 153.879C81.9802 153.875 81.5202 154.018 81.1361 154.29C80.858 154.499 80.7632 154.695 80.8138 154.745Z" fill="#263238"/>
<path d="M91.3987 155.662C91.3935 155.88 91.474 156.091 91.6228 156.251C91.7717 156.41 91.9771 156.505 92.195 156.515C92.3016 156.525 92.4093 156.514 92.5115 156.482C92.6137 156.45 92.7083 156.397 92.7897 156.327C92.8712 156.258 92.9377 156.173 92.9854 156.077C93.033 155.981 93.0609 155.876 93.0672 155.769C93.0724 155.55 92.9921 155.338 92.8434 155.178C92.6947 155.017 92.4893 154.921 92.2708 154.91C92.164 154.901 92.0566 154.914 91.9547 154.947C91.8529 154.98 91.7587 155.033 91.6775 155.103C91.5964 155.173 91.5299 155.259 91.4821 155.354C91.4342 155.45 91.4059 155.555 91.3987 155.662Z" fill="#263238"/>
<path d="M90.2239 155.055C90.3251 155.169 90.9697 154.701 91.8671 154.714C92.7646 154.726 93.4282 155.188 93.5293 155.08C93.6304 154.973 93.4724 154.834 93.188 154.619C92.801 154.342 92.3367 154.194 91.8608 154.195C91.3908 154.187 90.9303 154.329 90.5463 154.6C90.2682 154.84 90.1734 155.004 90.2239 155.055Z" fill="#263238"/>
<path d="M86.8684 161.533C86.397 161.372 85.9058 161.276 85.4085 161.248C85.1809 161.248 84.9597 161.173 84.9218 161.015C84.9085 160.776 84.9657 160.539 85.0861 160.332L85.7877 158.588C86.434 157.106 86.9643 155.576 87.374 154.012C87.2729 153.974 86.4007 155.965 85.4211 158.436C85.1873 159.068 84.9661 159.637 84.7512 160.193C84.6003 160.469 84.5532 160.789 84.6185 161.097C84.6503 161.18 84.7012 161.254 84.7671 161.313C84.833 161.372 84.912 161.415 84.9977 161.438C85.1225 161.477 85.2525 161.496 85.3832 161.495C85.8747 161.57 86.3737 161.583 86.8684 161.533Z" fill="#263238"/>
<path d="M86.1211 172.201C89.1993 172.284 92.2403 171.512 94.9059 169.97C94.9059 169.97 92.7318 174.438 86.1906 173.762L86.1211 172.201Z" fill="#EB996E"/>
<path d="M87.2158 163.688C87.3907 163.474 87.6169 163.308 87.8733 163.206C88.1297 163.103 88.4079 163.067 88.682 163.1C88.8903 163.118 89.0925 163.18 89.2754 163.281C89.4583 163.383 89.6179 163.521 89.7438 163.688C89.8624 163.841 89.9314 164.026 89.9416 164.219C89.9518 164.413 89.9026 164.604 89.8007 164.769C89.6524 164.928 89.4607 165.039 89.2494 165.09C89.0381 165.14 88.8166 165.128 88.6125 165.053C88.1885 164.897 87.7997 164.659 87.4686 164.352C87.3686 164.277 87.2829 164.185 87.2158 164.08C87.1821 164.03 87.1641 163.972 87.1641 163.912C87.1641 163.853 87.1821 163.794 87.2158 163.745" fill="#EB996E"/>
<path d="M89.5205 162.184C89.3688 162.184 89.3562 163.157 88.5093 163.84C87.6624 164.522 86.6133 164.408 86.6133 164.541C86.6133 164.674 86.8471 164.737 87.2832 164.75C87.8587 164.77 88.422 164.581 88.8695 164.219C89.2973 163.875 89.5758 163.379 89.6469 162.835C89.6911 162.424 89.5837 162.178 89.5205 162.184Z" fill="#263238"/>
<path d="M98.4397 144.488C96.0508 147.901 89.7118 151.408 85.1677 152.224C85.6923 151.528 88.4794 149.809 89.0103 149.114C86.9563 150.644 84.0112 152.704 81.2872 152.837C80.9659 152.884 80.6377 152.833 80.3456 152.691C80.1926 152.569 80.0702 152.413 79.988 152.235C79.9057 152.057 79.8659 151.863 79.8716 151.667C79.7165 149.69 79.7801 147.702 80.0612 145.739C80.2773 144.08 81.121 142.567 82.4185 141.511C84.1692 140.159 86.6656 139.83 89.0229 139.773C90.996 139.645 92.9748 139.911 94.8436 140.557C96.6512 141.265 98.1996 142.674 98.465 144.349" fill="#263238"/>
<path d="M105.301 159.776C105.6 158.332 105.811 156.872 105.933 155.402C106.129 152.028 105.156 139.602 93.5205 140.576L93.0465 144.121C93.0465 144.121 91.2517 156.249 98.7788 156.338C99.2847 159.046 100.608 161.534 102.571 163.467C102.571 163.467 104.543 163.41 105.25 159.776" fill="#263238"/>
<path d="M98.7995 156.338C99.5024 156.2 100.23 156.254 100.904 156.496C101.579 156.75 102.127 157.262 102.427 157.918C102.689 158.588 102.689 159.333 102.427 160.003C102.156 160.667 101.742 161.263 101.214 161.748C100.866 162.122 100.432 162.406 99.9497 162.576C99.7065 162.66 99.4463 162.681 99.1925 162.64C98.9387 162.598 98.6994 162.493 98.4961 162.336" fill="#FFBE9D"/>
<path d="M99.1343 160.585C99.0521 160.585 99.3555 161.034 99.9938 160.869C100.166 160.815 100.325 160.726 100.462 160.609C100.598 160.492 100.71 160.348 100.79 160.187C100.988 159.832 101.113 159.441 101.157 159.036C101.217 158.595 101.116 158.146 100.872 157.772C100.774 157.616 100.64 157.486 100.482 157.39C100.324 157.295 100.146 157.237 99.9622 157.223C99.3302 157.223 99.0964 157.652 99.1659 157.665C99.2354 157.678 99.4756 157.488 99.9053 157.596C100.168 157.698 100.385 157.892 100.517 158.141C100.648 158.391 100.684 158.68 100.619 158.954C100.537 159.675 100.253 160.332 99.8674 160.49C99.4819 160.648 99.1785 160.528 99.1343 160.585Z" fill="#EB996E"/>
<path d="M100.069 143.211C100.971 143.723 102.037 143.862 103.04 143.597C104.043 143.332 104.902 142.686 105.434 141.796C105.803 141.237 105.934 140.555 105.801 139.9C105.651 139.471 105.393 139.09 105.05 138.792C104.707 138.495 104.293 138.293 103.848 138.206C103.212 138.04 102.545 138.033 101.905 138.186C101.266 138.339 100.674 138.648 100.182 139.084C99.7013 139.535 99.3572 140.112 99.1895 140.749C99.0218 141.386 99.0373 142.058 99.2343 142.687C99.4577 143.305 99.868 143.837 100.408 144.211C100.949 144.585 101.592 144.781 102.249 144.772" fill="#263238"/>
<path d="M101.119 162.07C100.453 162.512 99.8454 163.037 99.3111 163.631C98.7764 164.236 98.4976 165.024 98.5337 165.83C98.6316 166.266 98.6804 166.711 98.6791 167.158C98.4868 167.742 98.1747 168.28 97.7627 168.738C97.3809 169.437 97.2321 170.24 97.3378 171.03C97.4435 171.82 97.7982 172.556 98.3504 173.13C99.4978 174.258 101.045 174.885 102.654 174.874C103.58 174.954 104.506 174.732 105.296 174.242C106.383 173.484 106.8 172.056 106.832 170.722" fill="#263238"/>
<path d="M101.913 145.821C101.752 146.252 101.521 146.654 101.23 147.01C100.588 147.917 99.8342 148.741 98.9868 149.462C98.1458 150.19 97.2181 150.812 96.2249 151.313C95.8318 151.544 95.4055 151.712 94.9609 151.813C96.3039 151.049 97.5845 150.18 98.7909 149.215C99.9185 148.167 100.962 147.032 101.913 145.821Z" fill="#455A64"/>
<path d="M103.122 145.752C103.14 146.293 103.07 146.833 102.914 147.351C102.602 148.616 102.104 149.828 101.435 150.947C100.762 152.062 99.9245 153.07 98.9513 153.936C98.566 154.316 98.1221 154.632 97.6367 154.872C98.9879 153.672 100.17 152.294 101.151 150.776C102.035 149.2 102.699 147.509 103.122 145.752Z" fill="#455A64"/>
<path d="M77.8595 151.048C77.9543 151.048 78.0807 152.135 78.4915 153.431C78.9023 154.726 79.3384 155.718 79.2499 155.763C78.2719 154.391 77.7823 152.731 77.8595 151.048Z" fill="#455A64"/>
<path d="M105.738 173.383C106.024 173.571 106.356 173.678 106.698 173.693C107.096 173.687 107.483 173.564 107.811 173.339C108.231 173.029 108.528 172.582 108.651 172.075C108.803 171.452 108.803 170.802 108.651 170.179C108.518 169.49 108.253 168.782 108.019 168.005C107.733 167.195 107.636 166.33 107.735 165.477C107.88 164.554 108.48 163.802 108.771 162.949C108.909 162.541 108.963 162.111 108.932 161.682C108.9 161.253 108.783 160.835 108.588 160.452C108.228 159.726 107.611 159.161 106.856 158.866C106.486 158.727 106.123 158.569 105.769 158.392C105.416 158.218 105.117 157.951 104.903 157.621C104.59 157.007 104.454 156.317 104.511 155.63C104.554 155.094 104.533 154.555 104.448 154.025C104.379 153.63 104.216 153.257 103.974 152.938C103.757 152.671 103.456 152.484 103.121 152.407C103.212 152.385 103.308 152.385 103.399 152.407C103.661 152.475 103.897 152.62 104.075 152.824C104.344 153.154 104.534 153.541 104.632 153.955C104.739 154.498 104.778 155.052 104.745 155.605C104.701 156.242 104.837 156.88 105.137 157.444C105.491 158.025 106.224 158.265 106.97 158.563C107.795 158.877 108.472 159.491 108.866 160.282C109.083 160.703 109.213 161.162 109.25 161.635C109.287 162.107 109.229 162.581 109.081 163.031C108.752 163.934 108.171 164.655 108.044 165.483C107.948 166.295 108.037 167.118 108.303 167.891C108.525 168.649 108.784 169.376 108.935 170.09C109.077 170.759 109.057 171.452 108.879 172.113C108.728 172.668 108.386 173.152 107.912 173.478C107.55 173.714 107.123 173.829 106.692 173.806C106.421 173.794 106.159 173.709 105.933 173.56C105.856 173.515 105.79 173.455 105.738 173.383Z" fill="#455A64"/>
<path d="M101.176 172.934C101.176 172.934 101.258 173.136 101.561 173.282C101.774 173.37 102.01 173.385 102.232 173.324C102.454 173.264 102.649 173.131 102.787 172.947C102.95 172.639 103.027 172.292 103.009 171.944C102.991 171.596 102.88 171.259 102.686 170.969C102.326 170.254 101.612 169.553 101.422 168.51C101.371 168.256 101.375 167.994 101.435 167.742C101.495 167.49 101.609 167.254 101.77 167.05C102.079 166.671 102.446 166.418 102.68 166.109C103.085 165.518 103.243 164.792 103.122 164.086C103.044 163.598 102.924 163.118 102.762 162.651C102.688 162.482 102.637 162.303 102.61 162.121C102.61 162.121 102.73 162.285 102.876 162.607C103.096 163.067 103.256 163.553 103.35 164.055C103.431 164.436 103.435 164.83 103.362 165.213C103.29 165.596 103.141 165.96 102.926 166.285C102.655 166.652 102.294 166.918 102.029 167.252C101.896 167.421 101.802 167.616 101.753 167.824C101.704 168.033 101.701 168.25 101.745 168.46C101.896 169.363 102.566 170.052 102.952 170.83C103.159 171.169 103.269 171.56 103.269 171.958C103.269 172.356 103.159 172.746 102.952 173.086C102.856 173.211 102.735 173.314 102.597 173.389C102.458 173.464 102.306 173.509 102.149 173.522C101.918 173.549 101.684 173.505 101.479 173.395C101.163 173.168 101.163 172.928 101.176 172.934Z" fill="#455A64"/>
<path d="M76.4001 171.272C76.2064 171.124 76.0323 170.952 75.8819 170.76C75.4308 170.267 75.0597 169.706 74.7822 169.098C74.595 168.663 74.5044 168.193 74.5167 167.72C74.5196 167.159 74.7161 166.617 75.0729 166.184C75.4647 165.736 76.0335 165.496 76.3748 165.072C76.5402 164.84 76.6497 164.572 76.6946 164.29C76.7395 164.009 76.7188 163.72 76.6339 163.448C76.4797 162.863 76.248 162.302 75.9451 161.779C75.6485 161.262 75.4353 160.701 75.3131 160.117C75.2106 159.565 75.3261 158.994 75.6354 158.525C75.9114 158.15 76.2342 157.812 76.596 157.52C77.1188 157.141 77.4993 156.598 77.6767 155.978C77.7196 155.748 77.7196 155.512 77.6767 155.282C77.6767 155.282 77.7273 155.333 77.7715 155.447C77.8349 155.623 77.8544 155.811 77.8284 155.997C77.6917 156.668 77.3197 157.269 76.7793 157.69C76.4459 157.982 76.1469 158.311 75.8882 158.67C75.6262 159.085 75.5356 159.586 75.6354 160.067C75.7654 160.616 75.9785 161.143 76.2674 161.628C76.5864 162.174 76.8309 162.761 76.9942 163.372C77.0876 163.692 77.1066 164.029 77.0496 164.358C76.9927 164.687 76.8613 164.998 76.6655 165.268C76.2358 165.774 75.667 165.995 75.3383 166.38C75.0184 166.755 74.8375 167.228 74.8264 167.72C74.8071 168.151 74.8781 168.582 75.035 168.984C75.2832 169.584 75.6151 170.146 76.0209 170.653C76.167 170.846 76.294 171.054 76.4001 171.272Z" fill="#455A64"/>
<path d="M102.754 144.033C102.303 143.42 101.786 142.859 101.212 142.358C100.576 141.944 99.8952 141.6 99.1836 141.334C99.9881 141.347 100.768 141.615 101.41 142.1C102.052 142.586 102.522 143.262 102.754 144.033Z" fill="#00C159"/>
<path d="M103.645 137.985C103.683 137.985 103.891 138.212 104.062 138.699C104.28 139.346 104.3 140.044 104.119 140.703C103.937 141.362 103.563 141.951 103.044 142.396C102.64 142.731 102.336 142.832 102.317 142.8C102.298 142.769 102.551 142.586 102.88 142.232C103.317 141.78 103.635 141.225 103.802 140.619C103.97 140.013 103.983 139.374 103.841 138.762C103.753 138.509 103.687 138.249 103.645 137.985Z" fill="#455A64"/>
<path opacity="0.3" d="M71.5742 215.727C71.5742 215.727 87.2794 230.642 96.6141 227.937C105.949 225.232 108.704 218.236 108.704 218.236L108.932 215.708L107.996 215.076L72.0482 212.207L71.5742 215.727Z" fill="black"/>
<path d="M62.2891 201.76L65.3163 194.024L76.1678 200.843L66.4982 215.752C66.4982 215.752 62.5671 210.62 62.2891 201.76Z" fill="#EB996E"/>
<path d="M74.53 180.31C79.586 177.668 86.1208 176.909 86.1208 176.909C88.0168 180.701 94.0019 181.188 97.6232 178.597L100.682 176.53C101.104 176.524 101.526 176.543 101.946 176.587C105.435 176.915 108.725 178.357 111.329 180.701C113.934 183.045 115.714 186.165 116.406 189.6C117.009 192.295 117.266 195.056 117.171 197.816C116.773 204.724 109.625 205.349 109.625 205.349C109.625 205.349 109.258 212.169 108.772 217.686C108.667 219.608 108.026 221.462 106.921 223.038C105.816 224.614 104.292 225.85 102.521 226.604C100.018 227.856 97.3253 228.686 94.5517 229.062C90.2219 229.74 85.7919 229.345 81.6501 227.913C77.5083 226.48 73.781 224.054 70.7948 220.846C71.8819 214.273 72.9184 205.76 72.8425 205.375C72.8302 205.334 72.8302 205.29 72.8425 205.248L65.7578 198.96L61.7383 195.585C61.7383 195.585 70.5863 182.503 74.5173 180.354" fill="#00C159"/>
<path d="M83.3148 184.544C82.7802 184.24 82.1789 184.073 81.5642 184.057C80.9073 184.056 80.2695 184.279 79.7567 184.689C79.4653 184.957 79.1949 185.246 78.9477 185.555C78.6657 185.933 78.2614 186.201 77.8038 186.314C77.3302 186.373 76.852 186.246 76.4703 185.96C76.1037 185.726 75.794 185.473 75.4717 185.29C75.1946 185.127 74.8846 185.027 74.5643 184.999C74.2441 184.971 73.9215 185.014 73.6199 185.125C73.1976 185.269 72.8234 185.527 72.5392 185.871C72.3433 186.118 72.2738 186.282 72.2422 186.269C72.2659 186.097 72.3334 185.934 72.4381 185.795C72.7029 185.392 73.0876 185.083 73.5378 184.911C73.8708 184.768 74.2322 184.704 74.5939 184.724C74.9556 184.744 75.3079 184.846 75.6234 185.024C75.9773 185.214 76.2933 185.473 76.6409 185.688C76.9574 185.926 77.3531 186.035 77.7469 185.991C78.1301 185.893 78.47 185.671 78.7139 185.359C78.9703 185.039 79.2559 184.742 79.5671 184.474C80.1371 184.034 80.8447 183.81 81.5642 183.842C82.0396 183.859 82.5039 183.991 82.9167 184.228C83.2074 184.405 83.3275 184.544 83.3148 184.544Z" fill="#FAFAFA"/>
<path d="M90.514 194.024C90.1057 193.563 89.5886 193.211 89.0098 193C88.3953 192.79 87.7283 192.79 87.1138 193C86.7558 193.164 86.4095 193.352 86.0773 193.563C85.6884 193.829 85.22 193.954 84.7501 193.917C84.2817 193.821 83.8689 193.547 83.5999 193.152C83.3281 192.817 83.1132 192.476 82.8668 192.198C82.6563 191.955 82.3946 191.762 82.1006 191.633C81.8066 191.504 81.4876 191.442 81.1667 191.452C80.7206 191.456 80.284 191.581 79.9027 191.812C79.6372 191.983 79.5172 192.115 79.4919 192.096C79.4666 192.077 79.574 191.919 79.8332 191.705C80.3165 191.341 80.9173 191.17 81.5195 191.224C82.1218 191.277 82.6828 191.552 83.0943 191.995C83.366 192.292 83.5872 192.627 83.8464 192.95C84.074 193.27 84.4115 193.494 84.7944 193.582C85.193 193.603 85.5877 193.494 85.9193 193.272C86.2654 193.049 86.6314 192.858 87.0127 192.703C87.6962 192.47 88.441 192.49 89.1109 192.76C89.5591 192.924 89.9589 193.198 90.2738 193.556C90.4634 193.815 90.5266 193.986 90.514 194.024Z" fill="#FAFAFA"/>
<path d="M106.509 180.183C105.922 180.001 105.3 179.964 104.696 180.076C104.052 180.213 103.475 180.565 103.059 181.074C102.835 181.397 102.634 181.735 102.458 182.086C102.261 182.516 101.922 182.866 101.498 183.078C101.046 183.228 100.554 183.204 100.12 183.008C99.7154 182.857 99.3552 182.673 99.0013 182.56C98.6951 182.46 98.3707 182.431 98.0516 182.472C97.7324 182.514 97.4265 182.626 97.1558 182.8C96.7765 183.032 96.4665 183.361 96.2584 183.754C96.1194 184.032 96.0814 184.215 96.0562 184.209C96.0309 184.203 96.0562 184.019 96.1446 183.697C96.3736 183.137 96.802 182.682 97.3471 182.419C97.8922 182.156 98.5154 182.105 99.0961 182.275C99.4816 182.389 99.8482 182.566 100.227 182.705C100.586 182.873 100.996 182.895 101.371 182.768C101.727 182.585 102.011 182.29 102.18 181.928C102.359 181.562 102.571 181.213 102.812 180.885C103.28 180.335 103.927 179.967 104.639 179.848C105.107 179.761 105.59 179.793 106.042 179.943C106.216 179.982 106.377 180.064 106.509 180.183Z" fill="#FAFAFA"/>
<path d="M99.1271 190.548C98.8128 190.2 98.4269 189.924 97.9958 189.739C97.5307 189.558 97.0175 189.542 96.5422 189.695C96.2603 189.803 95.9876 189.934 95.727 190.087C95.4098 190.283 95.0354 190.365 94.6652 190.32C94.2999 190.232 93.9829 190.005 93.7804 189.688C93.5845 189.417 93.4328 189.145 93.2558 188.924C93.1057 188.731 92.9143 188.574 92.6955 188.464C92.4768 188.355 92.2363 188.296 91.9918 188.292C91.5244 188.294 91.0687 188.438 90.6836 188.703C90.6836 188.703 90.7468 188.563 90.949 188.405C91.3351 188.136 91.8079 188.019 92.2753 188.079C92.7426 188.138 93.171 188.37 93.477 188.728C93.6793 188.968 93.8436 189.24 94.0269 189.486C94.1831 189.74 94.4291 189.925 94.7157 190.004C95.2972 190.106 95.8281 189.581 96.4348 189.41C96.9771 189.252 97.5582 189.295 98.0717 189.53C98.9628 189.929 99.165 190.561 99.1271 190.548Z" fill="#FAFAFA"/>
<path d="M82.8531 199.282C82.5354 198.935 82.1477 198.659 81.7155 198.473C81.2482 198.298 80.735 198.289 80.2619 198.448C79.9805 198.558 79.7079 198.689 79.4466 198.84C79.1256 199.044 78.7432 199.129 78.3659 199.08C78.0032 198.989 77.689 198.763 77.4874 198.448C77.2852 198.176 77.1335 197.904 76.9629 197.69C76.8119 197.498 76.6202 197.341 76.4017 197.232C76.1831 197.123 75.9431 197.063 75.6989 197.058C75.231 197.057 74.7743 197.201 74.3906 197.468C74.3906 197.468 74.4475 197.329 74.6561 197.171C74.9586 196.949 75.3234 196.827 75.6989 196.824C75.9832 196.813 76.2663 196.868 76.526 196.984C76.7858 197.1 77.0153 197.274 77.1967 197.494C77.3989 197.734 77.5569 198.006 77.7465 198.252C77.8998 198.505 78.1439 198.691 78.4291 198.77C79.0105 198.871 79.5477 198.347 80.1545 198.176C80.6947 198.018 81.2738 198.061 81.785 198.296C82.6825 198.663 82.8847 199.295 82.8531 199.282Z" fill="#FAFAFA"/>
<path d="M98.0645 199.484C97.6574 199.248 97.2009 199.109 96.731 199.08C96.2323 199.062 95.7421 199.213 95.3406 199.51C95.1132 199.703 94.9019 199.914 94.7086 200.142C94.4713 200.429 94.1439 200.627 93.7796 200.704C93.4027 200.732 93.0296 200.614 92.7368 200.376C92.4587 200.186 92.2312 199.977 91.991 199.826C91.7862 199.694 91.5547 199.609 91.3132 199.578C91.0717 199.546 90.8262 199.568 90.5943 199.642C90.1527 199.798 89.7675 200.082 89.4883 200.458C89.4883 200.458 89.4883 200.306 89.6463 200.085C89.8633 199.778 90.1703 199.546 90.5248 199.421C90.7898 199.319 91.0749 199.279 91.3578 199.306C91.6408 199.332 91.9137 199.423 92.1553 199.573C92.4208 199.731 92.6609 199.94 92.92 200.11C93.1474 200.3 93.4395 200.395 93.7353 200.376C94.3168 200.287 94.6517 199.617 95.17 199.257C95.6325 198.934 96.1948 198.786 96.7563 198.84C97.0088 198.842 97.2575 198.901 97.4839 199.013C97.7104 199.124 97.9089 199.286 98.0645 199.484Z" fill="#FAFAFA"/>
<path d="M93.0396 206.424C92.629 206.196 92.1743 206.058 91.7061 206.019C91.2055 206.002 90.7135 206.153 90.3093 206.449C90.0834 206.644 89.8722 206.855 89.6773 207.081C89.4407 207.369 89.113 207.567 88.7483 207.644C88.3726 207.67 88.0005 207.555 87.7055 207.321C87.4274 207.125 87.1999 206.917 86.9598 206.771C86.756 206.637 86.5247 206.551 86.2829 206.518C86.0412 206.485 85.7952 206.507 85.563 206.582C85.1201 206.735 84.7343 207.019 84.457 207.397C84.4711 207.261 84.5238 207.132 84.6087 207.024C84.8878 206.636 85.3034 206.367 85.7722 206.272C86.2411 206.177 86.7285 206.263 87.1367 206.512C87.4085 206.67 87.6486 206.879 87.9078 207.049C88.1351 207.24 88.4272 207.335 88.723 207.315C89.3045 207.226 89.6394 206.557 90.1577 206.196C90.6211 205.875 91.1827 205.728 91.744 205.779C91.9941 205.785 92.2399 205.845 92.4638 205.957C92.6878 206.068 92.8844 206.228 93.0396 206.424Z" fill="#FAFAFA"/>
<path d="M82.4312 223.652C82.108 223.309 81.7161 223.038 81.281 222.856C80.8106 222.69 80.2977 222.69 79.8274 222.856C79.5473 222.971 79.2768 223.109 79.0184 223.267C78.7046 223.465 78.3319 223.55 77.963 223.507C77.5951 223.42 77.2754 223.193 77.0719 222.875C76.8696 222.609 76.7116 222.338 76.5347 222.123C76.3828 221.932 76.1909 221.776 75.9726 221.667C75.7543 221.558 75.5147 221.498 75.2707 221.491C74.8019 221.497 74.3469 221.65 73.9688 221.927C73.9688 221.927 74.0256 221.781 74.2279 221.617C74.531 221.395 74.895 221.271 75.2707 221.263C75.553 221.247 75.8354 221.295 76.0961 221.405C76.3568 221.514 76.589 221.682 76.7748 221.895C76.9771 222.135 77.1414 222.407 77.331 222.647C77.4896 222.898 77.7384 223.079 78.0262 223.153C78.6076 223.248 79.1322 222.717 79.7389 222.521C80.2791 222.358 80.8597 222.394 81.3758 222.622C82.2479 223.033 82.4628 223.658 82.4312 223.652Z" fill="#FAFAFA"/>
<path d="M94.8488 227.318C94.4467 227.081 93.9982 226.935 93.5342 226.888C93.0357 226.864 92.5436 227.009 92.1375 227.299C91.9099 227.492 91.6985 227.703 91.5055 227.931C91.2643 228.213 90.9345 228.404 90.5701 228.474C90.1943 228.501 89.8227 228.381 89.5336 228.139C89.2556 227.943 89.028 227.729 88.7942 227.577C88.591 227.442 88.3605 227.353 88.1191 227.317C87.8777 227.281 87.6313 227.298 87.3975 227.368C86.9546 227.518 86.5671 227.798 86.2852 228.171C86.2852 228.171 86.2852 228.019 86.4432 227.804C86.6674 227.509 86.9759 227.289 87.328 227.172C87.5957 227.078 87.8811 227.045 88.1634 227.075C88.4456 227.106 88.7173 227.2 88.9585 227.349C89.224 227.514 89.4641 227.722 89.7169 227.899C89.9446 228.09 90.2353 228.189 90.5322 228.177C91.1136 228.089 91.4612 227.432 91.9795 227.078C92.4475 226.763 93.011 226.622 93.5721 226.679C93.8185 226.687 94.0602 226.748 94.2807 226.858C94.5011 226.968 94.695 227.125 94.8488 227.318Z" fill="#FAFAFA"/>
<path d="M53.9207 175.064C54.2999 175.513 68.1976 194.094 68.1976 194.094L66.2447 195.206L51.9805 176.878L53.9207 175.064Z" fill="#263238"/>
<path d="M108.153 188.336C108.153 188.336 95.1216 210.816 94.2494 211.227C92.5114 212.042 72.5149 194.757 70.6063 193.108C70.3472 192.754 69.8036 192.014 68.7103 190.542C68.7103 190.542 67.1366 183.318 65.4492 183.874C63.7617 184.43 66.3719 187.546 65.2785 190.289C64.1852 193.032 59.1608 186.497 58.9585 185.903L57.6945 184.209C57.6945 184.209 56.3357 188.058 56.4305 189.669C56.7212 194.82 61.594 200.944 61.594 200.944C61.594 200.944 81.4008 225.757 96.3919 226.597C100.708 226.844 108.956 214.412 114.088 205.223C117.185 199.674 115.744 194.043 110.612 190.295L108.153 188.336Z" fill="#FFBE9D"/>
<path d="M58.8765 190.548C58.0211 189.409 57.3787 188.124 56.9805 186.756C57.031 186.756 57.4039 187.609 57.9285 188.652C58.453 189.695 58.9207 190.523 58.8765 190.548Z" fill="#EB996E"/>
<path d="M107.538 182.054C107.027 182.364 94.8984 204.863 94.8984 204.863L110.503 217.079C112.888 211.154 114.955 205.106 116.696 198.96C117.278 196.754 116.981 190.858 116.159 188.582C114.996 185.353 113.239 186.156 110.604 184.266L107.538 182.054Z" fill="#00C159"/>
<g opacity="0.7">
<path d="M112.665 182.054C112.665 182.054 112.514 181.965 112.223 181.82C111.8 181.605 111.326 181.506 110.852 181.536C110.103 181.606 109.394 181.901 108.817 182.383C108.044 183 107.367 183.729 106.807 184.544C106.12 185.564 105.487 186.618 104.911 187.704C104.279 188.848 103.558 190.074 102.825 191.363C101.353 193.936 99.7284 196.767 98.0347 199.737C96.9919 201.539 95.987 203.289 95.039 204.932L95.0011 204.73L105.555 213.073L108.621 215.531L109.43 216.201C109.529 216.273 109.62 216.356 109.701 216.447C109.594 216.391 109.492 216.323 109.398 216.245L108.551 215.613L105.429 213.224L94.8052 205.008L94.6914 204.92L94.7988 204.768C95.7468 203.125 96.7517 201.374 97.7819 199.567C99.4883 196.603 101.119 193.784 102.598 191.212L104.709 187.565C105.284 186.479 105.917 185.424 106.605 184.405C107.191 183.568 107.903 182.826 108.715 182.206C109.327 181.719 110.072 181.428 110.852 181.371C111.346 181.354 111.836 181.479 112.261 181.732C112.372 181.793 112.477 181.863 112.577 181.94C112.64 182.016 112.672 182.048 112.665 182.054Z" fill="black"/>
</g>
<path d="M108.006 203.15C107.694 202.8 107.307 202.523 106.875 202.341C106.41 202.161 105.898 202.143 105.421 202.291C105.139 202.401 104.867 202.534 104.606 202.689C104.288 202.882 103.914 202.964 103.544 202.923C103.179 202.834 102.862 202.607 102.659 202.291C102.463 202.019 102.312 201.747 102.135 201.526C101.985 201.333 101.793 201.176 101.574 201.066C101.356 200.957 101.115 200.898 100.871 200.894C100.403 200.897 99.9476 201.04 99.5625 201.305C99.5625 201.305 99.6257 201.166 99.8279 201.001C100.136 200.786 100.501 200.667 100.877 200.66C101.16 200.649 101.443 200.704 101.701 200.82C101.96 200.936 102.188 201.111 102.369 201.33C102.571 201.57 102.735 201.842 102.918 202.088C103.076 202.34 103.322 202.524 103.607 202.607C104.189 202.708 104.72 202.183 105.326 202.012C105.868 201.853 106.449 201.893 106.963 202.126C107.842 202.524 108.069 203.156 108.006 203.15Z" fill="#FAFAFA"/>
<path d="M115.136 200.243C114.935 199.815 114.636 199.441 114.264 199.149C113.864 198.854 113.377 198.7 112.88 198.713C112.579 198.748 112.282 198.803 111.989 198.878C111.629 198.979 111.247 198.957 110.902 198.815C110.574 198.626 110.332 198.318 110.225 197.955C110.112 197.639 110.036 197.323 109.928 197.083C109.835 196.857 109.692 196.655 109.511 196.491C109.329 196.327 109.113 196.205 108.879 196.135C108.428 196.011 107.95 196.027 107.508 196.179C107.508 196.179 107.603 196.059 107.843 195.964C108.195 195.83 108.58 195.813 108.942 195.914C109.22 195.98 109.478 196.108 109.697 196.29C109.916 196.472 110.091 196.702 110.206 196.963C110.333 197.247 110.415 197.551 110.529 197.841C110.61 198.126 110.798 198.368 111.053 198.517C111.584 198.777 112.235 198.416 112.867 198.41C113.43 198.409 113.976 198.606 114.409 198.966C114.618 199.111 114.792 199.301 114.918 199.522C115.044 199.743 115.119 199.989 115.136 200.243Z" fill="#FAFAFA"/>
<path d="M115.503 190.94C115.299 190.516 115 190.144 114.631 189.853C114.233 189.555 113.744 189.401 113.247 189.417C112.946 189.445 112.648 189.5 112.356 189.581C111.996 189.683 111.613 189.659 111.269 189.512C110.943 189.324 110.701 189.019 110.593 188.658C110.479 188.342 110.403 188.026 110.296 187.78C110.2 187.555 110.056 187.354 109.875 187.191C109.694 187.027 109.479 186.905 109.246 186.832C108.795 186.708 108.317 186.724 107.875 186.876C107.875 186.876 107.97 186.762 108.21 186.661C108.562 186.53 108.947 186.513 109.31 186.611C109.586 186.68 109.842 186.81 110.061 186.991C110.28 187.173 110.455 187.401 110.574 187.66C110.7 187.944 110.782 188.254 110.896 188.538C110.977 188.825 111.165 189.069 111.421 189.221C111.951 189.474 112.602 189.113 113.234 189.113C113.799 189.107 114.346 189.304 114.776 189.67C114.985 189.814 115.158 190.003 115.284 190.222C115.409 190.442 115.484 190.687 115.503 190.94Z" fill="#FAFAFA"/>
<path d="M112.05 212.352C111.843 211.93 111.545 211.559 111.178 211.265C110.778 210.966 110.287 210.812 109.788 210.829C109.488 210.857 109.192 210.912 108.903 210.993C108.544 211.094 108.161 211.072 107.816 210.93C107.49 210.739 107.249 210.432 107.139 210.07C107.019 209.754 106.95 209.438 106.836 209.192C106.742 208.968 106.599 208.767 106.419 208.603C106.239 208.439 106.026 208.317 105.793 208.244C105.342 208.116 104.862 208.134 104.422 208.295C104.422 208.295 104.517 208.174 104.757 208.073C105.203 207.915 105.693 207.93 106.129 208.115C106.566 208.3 106.917 208.641 107.114 209.072C107.247 209.356 107.329 209.666 107.443 209.95C107.524 210.235 107.709 210.479 107.961 210.633C108.498 210.886 109.149 210.526 109.781 210.526C110.346 210.519 110.893 210.716 111.323 211.082C111.531 211.226 111.705 211.415 111.83 211.635C111.956 211.854 112.031 212.1 112.05 212.352Z" fill="#FAFAFA"/>
</svg>
