<svg width="320" height="245" viewBox="0 0 320 245" fill="none" xmlns="http://www.w3.org/2000/svg">
<path d="M320 244.736H0V244.896H320V244.736Z" fill="#EBEBEB"/>
<path d="M151.679 216.192H28.1011C27.133 216.19 26.2052 215.805 25.5212 215.119C24.8373 214.434 24.4531 213.506 24.4531 212.538V38.8224C24.4616 37.8599 24.8494 36.9395 25.5324 36.2613C26.2155 35.583 27.1385 35.2016 28.1011 35.2H151.679C152.648 35.2 153.577 35.585 154.263 36.2703C154.948 36.9557 155.333 37.8852 155.333 38.8544V212.538C155.333 213.507 154.948 214.436 154.263 215.122C153.577 215.807 152.648 216.192 151.679 216.192ZM28.1011 35.328C27.1755 35.3297 26.2883 35.6986 25.6343 36.3537C24.9804 37.0089 24.6131 37.8967 24.6131 38.8224V212.538C24.6131 213.463 24.9804 214.351 25.6343 215.006C26.2883 215.661 27.1755 216.03 28.1011 216.032H151.679C152.605 216.03 153.493 215.662 154.148 215.007C154.803 214.352 155.171 213.464 155.173 212.538V38.8224C155.171 37.8961 154.803 37.0083 154.148 36.3534C153.493 35.6984 152.605 35.3297 151.679 35.328H28.1011Z" fill="#EBEBEB"/>
<path d="M290.117 216.192H166.533C165.565 216.19 164.636 215.805 163.951 215.12C163.266 214.435 162.881 213.506 162.879 212.538V38.8224C162.889 37.8593 163.278 36.9389 163.962 36.2609C164.646 35.5828 165.57 35.2016 166.533 35.2H290.117C291.079 35.2033 292 35.5854 292.682 36.2635C293.364 36.9416 293.751 37.861 293.759 38.8224V212.538C293.759 213.505 293.376 214.432 292.693 215.117C292.011 215.802 291.084 216.189 290.117 216.192ZM166.533 35.328C165.607 35.3297 164.719 35.6984 164.064 36.3534C163.409 37.0083 163.041 37.8961 163.039 38.8224V212.538C163.041 213.464 163.409 214.352 164.064 215.007C164.719 215.662 165.607 216.03 166.533 216.032H290.117C291.044 216.03 291.931 215.662 292.586 215.007C293.241 214.352 293.61 213.464 293.612 212.538V38.8224C293.61 37.8961 293.241 37.0083 292.586 36.3534C291.931 35.6984 291.044 35.3297 290.117 35.328H166.533Z" fill="#EBEBEB"/>
<path d="M40.1921 170.656H87.9297L87.9297 51.36H40.1921L40.1921 170.656Z" fill="#E6E6E6"/>
<path d="M33.2798 170.656H86.707L86.707 51.36H33.2798L33.2798 170.656Z" fill="#F5F5F5"/>
<path d="M81.1953 165.139V56.864H38.7889L38.7889 165.139H81.1953Z" fill="white"/>
<path d="M98.778 170.656H146.516L146.516 51.36H98.778L98.778 170.656Z" fill="#E6E6E6"/>
<path d="M91.8658 170.656H145.293L145.293 51.36H91.8658L91.8658 170.656Z" fill="#F5F5F5"/>
<path d="M139.781 165.139V56.864H97.3748V165.139H139.781Z" fill="white"/>
<path d="M179.251 197.85H140.121V244.736H179.251V197.85Z" fill="#E0E0E0"/>
<path d="M179.252 197.85H140.123L131.316 188.883H170.446L179.252 197.85Z" fill="#E0E0E0"/>
<path d="M117.222 188.883H78.099L70.707 197.85H109.837L117.222 188.883Z" fill="#F5F5F5"/>
<path d="M70.7145 244.736H140.129V197.85H70.7145V244.736Z" fill="#F5F5F5"/>
<path d="M135.099 232.211H140.129V210.368H135.099V232.211Z" fill="#F0F0F0"/>
<path d="M94.3164 205.901V224.902H113.318V205.901H94.3164Z" fill="#F0F0F0"/>
<path d="M70.7891 205.901V224.902H89.7907V205.901H70.7891Z" fill="#F0F0F0"/>
<path d="M94.3164 226.08V227.629H113.318V226.08H94.3164Z" fill="#F0F0F0"/>
<path d="M70.7891 226.08V227.629H89.7907V226.08H70.7891Z" fill="#F0F0F0"/>
<path d="M94.3086 230.618V232.166H113.31V230.618H94.3086Z" fill="#F0F0F0"/>
<path d="M70.7891 230.618V232.166H89.7907V230.618H70.7891Z" fill="#F0F0F0"/>
<path d="M94.3164 235.149V236.698H113.318V235.149H94.3164Z" fill="#F0F0F0"/>
<path d="M70.7891 235.155V236.704H89.7907V235.155H70.7891Z" fill="#F0F0F0"/>
<path d="M151.391 210.374H140.121V232.218H151.391V210.374Z" fill="#E6E6E6"/>
<path d="M194.069 244.736H212.859V139.309H194.069V244.736Z" fill="#E6E6E6"/>
<path d="M199.08 244.736H194.062V226.515H204.341L199.08 244.736Z" fill="#F5F5F5"/>
<path d="M247.944 244.736H266.734V139.309H247.944V244.736Z" fill="#E6E6E6"/>
<path d="M194.063 238.464H252.328V139.309H194.063V238.464Z" fill="#F5F5F5"/>
<path d="M247.308 244.736H252.325V226.515H242.047L247.308 244.736Z" fill="#F5F5F5"/>
<path d="M197.957 234.349H248.434V191.053H197.957V234.349Z" fill="#F0F0F0"/>
<path d="M213.972 234.349H248.43V191.053H213.972V234.349Z" fill="#E6E6E6"/>
<path d="M197.957 187.2H248.434V143.904H197.957V187.2Z" fill="#F0F0F0"/>
<path d="M213.972 187.2H248.43V143.904H213.972V187.2Z" fill="#E6E6E6"/>
<path d="M231.208 177.037C231.208 182.624 226.453 187.2 220.641 187.2H215.4C209.589 187.2 204.84 182.624 204.84 177.037H231.208Z" fill="white"/>
<path d="M231.208 169.926C231.208 175.514 226.453 180.09 220.641 180.09H215.4C209.589 180.09 204.84 175.514 204.84 169.926H231.208Z" fill="white"/>
<path d="M225.921 205.011H241.46C241.46 205.011 238.759 211.558 238.759 215.405C238.759 219.251 250.58 234.349 233.691 234.349C216.801 234.349 228.615 219.258 228.615 215.405C228.615 211.552 225.921 205.011 225.921 205.011Z" fill="#F5F5F5"/>
<path d="M231.208 162.81C231.208 168.403 226.453 172.979 220.641 172.979H215.4C209.589 172.979 204.84 168.403 204.84 162.81H231.208Z" fill="white"/>
<path d="M226.56 131.667C225.972 114.989 225.338 84.4096 226.631 76.0512L228.736 74.4192C228.736 74.4192 228.276 89.7344 228.032 115.277C227.789 140.819 227.488 127.872 227.751 131.667H226.56Z" fill="#E6E6E6"/>
<path d="M221.742 87.3344C216.859 83.808 206.574 81.2992 195.924 81.312C191.739 81.312 208.372 85.4144 215.124 89.9328C220.359 93.4464 226.126 99.3536 228.007 102.63C227.086 95.7312 226.631 90.88 221.742 87.3344Z" fill="#E6E6E6"/>
<path d="M231.544 96.5184C236.024 92.8512 246.027 90.0224 256.658 89.7088C260.837 89.5808 244.683 94.1888 238.456 98.912C233.624 102.579 228.51 108.653 227 111.981C227.141 105.069 227.051 100.192 231.544 96.5184Z" fill="#E6E6E6"/>
<path d="M227.372 139.309C225.393 139.309 223.489 138.552 222.05 137.193C220.611 135.834 219.747 133.976 219.634 132L218.949 126.374H235.794L235.109 132C234.996 133.976 234.132 135.834 232.693 137.193C231.255 138.552 229.351 139.309 227.372 139.309Z" fill="#F0F0F0"/>
<path d="M236.885 129.069H217.864L217.32 124.134H237.436L236.885 129.069Z" fill="#F0F0F0"/>
<path d="M226.75 254.643L222.148 255.616L219.031 245.146L223.633 244.173L226.75 254.643Z" fill="#EB996E"/>
<path opacity="0.2" d="M219.031 245.146L220.638 250.547L225.239 249.574L223.633 244.179L219.031 245.146Z" fill="black"/>
<path d="M193.422 104.858C192.481 107.974 191.451 111.008 190.331 114.054C189.211 117.101 188.007 120.102 186.587 123.142L186.03 124.288L185.422 125.459C185.217 125.85 184.974 126.214 184.75 126.598C184.526 126.982 184.302 127.347 184.046 127.706C183.083 129.149 182.013 130.518 180.846 131.802C179.706 133.074 178.476 134.263 177.166 135.36C176.526 135.91 175.847 136.429 175.15 136.922C174.452 137.414 173.78 137.875 172.961 138.349L170.695 135.334C171.137 134.822 171.675 134.227 172.148 133.651C172.622 133.075 173.089 132.461 173.556 131.866C174.471 130.662 175.335 129.427 176.116 128.179C176.911 126.939 177.639 125.657 178.299 124.339C178.631 123.699 178.939 123.059 179.22 122.374L179.643 121.382L180.052 120.339C181.134 117.504 182.145 114.515 183.137 111.526L186.132 102.566L193.422 104.858Z" fill="#EB996E"/>
<path d="M196.779 99.7824C198.398 104.09 189.79 119.411 189.79 119.411L180.113 111.949C181.768 107.888 183.779 103.982 186.123 100.275C189.528 95.2 195 95.0592 196.779 99.7824Z" fill="#39D4DF"/>
<path opacity="0.2" d="M194.887 104.038C191.828 105.318 187.674 110.259 186.375 116.774L189.793 119.411C189.793 119.411 194.913 110.349 196.493 104.205C196.271 104.024 196 103.912 195.715 103.883C195.43 103.853 195.142 103.907 194.887 104.038Z" fill="black"/>
<path d="M191.066 96.4928C191.066 96.4928 185.389 107.232 190.784 134.291H216.518C216.691 130.336 214.208 114.854 218.022 96.2432C215.177 95.6961 212.3 95.3326 209.408 95.1552C205.765 94.9438 202.113 94.9438 198.47 95.1552C195.971 95.406 193.495 95.8533 191.066 96.4928Z" fill="#39D4DF"/>
<path d="M162.438 138.611L165.055 140.979L168.933 139.949L166.303 135.27L162.438 138.611Z" fill="#EB996E"/>
<path d="M171.981 135.539L166.305 135.27L168.935 139.949C168.935 139.949 173.153 140.397 173.556 137.28L171.981 135.539Z" fill="#EB996E"/>
<path d="M208.319 82.8352C207.635 86.3552 206.943 92.8064 209.407 95.1552C209.407 95.1552 208.3 97.5168 201.759 97.5168C195.782 97.5168 198.47 95.1552 198.47 95.1552C202.393 94.2208 202.31 91.3152 201.606 88.5696L208.319 82.8352Z" fill="#EB996E"/>
<path opacity="0.2" d="M205.588 85.1776L201.613 88.5696C201.778 89.1991 201.89 89.8413 201.946 90.4896C202.906 91.9808 205.524 89.792 206.004 87.5008C206.04 86.705 205.898 85.9112 205.588 85.1776Z" fill="black"/>
<path d="M192.531 75.104C191.219 77.312 194.105 83.424 197.446 82.8672C200.787 82.3104 195.027 70.9248 192.531 75.104Z" fill="#263238"/>
<path d="M206.718 77.3056C207.416 82.0288 208.062 84.7552 206.212 87.648C203.435 91.9936 197.252 91.072 195.128 86.656C193.24 82.6752 192.414 75.6224 196.587 72.8C197.504 72.1733 198.567 71.7916 199.673 71.6913C200.78 71.5909 201.894 71.7753 202.909 72.2268C203.924 72.6783 204.807 73.382 205.474 74.2709C206.141 75.1598 206.569 76.2045 206.718 77.3056Z" fill="#EB996E"/>
<path d="M207.135 71.0784L203.059 74.048C205.516 76.9728 202.726 83.3664 206.598 81.9136C208.371 81.28 212.947 74.304 207.135 71.0784Z" fill="#263238"/>
<path d="M202.241 67.4368C196.052 68.9344 195.501 67.1488 195.917 64.832C191.29 65.5936 187.828 69.2416 190.516 73.6512C193.498 78.5472 202.599 74.5728 204.205 74.5408L206.516 73.9776C211.764 72.448 209.972 65.5744 202.241 67.4368Z" fill="#263238"/>
<path d="M207.755 79.776C206.584 79.776 202.961 79.776 202.923 79.776C202.896 79.776 202.87 79.7652 202.851 79.746C202.831 79.7268 202.821 79.7008 202.821 79.6736C202.82 79.6599 202.822 79.6462 202.826 79.6333C202.831 79.6205 202.839 79.6088 202.848 79.5991C202.858 79.5894 202.87 79.5819 202.883 79.5771C202.896 79.5722 202.909 79.5703 202.923 79.5712C202.961 79.5712 206.584 79.5712 207.755 79.5712C207.782 79.5712 207.808 79.582 207.827 79.6012C207.847 79.6204 207.857 79.6464 207.857 79.6736C207.857 79.7008 207.847 79.7268 207.827 79.746C207.808 79.7652 207.782 79.776 207.755 79.776Z" fill="white"/>
<path d="M209.919 81.9968C209.505 83.1268 208.66 84.0471 207.57 84.5568C206.117 85.1968 205.151 83.9744 205.355 82.4768C205.535 81.1328 206.507 79.168 208.063 79.1424C208.4 79.1436 208.733 79.2288 209.029 79.3904C209.326 79.552 209.578 79.7849 209.762 80.0682C209.946 80.3514 210.057 80.6759 210.084 81.0126C210.112 81.3493 210.055 81.6876 209.919 81.9968Z" fill="#EB996E"/>
<path d="M190.782 134.291C190.782 134.291 187.326 178.394 186.679 193.062C186.001 208.314 194.513 253.946 194.513 253.946H202.161C202.161 253.946 199.639 211.622 200.958 196.691C202.391 180.41 207.697 134.291 207.697 134.291H190.782Z" fill="#263238"/>
<path opacity="0.2" d="M198.495 168.96C199.096 174.907 200.253 180.784 201.951 186.515C203.129 174.938 204.857 159.379 206.111 148.262C203.167 150.189 197.331 155.763 198.495 168.96Z" fill="black"/>
<path d="M199.68 134.291C199.68 134.291 201.644 178.246 204.646 192.019C207.923 207.104 217.715 249.786 217.715 249.786L226.336 247.968C226.336 247.968 220.524 207.501 218.656 192.57C216.627 176.358 216.288 134.291 216.288 134.291H199.68Z" fill="#263238"/>
<path d="M226.929 248.038L217.643 249.99L216.094 246.656L226.315 244.205L226.929 248.038Z" fill="#39D4DF"/>
<path d="M200.222 80.0384C200.305 80.416 200.171 80.768 199.921 80.8192C199.672 80.8704 199.403 80.608 199.326 80.2304C199.249 79.8528 199.384 79.5008 199.627 79.4496C199.87 79.3984 200.145 79.6608 200.222 80.0384Z" fill="#263238"/>
<path d="M195.934 80.9472C196.011 81.3248 195.877 81.6768 195.627 81.728C195.377 81.7792 195.115 81.5168 195.032 81.1392C194.949 80.7616 195.089 80.4032 195.339 80.352C195.589 80.3008 195.838 80.5696 195.934 80.9472Z" fill="#263238"/>
<path d="M197.048 80.9088C196.843 82.1648 196.464 83.3861 195.922 84.5376C196.221 84.6685 196.545 84.7323 196.871 84.7246C197.197 84.7168 197.518 84.6377 197.81 84.4928L197.048 80.9088Z" fill="#EB996E"/>
<path d="M198.719 85.9968C198.704 86.0023 198.687 86.0043 198.67 86.0026C198.654 86.001 198.637 85.9957 198.623 85.9872C198.609 85.9787 198.596 85.9672 198.587 85.9534C198.577 85.9396 198.571 85.9239 198.568 85.9074C198.565 85.891 198.566 85.8741 198.57 85.8579C198.575 85.8418 198.583 85.8267 198.593 85.8139C198.604 85.8011 198.618 85.7908 198.633 85.7837C198.648 85.7766 198.664 85.7729 198.681 85.7728C199.159 85.7029 199.613 85.5217 200.008 85.2437C200.403 84.9658 200.726 84.5989 200.953 84.1728C200.964 84.1451 200.986 84.1229 201.014 84.1109C201.041 84.099 201.072 84.0982 201.1 84.1088C201.114 84.115 201.127 84.1239 201.137 84.135C201.148 84.1462 201.156 84.1593 201.161 84.1735C201.167 84.1878 201.169 84.203 201.168 84.2183C201.168 84.2336 201.164 84.2485 201.158 84.2624C200.921 84.7263 200.576 85.1262 200.151 85.4281C199.727 85.7301 199.235 85.9251 198.719 85.9968Z" fill="#263238"/>
<path d="M202.239 76.704C202.206 76.7136 202.17 76.7151 202.136 76.7084C202.101 76.7018 202.069 76.6871 202.041 76.6656C201.813 76.4926 201.548 76.3758 201.267 76.3246C200.985 76.2735 200.696 76.2894 200.422 76.3712C200.366 76.3891 200.305 76.385 200.252 76.3597C200.199 76.3344 200.158 76.2898 200.137 76.2351C200.115 76.1804 200.116 76.1196 200.138 76.0652C200.16 76.0108 200.202 75.9669 200.255 75.9424C200.601 75.8338 200.969 75.8096 201.326 75.872C201.683 75.9343 202.021 76.0814 202.31 76.3008C202.334 76.318 202.354 76.3397 202.37 76.3648C202.385 76.3899 202.396 76.4178 202.401 76.4469C202.405 76.4761 202.404 76.5059 202.397 76.5346C202.391 76.5634 202.378 76.5905 202.361 76.6144C202.33 76.655 202.287 76.6861 202.239 76.704Z" fill="#263238"/>
<path d="M193.337 78.08C193.302 78.0781 193.269 78.0671 193.241 78.048C193.191 78.0142 193.157 77.9626 193.145 77.9041C193.133 77.8456 193.145 77.7848 193.177 77.7344C193.364 77.4247 193.624 77.1652 193.934 76.9779C194.244 76.7906 194.594 76.6813 194.956 76.6592C195.01 76.6682 195.058 76.696 195.093 76.7376C195.129 76.7792 195.148 76.8319 195.148 76.8864C195.148 76.9409 195.129 76.9936 195.093 77.0352C195.058 77.0768 195.01 77.1045 194.956 77.1136C194.67 77.1361 194.394 77.2262 194.151 77.3765C193.907 77.5267 193.703 77.7327 193.554 77.9776C193.532 78.0142 193.5 78.0434 193.461 78.0616C193.422 78.0798 193.379 78.0862 193.337 78.08Z" fill="#263238"/>
<path d="M214.209 95.36L212.993 95.2512C212.933 95.2484 212.875 95.2669 212.828 95.3032C212.781 95.3396 212.749 95.3915 212.737 95.4496C209.358 113.6 211.252 132.877 211.252 132.877H212.596C211.859 120.431 212.471 107.943 214.42 95.6288C214.425 95.5971 214.424 95.5645 214.416 95.5333C214.408 95.5021 214.394 95.4728 214.374 95.4475C214.354 95.4222 214.329 95.4013 214.301 95.3862C214.272 95.3712 214.241 95.3622 214.209 95.36Z" fill="#263238"/>
<path d="M212.788 132.89C212.788 132.775 212.743 132.666 212.663 132.584C212.583 132.503 212.474 132.456 212.359 132.454H211.431C211.316 132.456 211.207 132.502 211.125 132.584C211.044 132.665 210.998 132.775 210.996 132.89C210.997 132.986 211.03 133.078 211.091 133.153C211.151 133.227 211.235 133.279 211.329 133.299V134.451C211.344 134.591 211.41 134.72 211.514 134.814C211.619 134.908 211.755 134.961 211.895 134.961C212.036 134.961 212.172 134.908 212.276 134.814C212.381 134.72 212.447 134.591 212.462 134.451V133.299C212.554 133.278 212.637 133.225 212.696 133.151C212.755 133.077 212.788 132.985 212.788 132.89Z" fill="white"/>
<path d="M193.836 95.616L192.633 95.84C192.584 95.8492 192.538 95.874 192.504 95.9109C192.469 95.9477 192.447 95.9947 192.441 96.0448C189.881 114.208 192.684 132.89 192.684 132.89H194.022C192.025 113.12 193.798 98.2272 194.112 95.8784C194.116 95.8417 194.112 95.8045 194.1 95.7697C194.087 95.7349 194.067 95.7035 194.04 95.678C194.013 95.6525 193.981 95.6336 193.946 95.6228C193.91 95.6121 193.873 95.6097 193.836 95.616Z" fill="#263238"/>
<path d="M194.219 132.89C194.211 132.774 194.16 132.665 194.076 132.584C193.992 132.504 193.881 132.457 193.764 132.454H192.836C192.78 132.454 192.725 132.466 192.673 132.488C192.622 132.51 192.575 132.542 192.537 132.583C192.499 132.624 192.469 132.672 192.45 132.725C192.431 132.778 192.423 132.834 192.427 132.89C192.431 132.986 192.468 133.079 192.53 133.153C192.593 133.227 192.678 133.278 192.772 133.299L192.83 134.451C192.838 134.602 192.903 134.745 193.013 134.849C193.122 134.954 193.267 135.013 193.419 135.014C193.492 135.015 193.565 135.001 193.632 134.973C193.7 134.945 193.761 134.903 193.812 134.85C193.863 134.798 193.903 134.735 193.929 134.666C193.955 134.598 193.966 134.524 193.963 134.451L193.905 133.299C193.997 133.278 194.079 133.226 194.136 133.151C194.193 133.076 194.222 132.984 194.219 132.89Z" fill="white"/>
<path d="M200.909 83.2448C199.393 83.5648 197.831 82.2848 197.434 80.3968C197.082 78.7136 197.863 77.5872 199.636 77.1968C201.409 76.8064 202.58 77.5424 202.938 79.2192C203.335 81.1264 202.426 82.9248 200.909 83.2448ZM199.681 77.44C198.522 77.6832 197.223 78.3936 197.645 80.3776C198.017 82.1568 199.469 83.3664 200.845 83.0656C202.221 82.7648 203.092 81.0816 202.714 79.3024C202.311 77.2928 200.839 77.1648 199.681 77.44Z" fill="white"/>
<path d="M194.695 84.5568C193.415 84.8256 192.058 83.5072 191.661 81.6192C191.181 79.3472 192.557 78.7072 193.421 78.5216C194.285 78.336 195.802 78.3744 196.282 80.64C196.679 82.56 195.969 84.288 194.695 84.5568ZM193.466 78.72C192.5 78.9248 191.444 79.584 191.86 81.568C192.237 83.3472 193.492 84.5952 194.65 84.3456C195.809 84.096 196.455 82.4256 196.077 80.6784C195.661 78.72 194.426 78.5216 193.466 78.72Z" fill="white"/>
<path d="M197.529 79.2192H197.478C197.193 79.1203 196.886 79.1008 196.591 79.1628C196.295 79.2248 196.022 79.366 195.801 79.5712C195.792 79.5809 195.781 79.5886 195.769 79.5939C195.757 79.5992 195.744 79.6019 195.731 79.6019C195.717 79.6019 195.704 79.5992 195.692 79.5939C195.68 79.5886 195.669 79.5809 195.66 79.5712C195.65 79.5617 195.642 79.5502 195.637 79.5376C195.632 79.5249 195.629 79.5113 195.629 79.4976C195.629 79.4839 195.632 79.4703 195.637 79.4576C195.642 79.445 195.65 79.4336 195.66 79.424C195.907 79.1957 196.211 79.0389 196.54 78.9701C196.87 78.9013 197.211 78.9233 197.529 79.0336C197.554 79.0411 197.575 79.0578 197.588 79.0804C197.601 79.103 197.605 79.1298 197.599 79.1552C197.593 79.1703 197.583 79.1838 197.571 79.1948C197.559 79.2059 197.545 79.2142 197.529 79.2192Z" fill="white"/>
<path d="M202.156 97.5104L203.091 96.832L205.094 98.752L202.156 97.5104Z" fill="#263238"/>
<path d="M203.09 96.832C203.09 96.832 204.741 99.1424 205.061 100.813C207.039 99.9936 210.763 97.9456 211.263 95.0528C210.543 94.8235 209.857 94.5008 209.221 94.0928C209.221 94.0928 207.231 95.7824 203.09 96.832Z" fill="white"/>
<path d="M202.156 97.5104L201.765 96.7232L199.18 98.752L202.156 97.5104Z" fill="#263238"/>
<path d="M201.764 96.7296C200.733 97.7089 200.058 99.0037 199.844 100.41C197.873 99.5904 197.099 96.9216 197.611 95.1424C198.362 94.8054 199.148 94.548 199.953 94.3744C199.923 94.9187 200.09 95.4557 200.422 95.8878C200.754 96.32 201.23 96.6186 201.764 96.7296Z" fill="white"/>
<path d="M198.641 137.082L201.988 140.608L205.341 139.034L202.506 133.734L198.641 137.082Z" fill="#EB996E"/>
<path d="M208.185 134.003L202.508 133.734L205.343 139.034C205.343 139.034 209.356 138.861 209.759 135.75L208.185 134.003Z" fill="#EB996E"/>
<path d="M222.718 102.867C223.556 106.342 224.299 109.818 224.964 113.331C225.297 115.085 225.609 116.847 225.899 118.618C226.2 120.39 226.462 122.17 226.68 124.026C226.73 124.375 226.758 124.728 226.763 125.082C226.776 125.488 226.75 125.896 226.686 126.298C226.572 127.064 226.341 127.809 226.001 128.506C225.42 129.66 224.625 130.693 223.659 131.552C222.092 132.92 220.321 134.037 218.411 134.861C214.967 136.365 211.338 137.407 207.62 137.958L206.68 134.31C208.216 133.67 209.828 132.966 211.345 132.205C212.844 131.483 214.302 130.677 215.71 129.792C216.98 129.034 218.139 128.104 219.153 127.027C219.491 126.67 219.752 126.247 219.921 125.786C219.956 125.678 219.969 125.565 219.96 125.453C219.967 125.417 219.967 125.38 219.96 125.344C219.926 125.258 219.904 125.167 219.896 125.075C219.217 121.76 218.379 118.298 217.604 114.88C216.83 111.462 216.036 107.994 215.32 104.55L222.718 102.867Z" fill="#EB996E"/>
<path d="M218.022 96.2432C224.422 97.3888 227.251 113.402 227.251 113.402L216.96 119.712C216.96 119.712 213.689 110.266 213.862 104.32C214.041 98.6496 213.164 95.36 218.022 96.2432Z" fill="#39D4DF"/>
<path d="M174.639 142.317H108.738V266.387H174.639V142.317Z" fill="#39D4DF"/>
<path d="M186.867 140.806H114.797V142.323H186.867V140.806Z" fill="#39D4DF"/>
<path opacity="0.3" d="M186.867 140.806H114.797V142.323H186.867V140.806Z" fill="black"/>
<path d="M174.646 266.394H192.938L192.937 142.323H174.646V266.394Z" fill="#39D4DF"/>
<path opacity="0.2" d="M174.646 266.394H192.938L192.937 142.323H174.646V266.394Z" fill="black"/>
<path opacity="0.1" d="M169.321 148.237H165.634C165.306 148.237 165.039 148.503 165.039 148.832V152.544C165.039 152.873 165.306 153.139 165.634 153.139H169.321C169.649 153.139 169.916 152.873 169.916 152.544V148.832C169.916 148.503 169.649 148.237 169.321 148.237Z" fill="black"/>
<path opacity="0.3" d="M159.258 148.237H155.572C155.243 148.237 154.977 148.503 154.977 148.832V152.544C154.977 152.873 155.243 153.139 155.572 153.139H159.258C159.587 153.139 159.853 152.873 159.853 152.544V148.832C159.853 148.503 159.587 148.237 159.258 148.237Z" fill="black"/>
<path opacity="0.3" d="M149.203 148.237H145.517C145.188 148.237 144.922 148.503 144.922 148.832V152.544C144.922 152.873 145.188 153.139 145.517 153.139H149.203C149.532 153.139 149.799 152.873 149.799 152.544V148.832C149.799 148.503 149.532 148.237 149.203 148.237Z" fill="black"/>
<path opacity="0.1" d="M139.145 148.237H135.458C135.13 148.237 134.863 148.503 134.863 148.832V152.544C134.863 152.873 135.13 153.139 135.458 153.139H139.145C139.474 153.139 139.74 152.873 139.74 152.544V148.832C139.74 148.503 139.474 148.237 139.145 148.237Z" fill="black"/>
<path opacity="0.3" d="M129.09 148.237H125.404C125.075 148.237 124.809 148.503 124.809 148.832V152.544C124.809 152.873 125.075 153.139 125.404 153.139H129.09C129.419 153.139 129.685 152.873 129.685 152.544V148.832C129.685 148.503 129.419 148.237 129.09 148.237Z" fill="black"/>
<path opacity="0.3" d="M119.028 148.237H115.341C115.013 148.237 114.746 148.503 114.746 148.832V152.544C114.746 152.873 115.013 153.139 115.341 153.139H119.028C119.356 153.139 119.623 152.873 119.623 152.544V148.832C119.623 148.503 119.356 148.237 119.028 148.237Z" fill="black"/>
<g opacity="0.1">
<path d="M172.487 155.949H110.887V175.373H172.487V155.949Z" fill="black"/>
</g>
<path d="M169 158.726H167.266C166.806 158.726 166.434 159.099 166.434 159.558V171.77C166.434 172.229 166.806 172.602 167.266 172.602H169C169.46 172.602 169.832 172.229 169.832 171.77V159.558C169.832 159.099 169.46 158.726 169 158.726Z" fill="#39D4DF"/>
<path opacity="0.1" d="M161.992 158.726H160.258C159.798 158.726 159.426 159.099 159.426 159.558V171.77C159.426 172.229 159.798 172.602 160.258 172.602H161.992C162.452 172.602 162.824 172.229 162.824 171.77V159.558C162.824 159.099 162.452 158.726 161.992 158.726Z" fill="black"/>
<path d="M154.977 158.726H153.242C152.783 158.726 152.41 159.099 152.41 159.558V171.77C152.41 172.229 152.783 172.602 153.242 172.602H154.977C155.436 172.602 155.809 172.229 155.809 171.77V159.558C155.809 159.099 155.436 158.726 154.977 158.726Z" fill="#39D4DF"/>
<path d="M147.965 158.726H146.23C145.771 158.726 145.398 159.099 145.398 159.558V171.77C145.398 172.229 145.771 172.602 146.23 172.602H147.965C148.424 172.602 148.797 172.229 148.797 171.77V159.558C148.797 159.099 148.424 158.726 147.965 158.726Z" fill="#39D4DF"/>
<path opacity="0.3" d="M128.531 162.56C128.531 162.117 128.663 161.684 128.909 161.316C129.155 160.947 129.505 160.66 129.914 160.491C130.323 160.321 130.774 160.277 131.208 160.363C131.643 160.449 132.042 160.663 132.355 160.976C132.668 161.289 132.882 161.688 132.968 162.123C133.055 162.558 133.01 163.008 132.841 163.417C132.671 163.827 132.384 164.176 132.016 164.423C131.647 164.669 131.214 164.8 130.771 164.8C130.178 164.798 129.609 164.562 129.189 164.142C128.769 163.722 128.533 163.154 128.531 162.56Z" fill="white"/>
<path opacity="0.1" d="M139.417 168.762C139.416 169.204 139.284 169.637 139.037 170.004C138.79 170.372 138.44 170.658 138.03 170.827C137.621 170.995 137.171 171.039 136.737 170.951C136.302 170.864 135.904 170.65 135.591 170.337C135.279 170.023 135.066 169.624 134.98 169.19C134.894 168.756 134.939 168.305 135.109 167.897C135.278 167.488 135.565 167.138 135.934 166.892C136.302 166.646 136.735 166.515 137.177 166.515C137.472 166.515 137.764 166.573 138.036 166.686C138.308 166.799 138.556 166.965 138.764 167.174C138.972 167.382 139.137 167.63 139.249 167.902C139.361 168.175 139.418 168.467 139.417 168.762Z" fill="black"/>
<path opacity="0.1" d="M134.938 162.56C134.938 162.117 135.069 161.684 135.315 161.316C135.561 160.947 135.911 160.66 136.32 160.491C136.73 160.321 137.18 160.277 137.615 160.363C138.049 160.449 138.448 160.663 138.761 160.976C139.075 161.289 139.288 161.688 139.374 162.123C139.461 162.558 139.417 163.008 139.247 163.417C139.077 163.827 138.79 164.176 138.422 164.423C138.054 164.669 137.621 164.8 137.178 164.8C136.584 164.798 136.015 164.562 135.595 164.142C135.176 163.722 134.939 163.154 134.938 162.56Z" fill="black"/>
<path opacity="0.1" d="M133.011 168.762C133.01 169.204 132.878 169.637 132.631 170.004C132.384 170.372 132.033 170.658 131.624 170.827C131.215 170.995 130.764 171.039 130.33 170.951C129.896 170.864 129.498 170.65 129.185 170.337C128.872 170.023 128.66 169.624 128.574 169.19C128.488 168.756 128.533 168.305 128.702 167.897C128.872 167.488 129.159 167.138 129.527 166.892C129.896 166.646 130.328 166.515 130.771 166.515C131.066 166.515 131.358 166.573 131.63 166.686C131.902 166.799 132.149 166.965 132.357 167.174C132.566 167.382 132.73 167.63 132.843 167.902C132.955 168.175 133.012 168.467 133.011 168.762Z" fill="black"/>
<path opacity="0.3" d="M123.039 169.099C124.936 167.202 124.936 164.126 123.039 162.229C121.142 160.332 118.066 160.332 116.169 162.229C114.272 164.126 114.272 167.202 116.169 169.099C118.066 170.996 121.142 170.996 123.039 169.099Z" fill="white"/>
<g opacity="0.1">
<path d="M172.487 178.035H110.887V197.459H172.487V178.035Z" fill="black"/>
</g>
<path d="M169 180.813H167.266C166.806 180.813 166.434 181.185 166.434 181.645V193.856C166.434 194.316 166.806 194.688 167.266 194.688H169C169.46 194.688 169.832 194.316 169.832 193.856V181.645C169.832 181.185 169.46 180.813 169 180.813Z" fill="#39D4DF"/>
<path opacity="0.1" d="M161.992 180.813H160.258C159.798 180.813 159.426 181.185 159.426 181.645V193.856C159.426 194.316 159.798 194.688 160.258 194.688H161.992C162.452 194.688 162.824 194.316 162.824 193.856V181.645C162.824 181.185 162.452 180.813 161.992 180.813Z" fill="black"/>
<path d="M154.977 180.813H153.242C152.783 180.813 152.41 181.185 152.41 181.645V193.856C152.41 194.316 152.783 194.688 153.242 194.688H154.977C155.436 194.688 155.809 194.316 155.809 193.856V181.645C155.809 181.185 155.436 180.813 154.977 180.813Z" fill="#39D4DF"/>
<path d="M147.965 180.813H146.23C145.771 180.813 145.398 181.185 145.398 181.645V193.856C145.398 194.316 145.771 194.688 146.23 194.688H147.965C148.424 194.688 148.797 194.316 148.797 193.856V181.645C148.797 181.185 148.424 180.813 147.965 180.813Z" fill="#39D4DF"/>
<path opacity="0.3" d="M128.531 184.653C128.531 184.21 128.663 183.777 128.909 183.408C129.155 183.04 129.505 182.753 129.914 182.583C130.323 182.414 130.774 182.369 131.208 182.456C131.643 182.542 132.042 182.756 132.355 183.069C132.668 183.382 132.882 183.781 132.968 184.216C133.055 184.65 133.01 185.101 132.841 185.51C132.671 185.919 132.384 186.269 132.016 186.515C131.647 186.761 131.214 186.893 130.771 186.893C130.177 186.893 129.607 186.657 129.187 186.237C128.767 185.817 128.531 185.247 128.531 184.653Z" fill="white"/>
<path opacity="0.3" d="M137.178 193.088C138.415 193.088 139.418 192.085 139.418 190.848C139.418 189.611 138.415 188.608 137.178 188.608C135.94 188.608 134.938 189.611 134.938 190.848C134.938 192.085 135.94 193.088 137.178 193.088Z" fill="white"/>
<path opacity="0.1" d="M134.938 184.653C134.938 184.21 135.069 183.777 135.315 183.408C135.561 183.04 135.911 182.753 136.32 182.583C136.73 182.414 137.18 182.369 137.615 182.456C138.049 182.542 138.448 182.756 138.761 183.069C139.075 183.382 139.288 183.781 139.374 184.216C139.461 184.65 139.417 185.101 139.247 185.51C139.077 185.919 138.79 186.269 138.422 186.515C138.054 186.761 137.621 186.893 137.178 186.893C136.583 186.893 136.014 186.657 135.594 186.237C135.174 185.817 134.938 185.247 134.938 184.653Z" fill="black"/>
<path opacity="0.1" d="M130.771 193.088C132.008 193.088 133.011 192.085 133.011 190.848C133.011 189.611 132.008 188.608 130.771 188.608C129.534 188.608 128.531 189.611 128.531 190.848C128.531 192.085 129.534 193.088 130.771 193.088Z" fill="black"/>
<path opacity="0.3" d="M119.604 192.608C122.286 192.608 124.461 190.433 124.461 187.75C124.461 185.068 122.286 182.893 119.604 182.893C116.921 182.893 114.746 185.068 114.746 187.75C114.746 190.433 116.921 192.608 119.604 192.608Z" fill="white"/>
<g opacity="0.1">
<path d="M172.487 200.128H110.887V219.552H172.487V200.128Z" fill="black"/>
</g>
<path d="M169 202.899H167.266C166.806 202.899 166.434 203.272 166.434 203.731V215.942C166.434 216.402 166.806 216.774 167.266 216.774H169C169.46 216.774 169.832 216.402 169.832 215.942V203.731C169.832 203.272 169.46 202.899 169 202.899Z" fill="#39D4DF"/>
<path opacity="0.1" d="M161.992 202.899H160.258C159.798 202.899 159.426 203.272 159.426 203.731V215.942C159.426 216.402 159.798 216.774 160.258 216.774H161.992C162.452 216.774 162.824 216.402 162.824 215.942V203.731C162.824 203.272 162.452 202.899 161.992 202.899Z" fill="black"/>
<path d="M154.977 202.899H153.242C152.783 202.899 152.41 203.272 152.41 203.731V215.942C152.41 216.402 152.783 216.774 153.242 216.774H154.977C155.436 216.774 155.809 216.402 155.809 215.942V203.731C155.809 203.272 155.436 202.899 154.977 202.899Z" fill="#39D4DF"/>
<path d="M147.965 202.899H146.23C145.771 202.899 145.398 203.272 145.398 203.731V215.942C145.398 216.402 145.771 216.774 146.23 216.774H147.965C148.424 216.774 148.797 216.402 148.797 215.942V203.731C148.797 203.272 148.424 202.899 147.965 202.899Z" fill="#39D4DF"/>
<path opacity="0.3" d="M128.531 206.72C128.533 206.277 128.665 205.845 128.912 205.477C129.159 205.11 129.509 204.824 129.918 204.655C130.328 204.487 130.778 204.443 131.212 204.53C131.646 204.617 132.045 204.831 132.357 205.145C132.67 205.458 132.883 205.857 132.969 206.292C133.055 206.726 133.01 207.176 132.84 207.585C132.67 207.994 132.383 208.343 132.015 208.589C131.647 208.835 131.214 208.966 130.771 208.966C130.477 208.966 130.185 208.908 129.913 208.795C129.64 208.682 129.393 208.517 129.185 208.308C128.977 208.099 128.812 207.852 128.7 207.579C128.588 207.307 128.53 207.015 128.531 206.72Z" fill="white"/>
<path opacity="0.3" d="M137.178 215.174C138.415 215.174 139.418 214.172 139.418 212.934C139.418 211.697 138.415 210.694 137.178 210.694C135.94 210.694 134.938 211.697 134.938 212.934C134.938 214.172 135.94 215.174 137.178 215.174Z" fill="white"/>
<path opacity="0.1" d="M134.938 206.72C134.939 206.277 135.071 205.845 135.318 205.477C135.565 205.11 135.915 204.824 136.325 204.655C136.734 204.487 137.184 204.443 137.618 204.53C138.053 204.617 138.451 204.831 138.764 205.145C139.076 205.458 139.289 205.857 139.375 206.292C139.461 206.726 139.416 207.176 139.246 207.585C139.077 207.994 138.79 208.343 138.421 208.589C138.053 208.835 137.62 208.966 137.178 208.966C136.883 208.966 136.591 208.908 136.319 208.795C136.047 208.682 135.799 208.517 135.591 208.308C135.383 208.099 135.218 207.852 135.106 207.579C134.994 207.307 134.937 207.015 134.938 206.72Z" fill="black"/>
<path opacity="0.1" d="M130.771 215.174C132.008 215.174 133.011 214.172 133.011 212.934C133.011 211.697 132.008 210.694 130.771 210.694C129.534 210.694 128.531 211.697 128.531 212.934C128.531 214.172 129.534 215.174 130.771 215.174Z" fill="black"/>
<path opacity="0.1" d="M119.604 214.694C122.286 214.694 124.461 212.52 124.461 209.837C124.461 207.154 122.286 204.979 119.604 204.979C116.921 204.979 114.746 207.154 114.746 209.837C114.746 212.52 116.921 214.694 119.604 214.694Z" fill="black"/>
<g opacity="0.1">
<path d="M172.487 222.214H110.887V241.638H172.487V222.214Z" fill="black"/>
</g>
<path d="M169 224.992H167.266C166.806 224.992 166.434 225.365 166.434 225.824V238.035C166.434 238.495 166.806 238.867 167.266 238.867H169C169.46 238.867 169.832 238.495 169.832 238.035V225.824C169.832 225.365 169.46 224.992 169 224.992Z" fill="#39D4DF"/>
<path opacity="0.1" d="M161.992 224.992H160.258C159.798 224.992 159.426 225.365 159.426 225.824V238.035C159.426 238.495 159.798 238.867 160.258 238.867H161.992C162.452 238.867 162.824 238.495 162.824 238.035V225.824C162.824 225.365 162.452 224.992 161.992 224.992Z" fill="black"/>
<path d="M154.977 224.992H153.242C152.783 224.992 152.41 225.365 152.41 225.824V238.035C152.41 238.495 152.783 238.867 153.242 238.867H154.977C155.436 238.867 155.809 238.495 155.809 238.035V225.824C155.809 225.365 155.436 224.992 154.977 224.992Z" fill="#39D4DF"/>
<path d="M147.965 224.992H146.23C145.771 224.992 145.398 225.365 145.398 225.824V238.035C145.398 238.495 145.771 238.867 146.23 238.867H147.965C148.424 238.867 148.797 238.495 148.797 238.035V225.824C148.797 225.365 148.424 224.992 147.965 224.992Z" fill="#39D4DF"/>
<path opacity="0.3" d="M130.771 231.072C132.008 231.072 133.011 230.069 133.011 228.832C133.011 227.595 132.008 226.592 130.771 226.592C129.534 226.592 128.531 227.595 128.531 228.832C128.531 230.069 129.534 231.072 130.771 231.072Z" fill="white"/>
<path opacity="0.3" d="M137.178 237.267C138.415 237.267 139.418 236.264 139.418 235.027C139.418 233.79 138.415 232.787 137.178 232.787C135.94 232.787 134.938 233.79 134.938 235.027C134.938 236.264 135.94 237.267 137.178 237.267Z" fill="white"/>
<path opacity="0.3" d="M137.178 231.072C138.415 231.072 139.418 230.069 139.418 228.832C139.418 227.595 138.415 226.592 137.178 226.592C135.94 226.592 134.938 227.595 134.938 228.832C134.938 230.069 135.94 231.072 137.178 231.072Z" fill="white"/>
<path opacity="0.1" d="M130.771 237.267C132.008 237.267 133.011 236.264 133.011 235.027C133.011 233.79 132.008 232.787 130.771 232.787C129.534 232.787 128.531 233.79 128.531 235.027C128.531 236.264 129.534 237.267 130.771 237.267Z" fill="black"/>
<path opacity="0.3" d="M119.604 236.787C122.286 236.787 124.461 234.612 124.461 231.93C124.461 229.247 122.286 227.072 119.604 227.072C116.921 227.072 114.746 229.247 114.746 231.93C114.746 234.612 116.921 236.787 119.604 236.787Z" fill="white"/>
<g opacity="0.1">
<path d="M172.487 244.301H110.887V263.725H172.487V244.301Z" fill="black"/>
</g>
<path d="M110.566 112.058H158.118L164.806 139.296H117.254L110.566 112.058Z" fill="#39D4DF"/>
<path d="M130.695 139.296L130.881 140.8H181.684L181.499 139.296H130.695Z" fill="#39D4DF"/>
<path d="M156.698 112.058L163.386 139.296H163.392L163.578 140.8H117.44L117.254 139.296L110.566 112.058H156.698Z" fill="#39D4DF"/>
<path opacity="0.6" d="M156.698 112.058L163.386 139.296H163.392L163.578 140.8H117.44L117.254 139.296L110.566 112.058H156.698Z" fill="white"/>
<path opacity="0.3" d="M137.538 95.9424L137.237 95.7888C136.853 95.5904 127.874 90.8096 126.6 84.5312C125.838 80.5079 125.524 76.4124 125.666 72.32V71.7568L126.229 71.7184C126.299 71.7184 132.994 71.1872 137.314 69.7984L137.512 69.7344L137.704 69.7984C142.024 71.1744 148.719 71.7184 148.789 71.7184L149.352 71.7568V72.32C149.515 76.4101 149.223 80.5055 148.482 84.5312C147.202 90.8096 138.242 95.5904 137.845 95.7888L137.538 95.9424ZM126.927 72.96C126.846 76.7582 127.159 80.5545 127.861 84.288C128.885 89.3696 135.983 93.632 137.538 94.528C139.087 93.6576 146.184 89.408 147.208 84.288C147.914 80.5549 148.227 76.7583 148.143 72.96C144.559 72.668 141.009 72.0489 137.538 71.1104C134.064 72.0485 130.513 72.6676 126.927 72.96Z" fill="#39D4DF"/>
<path d="M137.538 92.384C134.857 90.7456 130.338 87.3536 129.647 83.9168C129.06 80.845 128.755 77.7258 128.738 74.5984C131.708 74.2921 134.65 73.7572 137.538 72.9984C140.424 73.7577 143.364 74.2926 146.332 74.5984C146.312 77.7257 146.008 80.8447 145.423 83.9168C144.732 87.3536 140.213 90.7456 137.538 92.384Z" fill="#39D4DF"/>
<path opacity="0.3" d="M92.1042 266.394H90.8242V116.838C90.8293 113.157 92.2941 109.627 94.8975 107.024C97.5009 104.42 101.03 102.955 104.712 102.95H133.256C134.22 102.947 135.144 102.562 135.825 101.88C136.506 101.197 136.89 100.273 136.891 99.3088H138.171C138.171 100.613 137.654 101.864 136.732 102.787C135.811 103.709 134.56 104.229 133.256 104.23H104.712C101.369 104.234 98.1645 105.563 95.8008 107.927C93.437 110.291 92.1076 113.496 92.1042 116.838V266.394Z" fill="#39D4DF"/>
</svg>
