<svg width="37" height="40" viewBox="0 0 37 40" fill="none" xmlns="http://www.w3.org/2000/svg">
<g clip-path="url(#clip0_17593_2789)">
<path d="M14.0656 24.8354C14.0656 24.8354 13.0154 24.8752 13.2759 26.1783C14.3177 25.8893 14.0656 24.8354 14.0656 24.8354Z" fill="black"/>
<path d="M12.2031 25.3259C13.281 25.4247 13.4176 24.3497 13.4176 24.3497C13.4176 24.3497 12.4211 24.0153 12.2031 25.3259Z" fill="black"/>
<path d="M11.178 25.3415C12.1404 24.8465 11.6804 23.8638 11.6804 23.8638C11.6804 23.8638 10.6598 24.1178 11.178 25.3415Z" fill="black"/>
<path d="M10.0469 24.3147C11.1145 24.4855 11.3242 23.4225 11.3242 23.4225C11.3242 23.4225 10.3526 23.0216 10.0469 24.3147Z" fill="black"/>
<path d="M8.82422 25.5209C9.90666 25.5126 9.93252 24.4292 9.93252 24.4292C9.93252 24.4292 8.91196 24.1955 8.82422 25.5209Z" fill="black"/>
<path d="M9.43383 23.7918C9.43383 23.7918 8.55827 23.21 8.00781 24.4189C9.02191 24.7939 9.43383 23.7918 9.43383 23.7918Z" fill="black"/>
<path d="M7.01746 24.1678C8.07497 23.9406 7.88563 22.8748 7.88563 22.8748C7.88563 22.8748 6.83459 22.8517 7.01746 24.1678Z" fill="black"/>
<path d="M7.65323 22.353C7.65323 22.353 6.82201 21.713 6.1875 22.8823C7.17759 23.3256 7.65323 22.353 7.65323 22.353Z" fill="black"/>
<path d="M9.42969 23.0937C10.3681 23.6322 10.9407 22.7113 10.9407 22.7113C10.9407 22.7113 10.1741 21.9928 9.42969 23.0937Z" fill="black"/>
<path d="M8.49219 22.6807C9.57279 22.6317 9.56263 21.5483 9.56263 21.5483C9.56263 21.5483 8.53005 21.3516 8.49219 22.6807Z" fill="black"/>
<path d="M11.8013 19.8555C11.8013 19.8555 11.0172 20.5546 12.047 21.3942C12.6667 20.5075 11.8013 19.8555 11.8013 19.8555Z" fill="black"/>
<path d="M11.3065 18.762C11.3065 18.762 10.2601 18.8617 10.5926 20.1473C11.6178 19.8001 11.3065 18.762 11.3065 18.762Z" fill="black"/>
<path d="M3.0943 19.0852C3.0943 19.0852 2.31018 19.7853 3.33998 20.6248C3.95878 19.7382 3.0943 19.0852 3.0943 19.0852Z" fill="black"/>
<path d="M1.80777 20.1058C2.83203 19.7586 2.52078 18.7205 2.52078 18.7205C2.52078 18.7205 1.47435 18.8211 1.80777 20.1058Z" fill="black"/>
<path d="M12.8245 21.5206C13.7767 21.008 13.2974 20.0364 13.2974 20.0364C13.2974 20.0364 12.2796 20.3079 12.8245 21.5206Z" fill="black"/>
<path d="M9.07824 21.0785C10.1514 20.9362 10.0471 19.8575 10.0471 19.8575C10.0471 19.8575 9.00158 19.7513 9.07824 21.0785Z" fill="black"/>
<path d="M8.3148 21.553C9.14603 20.8584 8.47828 20.0032 8.47828 20.0032C8.47828 20.0032 7.53899 20.4751 8.3148 21.553Z" fill="black"/>
<path d="M7.45154 20.5058C7.45154 20.5058 6.41527 20.3294 6.40234 21.6584C7.48202 21.592 7.45154 20.5058 7.45154 20.5058Z" fill="black"/>
<path d="M9.44922 19.4539C10.5298 19.4917 10.6065 18.4111 10.6065 18.4111C10.6065 18.4111 9.5933 18.1331 9.44922 19.4539Z" fill="black"/>
<path d="M8.42633 19.5267C9.36007 18.979 8.84471 18.0259 8.84471 18.0259C8.84471 18.0259 7.83892 18.3344 8.42633 19.5267Z" fill="black"/>
<path d="M22.1807 11.3567C22.1807 11.3567 21.9424 12.38 23.2678 12.4724C23.2623 11.3909 22.1807 11.3567 22.1807 11.3567Z" fill="black"/>
<path d="M20.8422 10.9216C20.8422 10.9216 20.3222 11.8351 21.5663 12.3005C21.8701 11.2624 20.8422 10.9216 20.8422 10.9216Z" fill="black"/>
<path d="M22.5408 14.0102C23.0405 13.0506 22.0975 12.5159 22.0975 12.5159C22.0975 12.5159 21.4103 13.312 22.5408 14.0102Z" fill="black"/>
<path d="M20.1532 11.292C20.1532 11.292 19.3441 11.9625 20.3425 12.839C20.9946 11.9754 20.1532 11.292 20.1532 11.292Z" fill="black"/>
<path d="M18.8284 12.5129C18.8284 12.5129 18.5042 13.5132 19.8175 13.7182C19.9007 12.6395 18.8284 12.5129 18.8284 12.5129Z" fill="black"/>
<path d="M24.6306 21.927C24.6306 21.927 23.8797 22.7074 24.6306 23.4851C25.5163 22.4932 24.6306 21.927 24.6306 21.927Z" fill="black"/>
<path d="M25.9857 23.2924C26.4614 22.0511 25.4316 21.835 25.4316 21.835C25.4316 21.835 25.0067 22.8315 25.9857 23.2924Z" fill="black"/>
<path d="M26.868 23.8243C27.9338 23.0319 27.182 22.2976 27.182 22.2976C27.182 22.2976 26.287 22.9109 26.868 23.8243Z" fill="black"/>
<path d="M27.7103 22.0952C27.7103 22.0952 27.3528 23.1176 28.3568 23.5111C28.7511 22.2384 27.7103 22.0952 27.7103 22.0952Z" fill="black"/>
<path d="M28.1506 25.0858C28.7463 23.8981 27.7442 23.5813 27.7442 23.5813C27.7442 23.5813 27.2215 24.5307 28.1506 25.0858Z" fill="black"/>
<path d="M23.9679 27.3182C22.8273 26.6366 22.4375 27.6128 22.4375 27.6128C22.4375 27.6128 23.3463 28.2057 23.9679 27.3182Z" fill="black"/>
<path d="M29.6169 22.8851C29.6169 22.8851 29.4645 23.9583 30.5303 24.1486C30.667 22.8306 29.6169 22.8851 29.6169 22.8851Z" fill="black"/>
<path d="M29.5106 22.7714C29.4257 21.4451 28.4023 21.6769 28.4023 21.6769C28.4023 21.6769 28.4291 22.7603 29.5106 22.7714Z" fill="black"/>
<path d="M30.1798 21.3711C30.1798 21.3711 29.6256 22.3002 30.5298 22.8895C31.1699 21.7248 30.1798 21.3711 30.1798 21.3711Z" fill="black"/>
<path d="M28.6977 21.3507C29.2981 20.1648 28.2969 19.8452 28.2969 19.8452C28.2969 19.8452 27.7714 20.7928 28.6977 21.3507Z" fill="black"/>
<path d="M29.5208 18.749C29.5208 18.749 28.7266 19.4879 29.434 20.3043C30.3724 19.3641 29.5208 18.749 29.5208 18.749Z" fill="black"/>
<path d="M25.223 23.5508C25.223 23.5508 24.3169 24.1465 24.8794 25.071C25.9609 24.2998 25.223 23.5508 25.223 23.5508Z" fill="black"/>
<path d="M21.4694 28.0975C22.5509 27.3254 21.812 26.5791 21.812 26.5791C21.812 26.5791 20.9069 27.173 21.4694 28.0975Z" fill="black"/>
<path d="M23.6028 28.7959C23.6028 28.7959 22.9295 27.9471 22.0586 28.5881C22.9221 29.5939 23.6028 28.7959 23.6028 28.7959Z" fill="black"/>
<path d="M22.433 30.1915C22.433 30.1915 22.7323 29.1497 21.7043 28.8135C21.3875 30.1037 22.433 30.1915 22.433 30.1915Z" fill="black"/>
<path d="M30.6143 19.667C30.6143 19.667 29.9789 20.5444 30.8314 21.2103C31.574 20.1048 30.6143 19.667 30.6143 19.667Z" fill="black"/>
<path d="M31.2467 22.0048C32.4622 21.4682 31.8932 20.5862 31.8932 20.5862C31.8932 20.5862 30.8838 20.9861 31.2467 22.0048Z" fill="black"/>
<path d="M31.3848 19.9294C31.9297 18.7167 30.9147 18.4434 30.9147 18.4434C30.9147 18.4434 30.4335 19.4131 31.3848 19.9294Z" fill="black"/>
<path d="M32.178 20.2066C33.2863 19.4751 32.5769 18.7002 32.5769 18.7002C32.5769 18.7002 31.6506 19.2571 32.178 20.2066Z" fill="black"/>
<path d="M33.1854 18.5117C33.1854 18.5117 32.8732 19.5498 33.8975 19.8971C34.2318 18.6124 33.1854 18.5117 33.1854 18.5117Z" fill="black"/>
<path d="M18.86 2.6333C18.0122 3.3066 18.6559 4.17846 18.6559 4.17846C18.6559 4.17846 19.6072 3.73237 18.86 2.6333Z" fill="black"/>
<path d="M18.9837 5.11317C18.9837 5.11317 20.031 5.03282 19.7226 3.74072C18.6909 4.06952 18.9837 5.11317 18.9837 5.11317Z" fill="black"/>
<path d="M21.2314 4.14259C21.2314 4.14259 22.0728 3.51362 21.1187 2.58911C20.4223 3.41849 21.2314 4.14259 21.2314 4.14259Z" fill="black"/>
<path d="M20.2743 6.23354C20.2743 6.23354 21.1259 5.61751 20.182 4.67822C19.4763 5.49745 20.2743 6.23354 20.2743 6.23354Z" fill="black"/>
<path d="M23.2148 1.50562C22.222 1.93508 22.6164 2.94457 22.6164 2.94457C22.6164 2.94457 23.6508 2.76077 23.2148 1.50562Z" fill="black"/>
<path d="M22.0665 2.36368C22.0665 2.36368 22.7066 1.53245 21.5373 0.897949C21.0949 1.88434 22.0665 2.36368 22.0665 2.36368Z" fill="black"/>
<path d="M24.1359 2.33984C23.0553 2.38972 23.0664 3.47309 23.0664 3.47309C23.0664 3.47309 24.0999 3.66796 24.1359 2.33984Z" fill="black"/>
<path d="M25.4061 2.04956C24.5204 2.67021 25.1106 3.58179 25.1106 3.58179C25.1106 3.58179 26.0868 3.19019 25.4061 2.04956Z" fill="black"/>
<path d="M26.6668 2.9115C25.5853 2.88841 25.5234 3.96993 25.5234 3.96993C25.5234 3.96993 26.5403 4.235 26.6668 2.9115Z" fill="black"/>
<path d="M23.6016 3.9773C22.5284 3.84707 22.3594 4.91751 22.3594 4.91751C22.3594 4.91751 23.3448 5.2814 23.6016 3.9773Z" fill="black"/>
<path d="M27.2891 8.38452C26.215 8.2543 26.0469 9.32473 26.0469 9.32473C26.0469 9.32473 27.0323 9.68955 27.2891 8.38452Z" fill="black"/>
<path d="M24.0832 5.45311C24.0832 5.45311 25.1102 5.23145 24.6281 3.99292C23.6519 4.45841 24.0832 5.45311 24.0832 5.45311Z" fill="black"/>
<path d="M23.5217 5.14453C22.5464 5.61371 22.9851 6.60565 22.9851 6.60565C22.9851 6.60565 24.0075 6.38214 23.5217 5.14453Z" fill="black"/>
<path d="M22.748 7.6883C22.748 7.6883 23.1978 6.73793 21.9223 6.36572C21.6969 7.42415 22.748 7.6883 22.748 7.6883Z" fill="black"/>
<path d="M22.7729 10.6363C22.7729 10.6363 22.4497 9.63607 21.2656 10.241C21.8272 11.1655 22.7729 10.6363 22.7729 10.6363Z" fill="black"/>
<path d="M22.2602 9.38378C22.2602 9.38378 22.891 8.54331 21.7162 7.92358C21.2831 8.91459 22.2602 9.38378 22.2602 9.38378Z" fill="black"/>
<path d="M24.2945 7.19883C24.2945 7.19883 25.2994 6.88943 24.711 5.698C23.7791 6.24661 24.2945 7.19883 24.2945 7.19883Z" fill="black"/>
<path d="M25.2245 4.96729C24.7313 5.92966 25.677 6.45796 25.677 6.45796C25.677 6.45796 26.3587 5.65443 25.2245 4.96729Z" fill="black"/>
<path d="M26.4329 5.59071C26.4329 5.59071 27.4553 5.34873 26.9501 4.12036C25.9822 4.60432 26.4329 5.59071 26.4329 5.59071Z" fill="black"/>
<path d="M28.4215 4.34204C27.4111 4.7281 27.7621 5.75421 27.7621 5.75421C27.7621 5.75421 28.8048 5.61382 28.4215 4.34204Z" fill="black"/>
<path d="M26.114 8.41864C26.114 8.41864 26.9194 7.74258 25.9154 6.87256C25.2689 7.73796 26.114 8.41864 26.114 8.41864Z" fill="black"/>
<path d="M25.9566 10.4801C25.9566 10.4801 26.3325 9.49829 25.0331 9.22583C24.8881 10.2981 25.9566 10.4801 25.9566 10.4801Z" fill="black"/>
<path d="M4.15642 20.7865C5.08924 20.2388 4.5748 19.2856 4.5748 19.2856C4.5748 19.2856 3.56994 19.5941 4.15642 20.7865Z" fill="black"/>
<path d="M1.58203 15.3391C1.91822 16.368 2.9591 16.0678 2.9591 16.0678C2.9591 16.0678 2.87228 15.0205 1.58203 15.3391Z" fill="black"/>
<path d="M1.18855 16.0605C1.18855 16.0605 1.61709 15.1009 0.333305 14.7573C0.135657 15.8204 1.18855 16.0605 1.18855 16.0605Z" fill="black"/>
<path d="M2.38449 14.231C2.33461 15.3116 3.41521 15.4039 3.41521 15.4039C3.41521 15.4039 3.70429 14.388 2.38449 14.231Z" fill="black"/>
<path d="M3.82043 13.6434C3.82043 13.6434 3.52304 12.6348 2.32422 13.2074C2.86082 14.1467 3.82043 13.6434 3.82043 13.6434Z" fill="black"/>
<path d="M4.24662 13.2684C4.24662 13.2684 4.60404 12.2802 3.29901 12.0317C3.17525 13.1068 4.24662 13.2684 4.24662 13.2684Z" fill="black"/>
<path d="M2.60157 12.2995C2.60157 12.2995 2.78629 11.266 1.46094 11.2383C1.5182 12.318 2.60157 12.2995 2.60157 12.2995Z" fill="black"/>
<path d="M3.79072 11.3992C3.79072 11.3992 4.33287 10.4987 3.1008 10.0027C2.77108 11.0325 3.79072 11.3992 3.79072 11.3992Z" fill="black"/>
<path d="M4.93702 12.8519C4.93702 12.8519 5.62048 12.0539 4.48723 11.3594C3.99219 12.3208 4.93702 12.8519 4.93702 12.8519Z" fill="black"/>
<path d="M5.20312 10.8507C5.29548 11.9276 6.38162 11.8666 6.38162 11.8666C6.38162 11.8666 6.53124 10.8285 5.20312 10.8507Z" fill="black"/>
<path d="M8.01405 13.9676C8.01405 13.9676 7.28072 13.2148 6.48828 14.2816C7.40171 14.8616 8.01405 13.9676 8.01405 13.9676Z" fill="black"/>
<path d="M9.32303 13.7413C9.32303 13.7413 9.17618 12.7005 7.90625 13.0948C8.2997 14.1006 9.32303 13.7413 9.32303 13.7413Z" fill="black"/>
<path d="M8.58265 15.5037C8.58265 15.5037 8.26586 14.5016 7.07812 15.0973C7.6332 16.0264 8.58265 15.5037 8.58265 15.5037Z" fill="black"/>
<path d="M7.98129 12.491C7.98129 12.491 8.0404 11.4418 6.71875 11.5784C6.90809 12.6433 7.98129 12.491 7.98129 12.491Z" fill="black"/>
<path d="M7.85547 11.2588C8.45395 12.1603 9.37754 11.5932 9.37754 11.5932C9.37754 11.5932 9.01365 10.6077 7.85547 11.2588Z" fill="black"/>
<path d="M7.53671 10.2752C7.53671 10.2752 7.0232 9.35716 5.98047 10.1828C6.71195 10.9781 7.53671 10.2752 7.53671 10.2752Z" fill="black"/>
<path d="M4.69923 15.3964C4.69923 15.3964 4.88394 14.3619 3.55859 14.3342C3.61401 15.4148 4.69923 15.3964 4.69923 15.3964Z" fill="black"/>
<path d="M5.11377 14.5053C5.11377 14.5053 6.14819 14.3205 5.70763 13.0645C4.71662 13.4967 5.11377 14.5053 5.11377 14.5053Z" fill="black"/>
<path d="M6.38768 16.0255C6.38768 16.0255 7.07114 15.2266 5.9379 14.533C5.43916 15.4963 6.38768 16.0255 6.38768 16.0255Z" fill="black"/>
<path d="M7.34256 13.3618C7.34256 13.3618 7.49218 12.321 6.16406 12.3459C6.26012 13.42 7.34256 13.3618 7.34256 13.3618Z" fill="black"/>
<path d="M4.82679 15.9174C4.82679 15.9174 3.92075 15.3845 3.44141 16.6212C4.47028 16.9407 4.82679 15.9174 4.82679 15.9174Z" fill="black"/>
<path d="M0 16.8436C0.657595 17.7026 1.54147 17.0745 1.54147 17.0745C1.54147 17.0745 1.11108 16.1158 0 16.8436Z" fill="black"/>
<path d="M34.564 16.3782C34.564 16.3782 33.9951 17.3018 34.8956 17.9002C35.5467 16.7439 34.564 16.3782 34.564 16.3782Z" fill="black"/>
<path d="M34.6953 15.522C34.6953 15.522 34.7831 16.6026 35.8637 16.5527C35.7066 15.2338 34.6953 15.522 34.6953 15.522Z" fill="black"/>
<path d="M35.0547 14.5839C35.0547 14.5839 35.4241 15.5998 36.4512 15.2756C35.9561 14.0426 35.0547 14.5839 35.0547 14.5839Z" fill="black"/>
<path d="M32.7826 16.7809C32.7826 16.7809 32.6496 17.8569 33.7182 18.0277C33.8309 16.7033 32.7826 16.7809 32.7826 16.7809Z" fill="black"/>
<path d="M33.5918 13.517C33.5918 13.517 34.6714 13.4173 34.6077 12.3367C33.2925 12.5094 33.5918 13.517 33.5918 13.517Z" fill="black"/>
<path d="M35.5574 11.7539C34.4861 12.5408 35.2351 13.2797 35.2351 13.2797C35.2351 13.2797 36.1319 12.6701 35.5574 11.7539Z" fill="black"/>
<path d="M32.927 13.0615C32.927 13.0615 33.9004 12.5859 33.4608 11.5977C32.2897 12.2257 32.927 13.0615 32.927 13.0615Z" fill="black"/>
<path d="M31.9114 11.5719C31.9114 11.5719 32.9883 11.6919 33.1472 10.6224C31.8218 10.5245 31.9114 11.5719 31.9114 11.5719Z" fill="black"/>
<path d="M29.2589 12.5084C29.2589 12.5084 30.3359 12.6285 30.4947 11.5589C29.1731 11.461 29.2589 12.5084 29.2589 12.5084Z" fill="black"/>
<path d="M31.3749 11.379C31.3749 11.379 32.3142 10.8377 31.808 9.88184C30.6822 10.5875 31.3749 11.379 31.3749 11.379Z" fill="black"/>
<path d="M30.452 9.68945C29.6494 10.7479 30.5767 11.242 30.5767 11.242C30.5767 11.242 31.2639 10.4043 30.452 9.68945Z" fill="black"/>
<path d="M31.4637 14.9172C30.6611 15.9757 31.5884 16.4707 31.5884 16.4707C31.5884 16.4707 32.2756 15.6321 31.4637 14.9172Z" fill="black"/>
<path d="M28.9805 13.662C28.9805 13.662 30.0241 13.9538 30.3529 12.9231C29.0608 12.6137 28.9805 13.662 28.9805 13.662Z" fill="black"/>
<path d="M28.8835 15.5091C28.8835 15.5091 29.9576 15.6504 30.1368 14.5855C28.8133 14.4608 28.8835 15.5091 28.8835 15.5091Z" fill="black"/>
<path d="M27.9408 14.1302C27.9408 14.1302 28.0064 13.0477 26.9304 12.9434C26.899 14.2715 27.9408 14.1302 27.9408 14.1302Z" fill="black"/>
<path d="M26.0613 13.84C26.0613 13.84 26.8639 13.1123 26.1657 12.2856C25.2162 13.2148 26.0613 13.84 26.0613 13.84Z" fill="black"/>
<path d="M32.405 12.1206C31.1776 12.6295 31.729 13.5245 31.729 13.5245C31.729 13.5245 32.744 13.1476 32.405 12.1206Z" fill="black"/>
<path d="M31.3903 9.5639C31.3903 9.5639 31.3903 8.48053 30.3125 8.43896C30.3578 9.76986 31.3903 9.5639 31.3903 9.5639Z" fill="black"/>
<path d="M27.5259 16.3367C27.5259 16.3367 28.2131 15.499 27.4012 14.7832C26.5986 15.8426 27.5259 16.3367 27.5259 16.3367Z" fill="black"/>
<path d="M28.6006 13.3443C28.6006 13.3443 29.2074 12.4456 28.3327 11.8083C27.6317 12.937 28.6006 13.3443 28.6006 13.3443Z" fill="black"/>
<path d="M33.1835 14.399C32.2821 13.4228 31.6328 14.2494 31.6328 14.2494C31.6328 14.2494 32.3375 15.0723 33.1835 14.399Z" fill="black"/>
<path d="M35.2887 13.722C33.9892 13.4449 33.9375 14.4987 33.9375 14.4987C33.9375 14.4987 34.9913 14.7619 35.2887 13.722Z" fill="black"/>
<path d="M9.52712 9.69229C9.52712 9.69229 9.75987 8.66711 8.43359 8.58398C8.44468 9.66458 9.52712 9.69229 9.52712 9.69229Z" fill="black"/>
<path d="M8.00781 10.1993C8.59706 11.1063 9.52619 10.5494 9.52619 10.5494C9.52619 10.5494 9.17246 9.55926 8.00781 10.1993Z" fill="black"/>
<path d="M18.8699 18.7122C18.8699 18.7122 19.0195 17.6713 17.6914 17.6962C17.7884 18.7704 18.8699 18.7122 18.8699 18.7122Z" fill="black"/>
<path d="M14.2497 23.0974C14.2497 23.0974 14.3994 22.0575 13.0703 22.0815C13.1673 23.1556 14.2497 23.0974 14.2497 23.0974Z" fill="black"/>
<path d="M20.5062 20.8106C20.5062 20.8106 19.7729 20.0579 18.9805 21.1246C19.8939 21.7037 20.5062 20.8106 20.5062 20.8106Z" fill="black"/>
<path d="M21.8113 20.5861C21.8113 20.5861 21.6654 19.5453 20.3945 19.935C20.788 20.9454 21.8113 20.5861 21.8113 20.5861Z" fill="black"/>
<path d="M19.207 18.4212C19.3917 19.4861 20.4696 19.3337 20.4696 19.3337C20.4696 19.3337 20.5287 18.2845 19.207 18.4212Z" fill="black"/>
<path d="M21.8658 18.436C21.8658 18.436 21.5019 17.4496 20.3438 18.1007C20.9422 19.0059 21.8658 18.436 21.8658 18.436Z" fill="black"/>
<path d="M18.4688 17.0238C19.1993 17.8209 20.0241 17.1162 20.0241 17.1162C20.0241 17.1162 19.5106 16.2 18.4688 17.0238Z" fill="black"/>
<path d="M6.57095 9.21588C6.57095 9.21588 6.05836 8.29783 5.01562 9.12352C5.74618 9.91596 6.57095 9.21588 6.57095 9.21588Z" fill="black"/>
<path d="M18.567 15.0825C17.576 15.5148 17.9731 16.5233 17.9731 16.5233C17.9731 16.5233 19.0076 16.3368 18.567 15.0825Z" fill="black"/>
<path d="M19.8347 20.2065C19.8347 20.2065 19.9844 19.1666 18.6562 19.1906C18.7532 20.262 19.8347 20.2065 19.8347 20.2065Z" fill="black"/>
<path d="M21.0893 14.7203C21.0893 14.7203 21.7359 13.889 20.5647 13.2527C20.1233 14.2382 21.0893 14.7203 21.0893 14.7203Z" fill="black"/>
<path d="M22.0184 17.3923C22.0184 17.3923 21.6646 16.4022 20.5 17.0413C21.0892 17.9492 22.0184 17.3923 22.0184 17.3923Z" fill="black"/>
<path d="M17.1887 15.5599C17.4039 14.4996 16.351 14.2456 16.351 14.2456C16.351 14.2456 15.9095 15.1997 17.1887 15.5599Z" fill="black"/>
<path d="M12.498 9.46143C12.2819 10.5208 13.3348 10.7757 13.3348 10.7757C13.3348 10.7757 13.7772 9.82255 12.498 9.46143Z" fill="black"/>
<path d="M11.0088 10.4312C11.0088 10.4312 12.0506 10.5679 12.0128 9.23975C10.9368 9.34965 11.0088 10.4312 11.0088 10.4312Z" fill="black"/>
<path d="M12.7461 13.1179C13.4545 13.9353 14.2986 13.2555 14.2986 13.2555C14.2986 13.2555 13.8119 12.3236 12.7461 13.1179Z" fill="black"/>
<path d="M17.8021 14.2955C17.8021 14.2955 17.9609 13.2565 16.6328 13.2657C16.7196 14.3417 17.8021 14.2955 17.8021 14.2955Z" fill="black"/>
<path d="M17.4329 16.9877C17.4329 16.9877 17.4181 15.9367 16.1094 16.1657C16.3735 17.2149 17.4329 16.9877 17.4329 16.9877Z" fill="black"/>
<path d="M26.8184 16.6914C25.7443 16.8189 25.8339 17.8976 25.8339 17.8976C25.8339 17.8976 26.8784 18.0186 26.8184 16.6914Z" fill="black"/>
<path d="M24.7885 15.3428C24.7885 15.3428 24.347 16.2968 25.6262 16.657C25.8423 15.5968 24.7885 15.3428 24.7885 15.3428Z" fill="black"/>
<path d="M26.0521 15.0196C26.0521 15.0196 26.2109 13.9806 24.8828 13.9898C24.9696 15.0686 26.0521 15.0196 26.0521 15.0196Z" fill="black"/>
<path d="M24.8328 16.9204C24.1623 17.7692 24.988 18.4711 24.988 18.4711C24.988 18.4711 25.8137 17.8191 24.8328 16.9204Z" fill="black"/>
<path d="M13.7406 10.5938C13.6159 11.6688 14.6872 11.8304 14.6872 11.8304C14.6872 11.8304 15.0456 10.8422 13.7406 10.5938Z" fill="black"/>
<path d="M19.6387 6.52809C19.6387 6.52809 19.5731 5.47981 18.2773 5.77074C18.5904 6.80609 19.6387 6.52809 19.6387 6.52809Z" fill="black"/>
<path d="M13.4375 9.04297C13.9085 10.0174 14.9005 9.57958 14.9005 9.57958C14.9005 9.57958 14.6742 8.55347 13.4375 9.04297Z" fill="black"/>
<path d="M7.10761 8.14624C6.98385 9.2213 8.05521 9.38292 8.05521 9.38292C8.05521 9.38292 8.41356 8.39469 7.10761 8.14624Z" fill="black"/>
<path d="M8.39265 7.80101C8.39265 7.80101 8.16452 6.77491 6.92969 7.26441C7.39702 8.23787 8.39265 7.80101 8.39265 7.80101Z" fill="black"/>
<path d="M12.3527 11.728C11.2786 11.8573 11.3691 12.937 11.3691 12.937C11.3691 12.937 12.4136 13.0552 12.3527 11.728Z" fill="black"/>
<path d="M12.1462 13.7534C11.3953 14.532 12.1462 15.3124 12.1462 15.3124C12.1462 15.3124 13.0319 14.7444 12.1462 13.7534Z" fill="black"/>
<path d="M13.8311 12.4815C13.8311 12.4815 14.2735 11.5284 12.9943 11.1672C12.7773 12.2266 13.8311 12.4815 13.8311 12.4815Z" fill="black"/>
<path d="M31.3917 7.06019C31.3917 7.06019 30.3629 6.84869 30.3047 8.17681C31.3918 8.14356 31.3917 7.06019 31.3917 7.06019Z" fill="black"/>
<path d="M33.0207 8.32179C33.0207 8.32179 31.9909 8.11121 31.9336 9.43841C33.0151 9.40608 33.0207 8.32179 33.0207 8.32179Z" fill="black"/>
<path d="M26.8906 12.2921C27.9721 12.2598 27.9777 11.1764 27.9777 11.1764C27.9777 11.1764 26.9488 10.9649 26.8906 12.2921Z" fill="black"/>
<path d="M30.2056 6.29086C30.2056 6.29086 29.6662 5.38851 28.6484 6.24376C29.403 7.01865 30.2056 6.29086 30.2056 6.29086Z" fill="black"/>
<path d="M28.3364 8.70312C28.3096 9.78465 29.3912 9.85022 29.3912 9.85022C29.3912 9.85022 29.6581 8.83335 28.3364 8.70312Z" fill="black"/>
<path d="M29.123 11.086C29.123 11.086 29.2422 10.0415 27.9141 10.1024C28.0434 11.1766 29.123 11.086 29.123 11.086Z" fill="black"/>
<path d="M30.1651 7.3687C30.1651 7.3687 29.7033 6.42386 28.6172 7.18398C29.3025 8.02352 30.1651 7.3687 30.1651 7.3687Z" fill="black"/>
<path d="M19.4002 9.71916C19.4002 9.71916 18.9135 8.78726 17.8477 9.58155C18.556 10.3989 19.4002 9.71916 19.4002 9.71916Z" fill="black"/>
<path d="M20.0943 8.26446C20.0943 8.26446 20.4517 7.2753 19.1467 7.02686C19.0229 8.10191 20.0943 8.26446 20.0943 8.26446Z" fill="black"/>
<path d="M19.3267 9.00714C19.3267 9.00714 19.7682 8.05399 18.49 7.69287C18.2748 8.75407 19.3267 9.00714 19.3267 9.00714Z" fill="black"/>
<path d="M15.9136 4.25981C15.9136 4.25981 16.7753 3.65763 15.8518 2.70264C15.1314 3.50985 15.9136 4.25981 15.9136 4.25981Z" fill="black"/>
<path d="M29.1441 5.62675C29.1441 5.62675 30.0058 5.02457 29.0822 4.06958C28.3618 4.87495 29.1441 5.62675 29.1441 5.62675Z" fill="black"/>
<path d="M9.42484 6.33974C9.42484 6.33974 10.1092 5.54176 8.97598 4.84814C8.48001 5.8096 9.42484 6.33974 9.42484 6.33974Z" fill="black"/>
<path d="M13.1977 2.698C12.4375 3.46735 13.181 4.25609 13.181 4.25609C13.181 4.25609 14.0695 3.69824 13.1977 2.698Z" fill="black"/>
<path d="M11.7031 7.68815C11.85 8.75952 12.9287 8.65053 12.9287 8.65053C12.9287 8.65053 13.0285 7.60411 11.7031 7.68815Z" fill="black"/>
<path d="M11.5501 6.62974C11.5501 6.62974 12.2502 5.84653 11.1317 5.12891C10.6163 6.07558 11.5501 6.62974 11.5501 6.62974Z" fill="black"/>
<path d="M10.5814 7.46094C10.2314 8.48427 11.2436 8.87218 11.2436 8.87218C11.2436 8.87218 11.8042 7.98461 10.5814 7.46094Z" fill="black"/>
<path d="M13.7379 5.87889C13.7379 5.87889 14.5765 5.24439 13.6188 4.3208C12.9279 5.15757 13.7379 5.87889 13.7379 5.87889Z" fill="black"/>
<path d="M14.5494 7.0491C14.5494 7.0491 15.5912 6.91425 15.2153 5.64062C14.203 6.02207 14.5494 7.0491 14.5494 7.0491Z" fill="black"/>
<path d="M15.1839 5.28219C15.1839 5.28219 15.5534 4.29765 14.2502 4.03442C14.1144 5.10763 15.1839 5.28219 15.1839 5.28219Z" fill="black"/>
<path d="M11.2694 3.98731C10.2987 3.50982 9.78516 4.46388 9.78516 4.46388C9.78516 4.46388 10.5961 5.13348 11.2694 3.98731Z" fill="black"/>
<path d="M8.94968 8.16845C8.94968 8.16845 10.0007 8.17491 9.79846 6.86157C8.74465 7.10448 8.94968 8.16845 8.94968 8.16845Z" fill="black"/>
<path d="M11.932 1.91943C11.1719 2.68971 11.9154 3.47753 11.9154 3.47753C11.9154 3.47753 12.8067 2.91876 11.932 1.91943Z" fill="black"/>
<path d="M17.0141 4.07153C16.1949 4.779 16.8728 5.62408 16.8728 5.62408C16.8728 5.62408 17.8056 5.1392 17.0141 4.07153Z" fill="black"/>
<path d="M15.6493 5.04761C15.3362 6.08387 16.3623 6.43299 16.3623 6.43299C16.3623 6.43299 16.8915 5.52141 15.6493 5.04761Z" fill="black"/>
<path d="M23.5542 22.9542C23.519 22.852 23.449 22.7654 23.3565 22.7095C23.1718 22.6245 22.9437 22.7584 22.8144 22.9182C22.4394 23.38 22.2686 24.2112 22.311 25.3195C22.8892 24.7146 23.0822 23.9166 23.4424 23.163C23.4748 23.0965 23.5136 23.0253 23.5542 22.9542Z" fill="black"/>
<path d="M12.6742 18.7445C12.8147 18.7916 12.9443 18.8663 13.0553 18.9644C13.1663 19.0624 13.2566 19.1817 13.3208 19.3152C13.2849 19.0777 13.2252 18.8444 13.1425 18.6188C12.9393 18.1072 12.4036 17.6361 11.5558 17.2178C10.5842 16.7393 9.61625 17.1476 8.76562 17.6842C9.41768 17.5918 10.0827 17.7978 10.744 17.9409C11.1134 18.0213 11.9446 18.073 12.1968 18.4027C12.0056 18.4886 11.7904 18.423 11.6241 18.5459C11.8698 18.7223 12.3658 18.6281 12.6742 18.7445Z" fill="black"/>
<path d="M19.6144 31.7099C19.4583 31.5963 19.2958 31.479 19.1351 31.3737C18.8774 31.2047 18.5033 30.9877 18.2263 31.0569C18.1642 31.0749 18.1066 31.1059 18.0575 31.148C18.0085 31.19 17.969 31.2421 17.9418 31.3008C17.7885 31.5778 17.9178 32.1228 18.3048 32.8238C18.7121 33.5626 19.7197 34.3939 20.6922 34.6303C20.5873 34.3504 20.5037 34.0629 20.4419 33.7704C19.8878 33.5091 19.0261 32.978 19.0741 32.555C19.0861 32.4534 19.1508 32.2862 19.4482 32.2862H19.4657C19.6781 32.2862 19.9977 32.3878 20.3265 32.5236C20.3265 32.4091 20.3265 32.2945 20.3191 32.1791C20.2303 32.1319 20.144 32.0801 20.0605 32.0239C19.909 31.9233 19.7594 31.8143 19.6144 31.7099Z" fill="black"/>
<path d="M13.3317 7.59579C13.9573 7.81525 14.4934 8.23419 14.8575 8.78814L14.8834 8.81308L14.9757 8.91006C15.0625 9.00241 15.153 9.09016 15.2417 9.18713C15.2823 9.23239 15.3248 9.27949 15.3673 9.32198C15.7054 9.68217 16.0545 10.0544 16.0868 10.5817C16.0974 10.9686 15.9967 11.3504 15.7968 11.6817C15.6545 11.9219 15.4662 12.1316 15.2426 12.2987C15.1719 12.3582 15.1047 12.4217 15.0413 12.489C14.9997 12.5314 14.9582 12.573 14.9157 12.6136C14.6201 13.1364 14.2627 13.6342 13.9745 14.1191C13.8629 14.306 13.7617 14.499 13.6716 14.6973C13.6877 14.9391 13.7238 15.1791 13.7797 15.4149C13.861 15.8114 14.0322 16.1839 14.2803 16.5038C14.6377 16.9425 14.8972 17.2953 14.9785 17.8504C15.1484 19.0113 15.7598 19.8112 16.7952 20.2296C17.1334 20.3542 17.4859 20.4358 17.8444 20.4725C17.7354 20.1298 17.7474 19.7798 17.7807 19.3688C17.5839 19.4667 17.2662 20.1788 17.172 19.535C17.1074 19.0945 17.3133 18.8802 17.0482 18.4267C16.8491 18.1077 16.6333 17.7994 16.4017 17.5031L16.169 17.2741C15.5225 16.6405 14.7836 15.9219 14.8289 14.9402C14.8436 14.6261 14.9739 13.9796 15.3599 13.7811C15.4158 13.7483 15.4791 13.7306 15.5438 13.7294C15.6085 13.7283 15.6724 13.7439 15.7294 13.7746C15.7715 13.7993 15.8095 13.8305 15.842 13.867C15.9333 13.575 16.052 13.2923 16.1967 13.0228C16.4045 12.6349 16.6216 12.1435 17.0963 12.0752C17.4749 12.0198 18.4383 12.6423 18.6719 12.1934C18.5528 12.1602 18.4142 12.1842 18.3025 12.1463C18.1482 12.0955 18.0781 11.9616 17.897 11.9422C18.055 11.3668 18.9453 11.3576 19.396 11.1636C20.0342 10.8865 20.5671 10.3001 20.8811 9.69326C21.4039 8.68378 21.2183 7.67891 21.4067 6.61494C21.5535 5.78371 22.2859 4.94324 22.2638 4.09262C21.6708 4.69387 21.0058 5.49093 20.7629 6.30923C20.4665 7.31225 20.5551 8.45842 19.9871 9.36538C19.5382 10.083 18.888 10.3056 18.115 10.5097C17.777 10.6021 17.5608 10.6289 17.5553 10.24C17.5658 9.93908 17.6123 9.64048 17.6938 9.35061C17.8194 8.80661 17.9959 8.27924 18.1464 7.74264C17.8241 7.7334 17.4556 8.34482 17.3669 8.6025C17.2348 8.98764 17.2791 9.4014 17.2126 9.79762C17.1637 10.0913 17.0039 10.543 16.7379 10.7101C16.582 10.2258 16.5083 9.71885 16.52 9.21022C16.5363 8.66087 16.7157 8.12881 17.0353 7.68168C17.3244 7.30024 17.644 6.85784 17.788 6.39974C18.0199 5.66087 18.0651 4.71142 17.9515 3.94946C17.62 4.26718 17.6985 5.00143 17.6532 5.4272C17.615 5.90476 17.3991 6.35064 17.0482 6.67682C16.7398 6.9539 16.4211 7.15616 16.1376 7.46187C15.831 7.79344 15.8116 8.06497 15.6619 8.44826C15.4643 8.44272 15.0847 7.82484 14.9009 7.67706C14.2368 7.14046 13.2541 6.89571 12.7443 6.19932C12.5083 5.84606 12.3093 5.4694 12.1505 5.07532C12.0036 4.74282 11.866 4.16373 11.5649 3.94946C11.5326 4.46297 11.6277 4.89706 11.8586 5.36348C12.1495 5.94903 12.8034 6.26028 13.0002 6.88463C13.008 6.90381 13.0092 6.92508 13.0035 6.94502C12.9978 6.96496 12.5822 6.87249 12.5654 6.88463C11.8709 6.79227 11.6757 7.17002 11.0163 6.84214C10.6995 6.68328 10.3984 6.26767 10.0234 6.28799C10.4815 7.54037 12.3195 7.24113 13.3317 7.59579Z" fill="black"/>
<path d="M19.3614 32.4783C19.2792 32.4958 19.2635 32.5356 19.2589 32.5762C19.2275 32.845 19.8952 33.2911 20.4023 33.5487C20.3627 33.2776 20.3395 33.0044 20.333 32.7304C20.0005 32.5827 19.669 32.47 19.4538 32.47C19.4228 32.4697 19.3918 32.4725 19.3614 32.4783Z" fill="black"/>
<path d="M27.3271 20.178C27.1147 20.2389 26.9023 20.286 26.7083 20.3285L26.5809 20.3562C26.3416 20.4098 26.096 20.4578 25.8364 20.5077C24.8851 20.6924 23.9015 20.8827 23.158 21.3703C22.4598 21.8257 22.2779 22.571 22.1014 23.3016C21.98 23.849 21.8988 24.4047 21.8585 24.964C21.8475 25.0869 21.8392 25.2078 21.8299 25.3334C21.8198 25.4766 21.8068 25.6235 21.793 25.7712C21.8918 25.6955 21.9906 25.6188 22.0867 25.5394C22.1033 25.5265 22.1181 25.5117 22.1338 25.4978C22.0636 24.2445 22.2428 23.3403 22.6704 22.8102C22.8486 22.5885 23.1534 22.4223 23.4333 22.5488C23.5327 22.5979 23.6143 22.6766 23.6669 22.7742C23.7417 22.6532 23.8202 22.5331 23.8904 22.4186C24.1167 22.0538 24.4289 21.8201 24.7946 21.5938C25.6767 21.048 26.2576 21.3823 27.1415 21.5541C26.9263 21.277 26.6427 21.193 26.3795 21.0055C26.6483 20.6582 26.9983 20.4292 27.3271 20.178Z" fill="black"/>
<path d="M21.8794 15.0528C21.2708 14.7536 20.7314 15.401 20.0701 15.1932C19.7579 15.0953 19.5446 14.9475 19.4079 14.6631C19.3294 14.5005 19.334 14.2281 19.1576 14.1717C19.0496 15.9644 20.9872 15.4767 21.9219 16.356C22.7328 17.1207 22.7735 18.5181 22.574 19.5562C22.4816 20.018 22.3283 20.4069 21.9127 20.671C21.7132 20.7985 21.4703 20.8271 21.2736 20.9536C21.014 21.1199 20.9337 21.4302 20.7102 21.6362C19.8124 22.4618 18.7466 21.856 18.1177 21.0053C18.0392 20.9007 17.972 20.788 17.9172 20.6692C17.5093 20.6309 17.108 20.5405 16.723 20.4004C15.623 19.9561 14.9728 19.1074 14.7927 17.8771C14.7189 17.3692 14.4732 17.0358 14.1342 16.6201C13.8683 16.2789 13.6843 15.881 13.5967 15.4573C13.5773 15.3751 13.5459 15.2301 13.521 15.0565C13.3832 15.4226 13.2998 15.8069 13.2734 16.1971C13.6452 16.6329 13.9587 17.115 14.2063 17.6315C14.3427 17.9372 14.4383 18.2595 14.4907 18.5902C14.5831 19.0326 14.6644 19.45 14.983 19.8388C15.3718 20.3145 15.8955 20.514 16.4497 20.7246C16.6104 20.7855 16.7766 20.8493 16.9392 20.9194C17.8156 21.299 18.7004 22.1284 19.1936 23.0326C19.7972 24.1201 20.1109 25.3447 20.1043 26.5884C20.1043 26.8378 20.0914 27.0742 20.0794 27.3033C20.0747 27.3818 20.071 27.4603 20.0674 27.5388C20.0877 27.4917 20.1108 27.4464 20.1339 27.3966C20.4239 26.8175 20.9512 26.3936 21.4564 26.0112L21.5885 25.9114C21.6116 25.711 21.6273 25.5069 21.6411 25.3083C21.6504 25.1864 21.6596 25.0636 21.6707 24.9389C21.6882 24.7366 21.7095 24.5205 21.7363 24.2989C21.2302 23.5471 21.1415 22.8128 21.4675 22.0536C21.6522 21.6315 21.9736 21.2639 22.2877 20.9074C22.7799 20.3533 23.2445 19.825 23.2112 19.1092C23.1762 18.6687 23.1014 18.2322 22.9877 17.8051C22.8492 17.2168 22.706 16.6044 22.7688 15.9856C22.8215 15.4555 23.0302 14.9549 23.4458 14.362C23.5837 14.1548 23.6792 13.9224 23.7268 13.6781C23.7743 13.4338 23.773 13.1825 23.7229 12.9387C23.6375 13.2334 23.4964 13.509 23.3073 13.7506C23.1226 13.9944 22.2775 15.159 22.1879 14.338C21.9469 14.4959 21.8887 14.7757 21.8794 15.0528Z" fill="black"/>
<path d="M15.3281 28.0431C15.4103 28.2038 15.4934 28.3663 15.571 28.5326C15.6195 28.6463 15.66 28.7632 15.692 28.8826C15.7274 29.0234 15.7779 29.1599 15.8426 29.2899C15.97 29.059 15.9774 28.5252 15.9229 28.0763C15.8721 27.6561 15.6745 27.2451 15.4611 26.9126C15.4435 27.2581 15.4052 27.6023 15.3466 27.9433C15.3417 27.9766 15.3355 28.0098 15.3281 28.0431Z" fill="black"/>
<path d="M16.49 29.7831C16.2812 31.7679 17.8689 33.7684 19.5378 34.8693C19.9874 35.1648 20.4692 35.408 20.974 35.5943C21.0248 35.6137 21.082 35.6331 21.143 35.6525C21.0109 35.3819 20.8862 35.1141 20.7736 34.8398C19.692 34.6375 18.5828 33.7084 18.1432 32.9132C17.8467 32.3766 17.5428 31.646 17.7793 31.2128C17.8184 31.1315 17.8745 31.0594 17.9438 31.0016C18.0131 30.9437 18.094 30.9015 18.181 30.8776C18.5246 30.7926 18.9255 31.0152 19.2367 31.2193C19.4011 31.3264 19.5646 31.4456 19.7225 31.5601C19.8666 31.6635 20.0144 31.7716 20.1631 31.8704C20.2139 31.9046 20.2637 31.9351 20.3136 31.9628C20.3074 31.6702 20.2824 31.3784 20.2388 31.0891C19.7576 30.7446 19.3725 30.2384 19.0575 29.7813C18.6881 29.2447 18.4655 28.5898 18.3344 27.657C18.2725 27.2202 18.3575 26.6752 18.447 26.098C18.6318 24.9371 18.8165 23.7373 17.8984 23.1601C17.4274 22.8627 16.8502 22.714 16.2914 22.5699L16.0143 22.4969C15.5719 22.3815 15.1528 22.1903 14.7758 21.9317L14.81 21.9973C14.8007 22.4951 14.7361 22.9966 14.7859 23.4916C14.7859 23.5157 14.7933 23.5387 14.7961 23.5618C14.7552 23.5533 14.7139 23.5468 14.6723 23.5424C14.1801 23.5027 13.7257 23.4806 13.2565 23.342C12.5379 23.1287 12.1482 22.8073 12.0383 22.0564C11.6984 22.1552 12.0069 22.7269 12.0928 22.9698C11.2043 22.9024 10.6621 21.2981 10.5467 20.6174C10.1015 20.6424 10.7166 21.7913 10.8136 22.0471C11.0371 22.6401 11.328 23.1268 11.8914 23.4907C12.3708 23.801 12.948 23.7964 13.4357 24.0301C13.9789 24.3111 14.4806 24.6661 14.9263 25.0848C15.0696 25.2189 15.199 25.3671 15.3124 25.5272C15.317 25.5466 15.3216 25.5669 15.3272 25.5863C15.8102 25.9789 16.2203 26.376 16.4696 27.1047C16.7125 27.8159 16.6128 28.7081 16.5241 29.4959C16.5112 29.5947 16.5001 29.6898 16.49 29.7831ZM16.9739 23.6579C17.0073 23.6166 17.0495 23.5834 17.0975 23.5607C17.1455 23.538 17.1979 23.5264 17.251 23.5267C17.3612 23.533 17.469 23.5621 17.5674 23.6121C17.6658 23.6622 17.7528 23.7322 17.8227 23.8177C18.1238 24.1631 18.1164 24.5898 18.0841 24.8807C18.0407 25.276 17.9418 25.4977 17.7728 25.578C17.73 25.599 17.6829 25.6097 17.6352 25.6094C17.5356 25.6039 17.4395 25.5703 17.3581 25.5124C17.0644 25.3277 16.8418 24.8198 16.7809 24.6692C16.6128 24.2573 16.6636 23.983 16.9739 23.6579Z" fill="black"/>
<path d="M17.4559 25.3573C17.5565 25.4211 17.6406 25.4395 17.6951 25.4118C17.7496 25.3841 17.8595 25.2548 17.9029 24.8577C17.9463 24.4605 17.8789 24.1576 17.6858 23.9341C17.5785 23.8082 17.4258 23.7299 17.261 23.7161C17.2342 23.7155 17.2076 23.7209 17.1833 23.7322C17.159 23.7434 17.1375 23.76 17.1206 23.7808L17.1151 23.7872C16.8537 24.0643 16.8149 24.2592 16.9544 24.6046C17.0661 24.8835 17.261 25.2317 17.4559 25.3573Z" fill="black"/>
<path d="M14.7013 30.003C14.4603 31.3006 15.3598 32.4708 15.2832 33.7583C15.2518 34.282 15.044 34.8804 14.7567 35.4207C14.8001 35.4558 14.8389 35.4937 14.8768 35.5306C14.9969 35.6479 15.0975 35.7486 15.3017 35.7477C15.5787 35.7477 15.8724 35.5334 16.0886 35.1815C16.4783 34.547 16.4275 33.7583 16.3268 33.0702C16.2234 32.3618 16.0895 31.8825 15.6803 31.3717C15.2047 30.7751 14.9959 30.4093 14.9313 29.6834C14.9197 29.5464 14.9154 29.4089 14.9184 29.2715C14.8251 29.5086 14.7524 29.7533 14.7013 30.003Z" fill="black"/>
<path d="M24.1598 38.4271H24.1478C23.9179 38.403 23.6786 38.3781 23.4431 38.3449C23.1214 38.2853 22.8101 38.1785 22.5195 38.0281C22.4161 37.981 22.309 37.9311 22.2018 37.8877C21.4408 37.5737 20.8331 37.4989 20.3445 37.6568C20.3061 37.6661 20.27 37.6831 20.2383 37.7067C20.3074 37.7814 20.3874 37.8453 20.4756 37.896C20.6363 38.0031 20.8091 38.102 20.9762 38.198C21.0584 38.2442 21.1397 38.2904 21.2201 38.3384C21.3004 38.3864 21.3623 38.4252 21.4325 38.4695C22.5823 38.5739 23.6823 38.9941 24.8673 38.9193C24.8045 38.5924 24.4739 38.4936 24.1598 38.4271Z" fill="black"/>
<path d="M18.8559 38.2673C18.5465 38.041 18.2269 37.8055 17.9083 37.595C17.4243 37.2754 17.0438 37.1562 16.5072 37.1562H16.5017C15.772 37.1562 15.2677 37.51 14.7339 37.8831C14.3248 38.1694 13.9027 38.4659 13.3651 38.5989C13.0059 38.6913 12.6457 38.6183 12.2975 38.5509C12.0387 38.4903 11.7736 38.4611 11.5078 38.4641C11.818 38.5378 12.118 38.6495 12.4009 38.7965C13.0798 39.1281 14.0477 39.166 14.8023 39.0302C15.6861 38.876 16.4038 38.4447 17.3329 38.6238C17.876 38.7282 18.4181 38.8963 18.9889 38.8178C19.1509 38.7938 19.3109 38.7574 19.4673 38.7088C19.2595 38.5647 19.0572 38.416 18.8559 38.2673Z" fill="black"/>
<path d="M27.4242 18.0583C26.9338 18.4924 26.3159 18.4185 25.7617 18.6762C25.8439 18.69 25.9252 18.7076 26.0019 18.7242C26.1007 18.7464 26.194 18.7667 26.2789 18.7787C26.6362 18.8316 27.0009 18.7647 27.3161 18.5885C27.7945 18.2984 27.9386 17.7572 27.8647 17.2234C27.8276 17.5471 27.6704 17.845 27.4242 18.0583Z" fill="black"/>
<path d="M33.0404 15.6098C32.5685 15.8536 32.3311 16.211 31.9386 16.5334C31.607 16.8031 31.051 16.8289 30.6373 16.8908C30.2503 16.9481 29.9261 17.0829 29.5834 17.1762C29.4911 16.7476 29.9353 16.5297 30.1958 16.2914C30.4639 16.0535 30.6565 15.7424 30.7499 15.3964C30.8792 14.9743 30.822 14.5366 30.9051 14.1117C30.9679 13.7866 31.0196 13.455 31.0898 13.1309C31.1674 12.7707 31.4528 12.4215 31.5091 12.0863C31.6246 11.3945 31.0889 12.343 30.9892 12.5222C30.7287 12.984 30.4978 13.3996 30.4082 13.9381C30.3232 14.4497 30.4258 15.0141 30.2087 15.5026C30.024 15.9183 29.6102 15.9358 29.2704 16.1815C29.0542 16.3376 28.6719 16.8446 28.4511 16.6026C28.2572 16.3902 28.4077 15.7714 28.4511 15.5276C28.4958 15.1777 28.5891 14.8358 28.7282 14.5116C28.7799 14.4017 29.2066 13.6869 28.7947 13.9575C28.5998 14.0859 28.4447 14.6594 28.3218 14.8718C28.127 15.2108 27.9524 15.5654 27.9071 15.958C27.8883 16.1773 27.8837 16.3975 27.8933 16.6174C28.2055 17.3692 28.151 18.3057 27.4186 18.75C27.067 18.9482 26.6596 19.0239 26.2604 18.9652C26.168 18.9522 26.0637 18.9301 25.9658 18.9088C25.8099 18.8682 25.6501 18.844 25.4892 18.8368C25.2703 18.9781 25.0182 19.149 24.7891 19.1554C24.3744 19.1684 24.2202 18.4904 24.1093 18.2032C23.9431 17.7719 23.6106 17.2852 23.5921 16.8178C23.569 16.2507 23.7547 15.7889 24.0789 15.3096C24.3633 14.8885 24.4123 14.5772 24.5139 14.0886C24.6986 13.1955 25.3506 12.5028 26.0332 11.9468C26.8644 11.268 27.5506 10.869 27.7095 9.73021C27.7591 9.26999 27.8396 8.81363 27.9505 8.36422C28.0429 8.03173 28.2138 7.73249 28.1759 7.37783C27.9644 7.4 27.8859 7.74727 27.7446 7.88304C27.4998 7.24207 27.7917 6.32956 27.4675 5.72461C27.1193 6.13376 27.2939 6.71747 27.3641 7.20882C27.4564 7.83039 27.5488 8.61636 27.3992 9.2287C27.2405 9.81255 26.8645 10.3135 26.3481 10.6289C25.9676 10.8718 25.4716 10.9216 25.1253 11.2006C24.96 11.3345 24.6894 11.9838 24.5111 11.9912C24.2894 12.0004 24.1999 11.4231 24.1777 11.2698C24.0567 10.4571 24.3384 9.93248 24.7152 9.24348C24.8815 8.93777 25.5705 7.83963 25.1401 7.57363C24.9729 7.76297 24.9553 8.09638 24.8344 8.33098C24.7051 8.58127 24.4963 8.81309 24.3384 9.04583C24.1805 9.27858 23.9606 9.50763 23.8766 9.7847C23.8129 10.011 23.8544 10.2908 23.739 10.4857C23.303 10.216 23.4139 9.19268 23.4905 8.77984C23.5958 8.2146 23.8166 7.51729 23.5312 6.97238C23.6115 7.6623 23.1387 8.48706 23.0518 9.18345C22.9776 9.77127 23.0222 10.368 23.183 10.9383C23.3271 11.4425 23.6965 11.8969 23.7639 12.416C24.0059 13.0385 24.0484 13.8429 23.5995 14.483C23.2024 15.0482 23.0038 15.522 22.953 16.018C22.8939 16.6109 23.0334 17.2039 23.1682 17.7784C23.2849 18.2163 23.3619 18.6639 23.3982 19.1157C23.4379 19.9063 22.9262 20.4854 22.4312 21.046C22.1264 21.3905 21.8115 21.747 21.6415 22.1423C21.3644 22.7777 21.4152 23.3965 21.7801 24.0274C21.817 23.7743 21.8632 23.5175 21.9232 23.2691C22.1079 22.5081 22.2991 21.7221 23.0574 21.2261C23.8341 20.7191 24.8362 20.5251 25.805 20.3376C26.0637 20.2877 26.3075 20.2397 26.5439 20.1871L26.6723 20.1594C27.0344 20.0888 27.3882 19.9808 27.728 19.837C27.8285 19.7379 27.9185 19.6286 27.9967 19.511C28.5102 18.7361 29.0256 18.3205 29.964 18.1681C30.3195 18.1109 30.7952 18.0517 31.1074 17.8827C31.5396 17.65 31.8536 17.1291 32.1741 16.7744C32.7283 16.163 33.5549 15.7806 34.1811 15.2256C33.7816 15.2871 33.3957 15.4171 33.0404 15.6098Z" fill="black"/>
<path d="M27.0583 38.4797C27.2011 38.4735 27.3436 38.46 27.485 38.439C27.3605 38.3658 27.2408 38.2846 27.1267 38.1961C26.9973 38.0894 26.874 37.9757 26.7572 37.8553C26.5466 37.6475 26.3287 37.4333 26.095 37.3372C25.744 37.195 25.3622 37.146 24.9867 37.195C24.6468 37.2421 24.3467 37.3797 24.0289 37.5293C23.9061 37.5866 23.7796 37.6457 23.6493 37.6993L23.5228 37.7537C23.3739 37.8253 23.2174 37.8801 23.0564 37.9172C22.9973 37.9292 22.9271 37.9357 22.8588 37.9431L22.7969 37.9495C23.0103 38.051 23.237 38.1219 23.4702 38.1601C23.7038 38.1924 23.9403 38.2174 24.1693 38.2414L24.2192 38.2469C24.4404 38.2644 24.6624 38.2691 24.8842 38.2608C25.0791 38.2608 25.2804 38.2543 25.4707 38.2663C25.6729 38.2837 25.8734 38.3177 26.0701 38.3679C26.2169 38.4012 26.3693 38.4354 26.518 38.4538C26.6971 38.4772 26.8778 38.4859 27.0583 38.4797Z" fill="black"/>
<path d="M8.12341 17.892C9.13936 17.1873 10.3613 16.4225 11.6386 17.0515C12.5317 17.4911 13.096 17.9954 13.3149 18.5505C13.4597 18.9559 13.544 19.3803 13.5652 19.8103C13.7739 20.2213 14.0122 20.6064 14.2533 21.0109C14.3493 21.1716 14.4417 21.3308 14.5303 21.4884C14.5414 21.5004 14.5507 21.5143 14.5627 21.5254C14.9192 21.8745 15.4659 22.1654 16.0617 22.3243L16.3387 22.3963C16.9104 22.5441 17.5025 22.6965 18.0012 23.0096C19.0171 23.6515 18.8139 24.9694 18.6329 26.1322C18.5461 26.6956 18.463 27.2267 18.5212 27.6368C18.6477 28.5391 18.862 29.169 19.2139 29.6816C19.4835 30.0723 19.805 30.4999 20.191 30.8213C20.1652 30.6984 20.1393 30.5784 20.1116 30.4602C20.1367 30.3563 20.1675 30.254 20.2039 30.1535C20.4071 29.6114 20.7101 29.2558 21.1599 28.9104C21.4517 28.6869 21.7814 28.5132 22.0502 28.2639C22.1121 28.2066 22.3374 28.0644 22.3541 27.9776C22.3799 27.8446 22.2543 27.8944 22.1638 27.9369C21.9857 28.0316 21.8136 28.1371 21.6484 28.2528C21.3714 28.4227 21.1146 28.5964 20.8579 28.7857C20.9243 28.4624 21.0712 27.9702 21.0029 27.7984C20.8421 28.0671 20.6685 28.5372 20.6002 28.6795C20.5337 28.8189 20.4775 28.9631 20.4321 29.1108C20.2474 29.2456 20.0626 29.3657 19.8899 29.4922C19.7938 29.0433 19.7901 28.5795 19.8788 28.129C19.8696 27.8519 19.8788 27.5749 19.8982 27.2978C19.9102 27.0715 19.9232 26.836 19.9232 26.5931C19.9296 25.3803 19.6236 24.1862 19.0347 23.1259C18.56 22.255 17.7103 21.4579 16.8698 21.0941C16.7109 21.0248 16.5465 20.962 16.3877 20.9019C15.8335 20.6914 15.2637 20.4743 14.8434 19.9608C14.4962 19.536 14.4029 19.076 14.3133 18.6318C14.2627 18.3166 14.1717 18.0093 14.0427 17.7174C13.8015 17.215 13.4963 16.746 13.1348 16.3219C12.6388 16.1242 12.1466 15.8998 11.633 15.8952C11.5162 15.8938 11.3993 15.8987 11.283 15.91C11.2645 15.7003 11.3079 15.4916 11.3948 15.1711C11.1435 15.3262 10.9385 15.6781 10.7141 16.0023H10.6661C10.4407 16.0245 9.94565 16.2304 9.75355 15.9783C9.58915 15.7631 9.74247 15.3382 9.83482 15.1194C9.95212 14.8423 10.1932 14.7259 10.389 14.5107C10.5625 14.3262 10.6792 14.0957 10.7252 13.8467C10.7542 13.6426 10.7582 13.4357 10.7372 13.2306C10.7326 13.1226 10.7307 13.0136 10.7298 12.9046C10.8363 12.5956 10.9727 12.2977 11.1371 12.0152C11.3635 11.6303 11.4825 11.1918 11.4816 10.7452C11.4289 11.0879 11.186 11.3918 10.9782 11.6605C10.8615 11.8191 10.7745 11.9974 10.7215 12.187C10.7139 11.8987 10.657 11.6138 10.5534 11.3447C10.2763 10.663 10.4111 9.94172 10.2061 9.26196C9.51896 10.0932 10.1969 11.2698 10.2911 12.1703C10.3419 12.6589 10.3336 13.1863 10.1387 13.6481C9.99276 13.4763 9.7517 13.274 9.69351 13.1595C9.60248 12.965 9.52502 12.7644 9.46169 12.5592C9.41459 12.4188 9.36934 12.1186 9.26774 12.0392C9.00914 12.2525 9.33886 12.924 9.46354 13.1475C9.66119 13.5031 9.79142 13.7802 9.83298 14.1431C9.62609 14.4017 9.38134 14.6317 9.1957 14.9097C8.9842 15.2256 8.90292 15.8333 8.64155 16.0753C8.42912 16.2692 6.59857 16.3376 6.33258 16.2877C5.98951 16.2238 5.6739 16.0573 5.42746 15.8102C5.09497 15.486 5.13099 15.1508 4.95643 14.7472C4.67935 15.7021 5.27784 16.6008 6.1571 16.9444C5.91419 17.3831 5.1079 17.4062 4.67935 17.5853C4.06517 17.8421 3.58028 18.2993 2.87189 18.0536C2.4101 17.8947 2.22538 17.4828 2.02681 17.0672C1.89658 16.7901 1.81531 16.2914 1.47266 16.2267C1.73403 16.744 1.83655 17.2427 2.01203 17.7895C2.35745 18.8664 3.75484 19.0622 4.73569 18.9042C5.04879 18.8543 5.30924 18.702 5.57801 18.5468C6.00924 18.304 6.46072 18.0992 6.92737 17.9345C6.58749 18.6992 6.1885 19.5046 5.33603 19.8177C5.65466 20.115 6.41662 19.3032 6.65953 19.1388C6.67338 20.2905 4.94904 20.8844 5.08943 22.0232C5.21781 21.6658 5.28615 21.3407 5.59555 21.082C5.88926 20.8364 6.22544 20.6498 6.50252 20.3755C7.23031 19.6634 7.20167 18.3916 8.12341 17.892Z" fill="black"/>
<path d="M17.8485 36.3371C17.8768 36.339 17.9051 36.3346 17.9315 36.3242C17.9578 36.3138 17.9815 36.2977 18.0009 36.2771C18.2106 36.0785 17.9714 35.65 17.8162 35.3665C17.7811 35.3037 17.7488 35.2464 17.7239 35.1993C17.6989 35.1522 17.6888 35.1162 17.6694 35.0635C17.6241 34.9425 17.5484 34.7403 17.4597 34.7172C17.4381 34.7157 17.4165 34.7187 17.3961 34.726C17.3758 34.7333 17.3572 34.7448 17.3415 34.7597C17.166 35.1032 17.0986 35.5909 17.3415 35.9123C17.5391 36.1848 17.7137 36.3251 17.8485 36.3371Z" fill="black"/>
<path d="M15.6376 13.9353C15.6069 13.919 15.5723 13.9112 15.5376 13.9128C15.5028 13.9144 15.4691 13.9254 15.44 13.9445C15.1537 14.0914 15.0244 14.6381 15.0096 14.9475C14.9754 15.6947 15.4354 16.2757 15.9655 16.816C15.5573 15.9755 15.536 14.991 15.7753 14.0821C15.7426 14.0223 15.6952 13.9718 15.6376 13.9353Z" fill="black"/>
<path d="M15.6397 11.5895C15.8219 11.2896 15.9139 10.9437 15.9048 10.5929C15.8771 10.1312 15.5501 9.78481 15.2352 9.44862L15.1816 9.39136C15.3157 9.71434 15.4088 10.0529 15.4587 10.399C15.551 11.0123 15.4088 11.5812 15.1641 12.1206C15.3558 11.9763 15.5174 11.7959 15.6397 11.5895Z" fill="black"/>
<g filter="url(#filter0_d_17593_2789)">
<path d="M9.96161 38.658C10.2386 38.5456 10.5288 38.4689 10.8252 38.4298C11.0402 38.3508 11.2647 38.3002 11.4929 38.2793C11.7764 38.2747 12.0594 38.3057 12.3352 38.3716C12.6788 38.4381 13.003 38.5009 13.3225 38.4215C13.8268 38.2968 14.236 38.0105 14.6313 37.7334C15.1642 37.364 15.7165 36.9743 16.5043 36.9733H16.5089C17.0797 36.9733 17.5018 37.1054 18.0125 37.4425C18.3358 37.6559 18.659 37.8923 18.9675 38.1204C19.2067 38.2968 19.4478 38.4732 19.6935 38.6423C19.869 38.5855 20.0479 38.5399 20.2291 38.5056C20.4961 38.4608 20.7667 38.4413 21.0373 38.4474L20.8821 38.355C20.7122 38.258 20.5367 38.1574 20.3704 38.0475C20.2042 37.9376 20.0306 37.8212 20.05 37.678C20.0666 37.5617 20.1922 37.5081 20.2845 37.4776C20.8165 37.3058 21.4658 37.3853 22.2693 37.7141C22.3543 37.7491 22.4374 37.7861 22.5196 37.824C22.622 37.7843 22.7304 37.7621 22.8401 37.7584C22.9038 37.7519 22.9703 37.7445 23.0248 37.7353C23.1723 37.7 23.3157 37.6492 23.4525 37.5838L23.5827 37.5275C23.7083 37.4758 23.8339 37.4176 23.9521 37.3612C24.2689 37.2144 24.5986 37.062 24.9634 37.0112C25.3703 36.9583 25.7839 37.0114 26.1641 37.1654C26.431 37.2753 26.6619 37.5026 26.8854 37.7196C26.9984 37.8351 27.1177 37.9443 27.2429 38.0465C27.4116 38.1784 27.5932 38.2929 27.785 38.3883C28.3392 38.2959 28.8453 38.1786 29.4539 38.3883C28.9774 37.9339 28.4768 38.0124 27.822 37.9265C27.0785 37.8249 26.8744 37.2901 26.3442 36.8182C25.4871 36.0553 24.7741 36.8182 23.7665 36.8182C22.7219 36.8182 22.032 37.449 21.4575 36.288C21.3892 36.1504 21.3217 36.0156 21.2552 35.8807C21.1269 35.841 21.0068 35.8022 20.908 35.7662C20.3886 35.5753 19.8928 35.3255 19.4302 35.0218C17.717 33.8895 16.0859 31.8243 16.3039 29.762C16.3131 29.6696 16.3242 29.5726 16.3353 29.4756C16.4212 28.7072 16.52 27.8363 16.2882 27.1667C16.1159 26.6643 15.8046 26.221 15.3905 25.8884C15.434 26.1175 15.4581 26.3498 15.4625 26.583C15.7396 26.9681 16.0379 27.4973 16.1044 28.0515C16.1284 28.2454 16.2291 29.2309 15.8975 29.5089L15.8319 29.5634L15.7719 29.5024C15.6426 29.3685 15.577 29.1468 15.5133 28.9326C15.4841 28.8216 15.4468 28.7129 15.4015 28.6075C15.3563 28.5096 15.3092 28.4126 15.2602 28.3156C15.2242 28.4421 15.1817 28.5659 15.1365 28.6851C15.0988 29.0078 15.0911 29.3334 15.1134 29.6576C15.1762 30.3669 15.3905 30.7012 15.8218 31.2462C16.2531 31.7911 16.3981 32.3111 16.5043 33.0324C16.6105 33.7537 16.6613 34.5831 16.2411 35.2675C16.121 35.4633 15.7885 35.914 15.2981 35.9223H15.2898C15.0192 35.9223 14.8723 35.7791 14.7421 35.6526C14.7144 35.6249 14.6876 35.599 14.6599 35.575L14.6525 35.5898C13.8361 35.5898 12.8561 35.1696 12.278 34.9433C11.032 34.463 10.1122 35.5843 9.4601 36.5476C9.1539 37.0231 8.77384 37.4468 8.33424 37.8027C8.62381 37.7837 8.90758 37.7127 9.17194 37.5931C9.42966 37.4652 9.66889 37.303 9.8831 37.1109C10.1232 36.7831 10.3514 36.4515 10.6645 36.1754C11.311 35.6073 12.1838 36.0137 12.7675 36.7166C12.6104 36.6366 12.4466 36.5705 12.278 36.5189C11.9335 36.434 11.7589 36.5189 11.4255 36.6002C10.8002 36.7443 10.2969 37.1165 9.77227 37.4314C9.30188 37.8084 8.7123 38.0049 8.10981 37.9856C8.04608 37.9856 7.98143 37.9856 7.91678 37.9791C7.20562 38.017 6.74861 37.9643 6.65625 38.658C7.43945 38.2285 7.69235 38.6552 8.49772 38.5684C9.25968 38.4852 9.87202 38.029 10.6691 38.0142C10.3809 38.1509 10.0789 38.368 9.96161 38.658ZM17.1831 34.6561L17.1915 34.6404L17.2062 34.6283C17.2444 34.5896 17.2915 34.561 17.3433 34.5448C17.3952 34.5287 17.4503 34.5257 17.5036 34.536C17.6883 34.5849 17.7696 34.8131 17.838 34.9978C17.8555 35.044 17.8721 35.0901 17.886 35.1169C17.9082 35.1622 17.9377 35.2157 17.9719 35.2758C18.1566 35.6083 18.4392 36.1126 18.1252 36.4099C18.0911 36.4447 18.0504 36.4724 18.0056 36.4915C17.9607 36.5105 17.9125 36.5205 17.8638 36.5208H17.8315C17.5757 36.4995 17.3438 36.2262 17.1905 36.023C16.8885 35.6304 16.9707 35.0523 17.1804 34.6561H17.1831Z" fill="black"/>
</g>
</g>
<defs>
<filter id="filter0_d_17593_2789" x="0.288879" y="25.8884" width="35.5316" height="25.5043" filterUnits="userSpaceOnUse" color-interpolation-filters="sRGB">
<feFlood flood-opacity="0" result="BackgroundImageFix"/>
<feColorMatrix in="SourceAlpha" type="matrix" values="0 0 0 0 0 0 0 0 0 0 0 0 0 0 0 0 0 0 127 0" result="hardAlpha"/>
<feOffset dy="6.36737"/>
<feGaussianBlur stdDeviation="3.18369"/>
<feComposite in2="hardAlpha" operator="out"/>
<feColorMatrix type="matrix" values="0 0 0 0 0 0 0 0 0 0 0 0 0 0 0 0 0 0 0.25 0"/>
<feBlend mode="normal" in2="BackgroundImageFix" result="effect1_dropShadow_17593_2789"/>
<feBlend mode="normal" in="SourceGraphic" in2="effect1_dropShadow_17593_2789" result="shape"/>
</filter>
<clipPath id="clip0_17593_2789">
<rect width="36.4485" height="38.2042" fill="white" transform="translate(0 0.897949)"/>
</clipPath>
</defs>
</svg>
