<svg width="330" height="229" viewBox="0 0 330 229" fill="none" xmlns="http://www.w3.org/2000/svg">
<path d="M288.898 86.6368H240.328V137.265H288.898V86.6368Z" fill="#E0E0E0"/>
<path d="M285.602 86.6368H237.039V137.265H285.602V86.6368Z" fill="#FAFAFA"/>
<path d="M285.623 137.279H237.027V86.6236H285.623V137.279ZM237.054 137.246H285.59V86.65H237.054V137.246Z" fill="#E0E0E0"/>
<path d="M279.074 93.4413H243.566V130.454H279.074V93.4413Z" fill="white"/>
<path d="M243.54 130.705C243.286 131.075 242.991 131.416 242.662 131.721C242.094 132.322 241.302 133.134 240.405 134.012C239.507 134.889 238.689 135.675 238.088 136.229C237.78 136.555 237.434 136.843 237.059 137.087C237.309 136.716 237.601 136.375 237.93 136.071C238.497 135.47 239.296 134.658 240.194 133.781C241.091 132.903 241.91 132.111 242.517 131.556C242.822 131.232 243.165 130.946 243.54 130.705Z" fill="#E0E0E0"/>
<path d="M279.074 130.613C279.447 130.865 279.791 131.16 280.097 131.49C280.691 132.058 281.503 132.85 282.381 133.748C283.259 134.645 284.044 135.464 284.605 136.064C284.93 136.371 285.216 136.717 285.456 137.094C285.085 136.844 284.744 136.551 284.44 136.223C283.846 135.655 283.034 134.856 282.15 133.959C281.265 133.061 280.48 132.243 279.926 131.636C279.604 131.328 279.318 130.985 279.074 130.613Z" fill="#E0E0E0"/>
<path d="M278.977 93.5602C279.229 93.1884 279.523 92.8473 279.854 92.5438C280.422 91.9432 281.221 91.1314 282.112 90.2536C283.003 89.3758 283.828 88.5904 284.435 88.036C284.738 87.7074 285.081 87.419 285.458 87.178C285.21 87.5512 284.918 87.8926 284.587 88.1944C284.019 88.7884 283.22 89.6068 282.323 90.4846C281.425 91.3624 280.607 92.1544 280 92.7088C279.696 93.035 279.352 93.3211 278.977 93.5602Z" fill="#E0E0E0"/>
<path d="M243.468 93.6328C243.098 93.3786 242.757 93.0842 242.452 92.755C241.851 92.1874 241.046 91.3888 240.162 90.4978C239.277 89.6068 238.498 88.7818 237.944 88.1812C237.618 87.873 237.33 87.5274 237.086 87.1516C237.457 87.4018 237.798 87.6942 238.102 88.0228C238.703 88.5904 239.515 89.389 240.393 90.2866C241.27 91.1842 242.062 92.0026 242.617 92.6098C242.941 92.9148 243.227 93.2584 243.468 93.6328Z" fill="#E0E0E0"/>
<path d="M278.974 130.454C278.974 130.454 278.974 130.395 278.974 130.276C278.974 130.157 278.974 129.979 278.974 129.761C278.974 129.299 278.974 128.633 278.974 127.781C278.974 126.032 278.974 123.478 278.934 120.237C278.934 113.756 278.894 104.523 278.868 93.4612L279 93.5998H243.598L243.756 93.4414C243.756 107.031 243.756 119.736 243.756 130.454L243.624 130.322L269.265 130.388L276.466 130.428H278.373H279.033C279.033 130.428 278.987 130.428 278.881 130.428H278.399H276.525L269.278 130.52L243.538 130.586H243.406V130.448C243.406 119.729 243.406 107.024 243.406 93.4348V93.2764H243.571H278.974H279.112V93.415C279.112 104.51 279.059 113.776 279.046 120.277C279.046 123.504 279.013 126.045 279.007 127.794C279.007 128.646 279.007 129.306 279.007 129.774C279.007 129.986 279.007 130.151 279.007 130.276C279.007 130.401 278.98 130.461 278.974 130.454Z" fill="#E0E0E0"/>
<path d="M267.242 106.027H255.395V117.874H267.242V106.027Z" fill="#EBEBEB"/>
<path d="M240.509 30.4378H195.398V77.4628H240.509V30.4378Z" fill="#E0E0E0"/>
<path d="M237.455 30.4378H192.344V77.4628H237.455V30.4378Z" fill="#FAFAFA"/>
<path d="M237.469 77.476H192.332V30.4246H237.469V77.476ZM192.358 77.476H237.443V30.451H192.358V77.476Z" fill="#E0E0E0"/>
<path d="M231.397 36.7604H198.41V71.1464H231.397V36.7604Z" fill="white"/>
<path d="M198.41 71.371C198.172 71.7144 197.898 72.0308 197.591 72.3148C197.063 72.8758 196.324 73.6348 195.499 74.44C194.674 75.2452 193.902 75.991 193.341 76.5058C193.057 76.8071 192.738 77.0731 192.391 77.2978C192.619 76.9513 192.89 76.6343 193.196 76.354C193.724 75.7996 194.47 75.034 195.301 74.2288C196.133 73.4236 196.898 72.6778 197.459 72.163C197.741 71.8592 198.06 71.593 198.41 71.371Z" fill="#E0E0E0"/>
<path d="M231.391 71.2852C231.736 71.5203 232.053 71.795 232.334 72.1036C232.895 72.625 233.654 73.3708 234.466 74.1958C235.278 75.0208 236.011 75.793 236.525 76.354C236.827 76.6377 237.093 76.9568 237.317 77.3044C236.976 77.0698 236.661 76.7975 236.38 76.4926C235.819 75.9712 235.06 75.2254 234.248 74.3938C233.437 73.5622 232.697 72.7966 232.183 72.2356C231.879 71.9542 231.613 71.6347 231.391 71.2852Z" fill="#E0E0E0"/>
<path d="M231.297 36.853C231.533 36.5061 231.807 36.1873 232.115 35.9026C232.643 35.3482 233.382 34.5826 234.207 33.7774C235.032 32.9722 235.805 32.233 236.366 31.7182C236.647 31.4144 236.967 31.1482 237.316 30.9262C237.085 31.2691 236.815 31.5836 236.511 31.8634C235.983 32.4178 235.237 33.1834 234.405 33.9952C233.574 34.807 232.808 35.5462 232.247 36.061C231.961 36.3599 231.642 36.6256 231.297 36.853Z" fill="#E0E0E0"/>
<path d="M198.316 36.9388C197.963 36.708 197.636 36.4403 197.34 36.1402C196.785 35.6122 196.02 34.873 195.214 34.048C194.409 33.223 193.67 32.4508 193.155 31.8898C192.854 31.6061 192.588 31.287 192.363 30.9394C192.708 31.1674 193.023 31.4379 193.3 31.7446C193.861 32.2726 194.62 33.0184 195.432 33.85C196.244 34.6816 196.983 35.4472 197.498 36.0082C197.807 36.2842 198.082 36.5967 198.316 36.9388Z" fill="#E0E0E0"/>
<path d="M231.299 71.1201C231.299 71.1201 231.299 71.0607 231.299 70.9551C231.299 70.8495 231.299 70.6779 231.299 70.4733C231.299 70.0443 231.299 69.4239 231.299 68.6187C231.299 66.9885 231.299 64.6191 231.266 61.6095C231.266 55.5903 231.226 47.0103 231.2 36.7407L231.325 36.8661H198.438L198.583 36.7209C198.583 49.3401 198.583 61.1409 198.583 71.1003L198.457 70.9749L222.27 71.0409H228.963H230.731H231.345C231.345 71.0409 231.299 71.0409 231.2 71.0409H230.758H229.015H222.349L198.457 71.1003H198.332V71.1201C198.332 61.1673 198.332 49.3401 198.332 36.7407V36.5955H198.484H231.372H231.504V36.7209C231.504 47.0235 231.451 55.6299 231.438 61.6755C231.438 64.6719 231.438 67.0281 231.405 68.6517C231.405 69.4437 231.405 70.0575 231.405 70.4865C231.405 70.6845 231.405 70.8363 231.405 70.9485C231.405 71.0607 231.306 71.1201 231.299 71.1201Z" fill="#E0E0E0"/>
<path d="M220.399 48.4491H209.391V59.4579H220.399V48.4491Z" fill="#EBEBEB"/>
<path d="M286.328 235.506C284.249 238.476 280.216 237.486 278.349 235.685C276.481 233.883 275.709 231.249 274.969 228.748C273.319 223.039 271.669 217.04 272.884 211.225C273.179 209.46 273.955 207.811 275.128 206.46C275.72 205.793 276.476 205.294 277.322 205.011C278.167 204.729 279.072 204.673 279.946 204.849C281.979 205.391 283.246 207.384 284.157 209.278C286.85 214.874 288.261 221 288.288 227.21C288.288 230.094 287.958 233.15 286.308 235.506" fill="#EBEBEB"/>
<path d="M292.03 239.763C289.773 237.123 289.344 233.163 290.347 229.863C291.35 226.563 293.614 223.659 296.228 221.336C299.299 218.6 302.875 216.491 306.755 215.126C308.256 214.513 309.874 214.238 311.493 214.32C312.299 214.369 313.081 214.613 313.771 215.031C314.461 215.45 315.038 216.03 315.453 216.723C316.562 218.835 315.5 221.395 314.351 223.488C312.323 227.182 310.011 230.713 307.434 234.048C305.362 236.721 302.986 239.328 299.825 240.562C296.663 241.796 293.39 241.625 291.713 239.44" fill="#EBEBEB"/>
<path d="M286.215 277.403C286.177 277.196 286.164 276.986 286.176 276.776C286.176 276.308 286.176 275.714 286.176 274.988C286.176 273.437 286.176 271.193 286.096 268.421C285.958 262.877 285.483 256.91 284.559 248.495C283.687 240.575 282.513 231.381 281.259 225.395C280.995 224.036 280.724 222.808 280.473 221.739C280.222 220.67 280.031 219.759 279.813 218.987C279.595 218.214 279.503 217.706 279.397 217.251C279.334 217.049 279.297 216.841 279.285 216.63C279.38 216.817 279.453 217.014 279.503 217.218C279.642 217.667 279.813 218.234 280.024 218.934C280.236 219.633 280.486 220.597 280.757 221.666C281.028 222.735 281.331 223.956 281.622 225.316C283.172 232.394 284.339 239.55 285.12 246.753C286.044 255.181 286.44 262.857 286.499 268.414C286.532 271.193 286.499 273.443 286.4 275.014C286.354 275.74 286.321 276.334 286.288 276.803C286.288 277.005 286.264 277.207 286.215 277.403Z" fill="#E0E0E0"/>
<path d="M286.178 262.599C286.128 261.978 286.128 261.353 286.178 260.732C286.251 259.53 286.416 257.795 286.752 255.669C287.169 253.184 287.726 250.725 288.422 248.304C289.225 245.321 290.256 242.404 291.504 239.579C293.642 234.372 296.708 229.598 300.553 225.488C301.22 224.782 301.932 224.121 302.685 223.508C303.015 223.23 303.299 222.953 303.596 222.735L304.421 222.168C304.92 221.795 305.445 221.458 305.991 221.158C306.084 221.283 303.767 222.643 300.843 225.778C297.12 229.922 294.134 234.672 292.013 239.823C290.791 242.631 289.757 245.517 288.917 248.462C288.211 250.864 287.625 253.301 287.162 255.762C286.779 257.861 286.554 259.577 286.422 260.765C286.389 261.382 286.307 261.995 286.178 262.599Z" fill="#E0E0E0"/>
<path d="M81.4313 53.7094L64.6805 51.6634C64.136 51.5877 63.6425 51.3026 63.3048 50.8688C62.9671 50.435 62.8119 49.8866 62.8721 49.3402L65.7101 26.194C65.7778 25.6384 66.0633 25.1323 66.5038 24.7871C66.9444 24.4418 67.504 24.2855 68.0597 24.3526L78.6659 25.6726L85.8401 35.1436L83.7809 51.9208C83.7038 52.4683 83.4138 52.9633 82.9738 53.2982C82.5339 53.6331 81.9796 53.7809 81.4313 53.7094Z" fill="#EBEBEB"/>
<path d="M78.665 25.6264L77.8796 32.1406C77.8216 32.6561 77.9682 33.1738 78.2878 33.5823C78.6075 33.9908 79.0747 34.2576 79.589 34.3252L85.8524 35.0974L78.665 25.6264Z" fill="#F5F5F5"/>
<path d="M77.8815 32.7279C77.8246 33.2215 77.9383 33.7198 78.2036 34.14C78.4689 34.5602 78.8699 34.877 79.3401 35.0379L79.5447 35.1039C80.3433 35.3547 85.6101 36.9717 85.6233 36.8463C85.6365 36.7209 85.8411 35.0973 85.8411 35.0973L79.5777 34.3251C79.5777 34.3251 78.0201 34.0809 77.8815 32.7279Z" fill="#E0E0E0"/>
<path d="M76.493 31.7049C75.1907 31.7006 73.8908 31.5924 72.6056 31.3815C71.3086 31.2734 70.0221 31.0637 68.7578 30.7545C70.0598 30.7665 71.3591 30.8746 72.6452 31.0779C73.9423 31.1853 75.2289 31.3949 76.493 31.7049Z" fill="#FAFAFA"/>
<path d="M81.04 36.0016C81.04 36.0874 78.169 35.8036 74.6578 35.3746C71.1466 34.9456 68.2954 34.5232 68.3086 34.4374C68.3218 34.3516 71.173 34.6354 74.6908 35.0974C78.2086 35.5594 81.0532 35.9158 81.04 36.0016Z" fill="#FAFAFA"/>
<path d="M81.8408 39.2159C81.8408 39.3017 78.7124 38.9915 74.8778 38.5163C71.0432 38.0411 67.9478 37.5989 67.961 37.5197C67.9742 37.4405 71.0828 37.7441 74.9174 38.1797C78.752 38.6153 81.8408 39.1367 81.8408 39.2159Z" fill="#FAFAFA"/>
<path d="M81.458 42.1197C81.458 42.2055 78.3296 41.8887 74.5016 41.4201C70.6736 40.9515 67.565 40.5027 67.5782 40.4169C67.5914 40.3311 70.7 40.6479 74.5346 41.1165C78.3692 41.5851 81.4712 42.0339 81.458 42.1197Z" fill="#FAFAFA"/>
<path d="M81.1025 45.0238C81.1025 45.103 77.9741 44.7928 74.1461 44.3242C70.3181 43.8556 67.2095 43.4002 67.2227 43.321C67.2359 43.2418 70.3445 43.552 74.1791 44.0206C78.0137 44.4892 81.1157 44.938 81.1025 45.0238Z" fill="#FAFAFA"/>
<path d="M80.7431 47.9212C80.7431 48.007 77.6213 47.6968 73.7867 47.2612C69.9521 46.8256 66.8501 46.3372 66.8633 46.258C66.8765 46.1788 69.9917 46.4824 73.8197 46.9576C77.6477 47.4328 80.7563 47.842 80.7431 47.9212Z" fill="#FAFAFA"/>
<path d="M150.887 129.655L154.926 128.428L172.469 127.913L176.429 128.989L175.914 138.638L166.958 144.347L158.272 144.175L152.814 139.199L151.606 134.269L150.887 129.655Z" fill="#FFBE9D"/>
<path d="M201.555 144.842C200.504 142.636 199.315 140.498 197.998 138.44C195.867 135.169 192.606 132.796 188.837 131.774L174.522 127.893C174.522 127.893 173.783 142.195 163.962 142.195C154.141 142.195 152.201 128.791 152.201 128.791L135.635 135.391C135.067 135.609 131.219 136.942 126.751 146.525C122.494 155.653 120.633 160.326 120.633 160.326L137.7 165.249L138.763 180.601L138.162 200.48H190.302L189.609 179.406L190.098 163.87L190.758 164.913L207.99 158.002C207.99 158.002 205.746 153.475 201.555 144.842Z" fill="#FFBE00"/>
<path d="M138.354 193.834C137.984 195.339 137.034 198.685 136.446 200.091C136.325 200.522 136.325 200.979 136.446 201.411C136.651 201.84 137.509 201.681 137.978 201.589C142.281 200.751 147.039 201.444 151.244 202.698C155.613 204.018 159.824 206.433 164.358 206.354C167.427 206.301 170.344 205.107 173.294 204.242C178.767 202.642 184.504 202.146 190.17 202.783C190.553 202.869 190.954 202.82 191.306 202.645C191.807 202.302 191.768 201.569 191.669 200.968C191.451 199.549 189.953 195.649 189.59 194.243" fill="#FFBE00"/>
<path d="M135.447 144.532C135.546 144.532 136.107 149.257 136.668 155.092C137.229 160.926 137.638 165.705 137.545 165.711C137.453 165.718 136.885 160.986 136.324 155.151C135.763 149.317 135.354 144.538 135.447 144.532Z" fill="#263238"/>
<path d="M190.962 146.644C191.054 146.644 190.909 151.059 190.632 156.491C190.355 161.923 190.051 166.325 189.972 166.318C189.893 166.312 190.025 161.903 190.302 156.471C190.579 151.039 190.87 146.637 190.962 146.644Z" fill="#263238"/>
<path d="M177.361 128.626C177.358 128.78 177.336 128.933 177.295 129.081C177.236 129.411 177.15 129.84 177.044 130.401C176.722 131.992 176.307 133.564 175.803 135.107C175.077 137.422 173.889 139.566 172.312 141.41C171.361 142.483 170.225 143.377 168.959 144.05C167.582 144.776 166.048 145.153 164.491 145.146C161.481 145.08 158.595 143.929 156.366 141.905C154.581 140.261 153.171 138.25 152.235 136.011C151.594 134.523 151.101 132.976 150.763 131.391C150.644 130.83 150.565 130.395 150.525 130.071C150.492 129.922 150.474 129.769 150.473 129.616C150.527 129.759 150.567 129.907 150.591 130.058L150.895 131.345C151.278 132.91 151.799 134.439 152.453 135.912C153.405 138.101 154.811 140.062 156.578 141.667C158.76 143.623 161.568 144.735 164.498 144.802C165.998 144.808 167.477 144.447 168.807 143.753C170.052 143.096 171.17 142.222 172.107 141.172C173.67 139.364 174.859 137.265 175.605 134.995C176.265 133.074 176.661 131.457 176.925 130.375L177.242 129.094C177.271 128.936 177.311 128.779 177.361 128.626Z" fill="#263238"/>
<path d="M156.735 138.909C156.794 138.988 156.444 139.324 155.963 139.668C155.481 140.011 155.039 140.215 154.986 140.136C154.933 140.057 155.276 139.72 155.765 139.384C156.253 139.047 156.682 138.836 156.735 138.909Z" fill="#263238"/>
<path d="M162.609 144.941C162.495 144.484 162.495 144.006 162.609 143.548C162.618 143.088 162.733 142.636 162.945 142.228C163.044 142.228 163.044 142.888 162.945 143.621C162.938 144.081 162.822 144.533 162.609 144.941Z" fill="#263238"/>
<path d="M171.296 142.486C171.23 142.552 170.682 142.142 170.075 141.562C169.468 140.981 169.032 140.466 169.091 140.393C169.151 140.321 169.705 140.737 170.312 141.317C170.92 141.898 171.362 142.4 171.296 142.486Z" fill="#263238"/>
<path d="M174.9 136.691C174.847 136.77 174.352 136.539 173.751 136.262C173.151 135.985 172.643 135.767 172.669 135.668C172.695 135.569 173.263 135.668 173.89 135.952C174.517 136.236 174.953 136.612 174.9 136.691Z" fill="#263238"/>
<path d="M153.12 132.903C153.153 132.988 152.803 133.2 152.341 133.371C151.879 133.543 151.477 133.615 151.444 133.523C151.411 133.431 151.76 133.226 152.222 133.054C152.684 132.883 153.12 132.817 153.12 132.903Z" fill="#263238"/>
<g opacity="0.3">
<path d="M190.832 149.271L192.561 164.206L190.733 164.939L190.086 163.896L190.832 149.271Z" fill="black"/>
</g>
<path d="M132 145.132C131.363 145.021 130.765 144.753 130.257 144.354C129.366 143.773 128.779 143.133 128.845 143.034C129.926 143.676 130.979 144.365 132 145.099V145.132Z" fill="white"/>
<path d="M145.96 147.284C145.005 147.361 144.043 147.325 143.096 147.178C142.135 147.145 141.183 146.997 140.258 146.736C141.216 146.659 142.179 146.695 143.129 146.842C144.087 146.87 145.039 147.019 145.96 147.284Z" fill="white"/>
<path d="M161.081 150.062C160.125 150.067 159.17 149.983 158.23 149.812C157.276 149.755 156.329 149.616 155.398 149.396C156.354 149.277 157.321 149.302 158.269 149.468C159.231 149.528 160.178 149.728 161.081 150.062Z" fill="white"/>
<path d="M180.287 148.102C179.214 148.453 178.108 148.694 176.987 148.822C175.887 149.061 174.766 149.189 173.641 149.204C175.811 148.614 178.035 148.245 180.28 148.102H180.287Z" fill="white"/>
<path d="M192.058 143.634C191.649 144.162 191.1 144.564 190.474 144.796C189.896 145.131 189.234 145.293 188.566 145.264C189.136 144.966 189.724 144.705 190.329 144.485C190.885 144.162 191.463 143.878 192.058 143.634Z" fill="white"/>
<path d="M198.891 141.892C198.267 142.388 197.551 142.758 196.785 142.981C196.057 143.313 195.269 143.495 194.469 143.515C195.18 143.168 195.919 142.883 196.68 142.664C197.39 142.334 198.13 142.076 198.891 141.892Z" fill="white"/>
<path d="M184.94 140.974C183.018 141.659 181.026 142.128 179 142.374C179.938 141.975 180.919 141.685 181.924 141.509C182.906 141.217 183.918 141.038 184.94 140.974Z" fill="white"/>
<path d="M194.495 136.711C193.759 137.267 192.956 137.73 192.106 138.09C191.304 138.549 190.448 138.908 189.559 139.159C191.096 138.142 192.755 137.319 194.495 136.711Z" fill="white"/>
<path d="M184.139 135.483C182.841 136.011 181.465 136.321 180.066 136.401C180.688 136.085 181.357 135.873 182.046 135.774C182.724 135.564 183.43 135.466 184.139 135.483Z" fill="white"/>
<path d="M190.51 133.503C190.55 133.596 190.134 133.846 189.586 134.071C189.038 134.295 188.57 134.401 188.53 134.315C188.49 134.229 188.913 133.972 189.461 133.754C190.008 133.536 190.477 133.417 190.51 133.503Z" fill="white"/>
<path d="M165.619 147.02C164.65 147.22 163.654 147.247 162.676 147.099C161.687 147.053 160.714 146.829 159.805 146.439C160.777 146.48 161.747 146.577 162.709 146.73C163.684 146.771 164.655 146.868 165.619 147.02Z" fill="white"/>
<path d="M175.277 144.334C175.277 144.426 174.749 144.657 174.043 144.849C173.336 145.04 172.723 145.119 172.723 145.027C172.723 144.934 173.251 144.71 173.957 144.512C174.663 144.314 175.25 144.241 175.277 144.334Z" fill="white"/>
<path d="M152.598 144.195C151.819 144.291 151.029 144.27 150.255 144.136C149.469 144.115 148.691 143.977 147.945 143.727C148.725 143.635 149.515 143.658 150.288 143.793C151.073 143.818 151.851 143.953 152.598 144.195Z" fill="white"/>
<path d="M142.236 141.7C141.377 141.7 140.523 141.584 139.695 141.357C138.846 141.25 138.016 141.028 137.227 140.697C138.085 140.698 138.94 140.813 139.768 141.04C140.616 141.151 141.446 141.373 142.236 141.7Z" fill="white"/>
<path d="M142.943 135.939C142.303 136.051 141.649 136.051 141.009 135.939C140.357 135.936 139.711 135.818 139.102 135.589C139.743 135.476 140.4 135.476 141.042 135.589C141.691 135.591 142.335 135.71 142.943 135.939Z" fill="white"/>
<path d="M149.918 138.394C149.36 138.615 148.745 138.655 148.163 138.506C147.564 138.468 146.994 138.237 146.539 137.846C147.106 137.923 147.668 138.033 148.222 138.176C148.792 138.208 149.359 138.281 149.918 138.394Z" fill="white"/>
<path d="M149.108 133.516C148.535 133.527 147.965 133.424 147.432 133.213C146.865 133.099 146.327 132.875 145.848 132.553C146.421 132.538 146.991 132.639 147.524 132.85C148.091 132.964 148.63 133.19 149.108 133.516Z" fill="white"/>
<path d="M181.908 131.18C181.908 131.272 181.512 131.477 180.971 131.642C180.43 131.807 179.961 131.86 179.935 131.767C179.908 131.675 180.324 131.47 180.872 131.312C181.42 131.154 181.882 131.107 181.908 131.18Z" fill="white"/>
<path d="M132.377 151.495C131.032 151.117 129.757 150.524 128.602 149.739C129.949 150.11 131.225 150.703 132.377 151.495Z" fill="white"/>
<path d="M126.72 157.276C126.054 157.323 125.384 157.258 124.74 157.085C124.072 157.014 123.421 156.834 122.812 156.55C124.152 156.561 125.479 156.807 126.733 157.276H126.72Z" fill="white"/>
<path d="M134.561 160.035C133.746 159.854 132.945 159.614 132.165 159.316C131.351 159.128 130.55 158.883 129.77 158.583C131.468 158.627 133.124 159.128 134.561 160.035Z" fill="white"/>
<path d="M142.558 153.62C141.164 153.849 139.742 153.849 138.348 153.62C139.742 153.391 141.164 153.391 142.558 153.62Z" fill="white"/>
<path d="M145.861 162.358C144.956 162.186 144.062 161.965 143.181 161.698C142.273 161.524 141.374 161.304 140.488 161.038C142.365 160.993 144.219 161.449 145.861 162.358Z" fill="white"/>
<path d="M161.351 158.59C160.898 158.655 160.438 158.655 159.985 158.59C158.878 158.516 157.777 158.381 156.685 158.187C155.601 157.997 154.528 157.751 153.471 157.448C153.021 157.352 152.588 157.192 152.184 156.973C152.184 156.874 154.223 157.408 156.744 157.851C159.265 158.293 161.358 158.491 161.351 158.59Z" fill="white"/>
<path d="M161.43 164.226C160.436 164.34 159.433 164.34 158.44 164.226C157.442 164.234 156.447 164.121 155.477 163.89C156.468 163.78 157.468 163.78 158.46 163.89C159.459 163.891 160.455 164.004 161.43 164.226Z" fill="white"/>
<path d="M171.156 154.537C169.232 154.814 167.283 154.863 165.348 154.683C167.271 154.405 169.221 154.357 171.156 154.537Z" fill="white"/>
<path d="M179.433 161.797C178.056 162.122 176.654 162.329 175.242 162.418C173.842 162.621 172.427 162.714 171.012 162.695C172.39 162.379 173.792 162.171 175.203 162.075C176.603 161.871 178.018 161.779 179.433 161.797Z" fill="white"/>
<path d="M186.118 153.666C184.858 154.144 183.56 154.515 182.237 154.775C180.942 155.15 179.617 155.413 178.277 155.561C179.537 155.079 180.835 154.706 182.158 154.445C183.454 154.075 184.779 153.814 186.118 153.666Z" fill="white"/>
<path d="M186.826 159.005C186.428 159.431 185.914 159.73 185.347 159.863C184.813 160.1 184.221 160.176 183.645 160.081C184.156 159.849 184.688 159.668 185.235 159.54C185.745 159.307 186.278 159.128 186.826 159.005Z" fill="white"/>
<path d="M196.561 148.267C195.921 148.629 195.229 148.888 194.508 149.033C193.821 149.292 193.097 149.439 192.363 149.469C193.004 149.11 193.697 148.852 194.416 148.703C195.105 148.452 195.828 148.305 196.561 148.267Z" fill="white"/>
<path d="M201.511 154.405C199.254 155.221 196.925 155.823 194.555 156.201C195.662 155.737 196.811 155.381 197.987 155.138C199.135 154.779 200.315 154.533 201.511 154.405Z" fill="white"/>
<path d="M203.241 149.29C202.494 149.783 201.687 150.178 200.839 150.465C200.034 150.857 199.182 151.146 198.305 151.323C199.858 150.44 201.517 149.757 203.241 149.29Z" fill="white"/>
<path d="M198.159 159.745C196.965 160.621 195.642 161.307 194.238 161.778C195.432 160.901 196.755 160.216 198.159 159.745Z" fill="white"/>
<path d="M148.064 173.288C147.142 173.384 146.211 173.369 145.292 173.242C144.365 173.225 143.443 173.094 142.547 172.852C143.469 172.756 144.4 172.771 145.319 172.898C146.247 172.915 147.169 173.046 148.064 173.288Z" fill="white"/>
<path d="M152.706 169.651C150.682 169.435 148.69 168.993 146.766 168.331C147.786 168.376 148.798 168.538 149.782 168.813C150.785 168.981 151.766 169.262 152.706 169.651Z" fill="white"/>
<path d="M169.554 169.618C167.916 169.847 166.255 169.847 164.617 169.618C166.255 169.389 167.916 169.389 169.554 169.618Z" fill="white"/>
<path d="M166.796 175.539C166.367 175.659 165.922 175.713 165.476 175.697C164.428 175.735 163.378 175.698 162.335 175.585C161.29 175.474 160.255 175.284 159.239 175.017C158.811 174.937 158.397 174.792 158.012 174.588C158.012 174.489 159.952 174.991 162.374 175.248C164.797 175.506 166.79 175.433 166.796 175.539Z" fill="white"/>
<path d="M185.235 171.354C183.98 171.672 182.688 171.819 181.393 171.79C180.103 171.873 178.806 171.785 177.539 171.526C177.539 171.427 179.268 171.493 181.387 171.447C183.505 171.4 185.221 171.255 185.235 171.354Z" fill="white"/>
<path d="M184.946 165.988C183.249 166.507 181.492 166.8 179.719 166.86C181.416 166.342 183.173 166.049 184.946 165.988Z" fill="white"/>
<path d="M146.031 197.787C145.038 197.805 144.045 197.772 143.055 197.688C142.062 197.724 141.069 197.708 140.078 197.642C141.05 197.369 142.062 197.268 143.068 197.345C144.074 197.316 145.077 197.465 146.031 197.787Z" fill="white"/>
<path d="M156.776 200.982C155.558 201.038 154.338 200.976 153.132 200.797C151.913 200.732 150.702 200.555 149.516 200.269C150.735 200.213 151.958 200.274 153.165 200.454C154.383 200.517 155.591 200.694 156.776 200.982Z" fill="white"/>
<path d="M167.229 203.45C166.068 203.845 164.857 204.067 163.632 204.11C162.414 204.265 161.18 204.243 159.969 204.044C159.969 203.945 161.606 203.932 163.605 203.773C165.605 203.615 167.209 203.351 167.229 203.45Z" fill="white"/>
<path d="M166.222 198.559C165.271 198.773 164.299 198.879 163.325 198.876C162.358 198.988 161.381 198.988 160.414 198.876C161.361 198.654 162.332 198.548 163.305 198.559C164.274 198.439 165.253 198.439 166.222 198.559Z" fill="white"/>
<path d="M157.503 195.636C156.192 195.828 154.867 195.91 153.543 195.88C152.209 195.959 150.871 195.926 149.543 195.781C150.865 195.587 152.2 195.505 153.536 195.537C154.859 195.459 156.185 195.492 157.503 195.636Z" fill="white"/>
<path d="M177.828 195.444C176.566 195.711 175.283 195.866 173.994 195.906C172.713 196.061 171.421 196.101 170.133 196.025C171.395 195.762 172.678 195.607 173.967 195.563C175.249 195.412 176.54 195.372 177.828 195.444Z" fill="white"/>
<path d="M178.557 199.398C178.557 199.503 176.847 199.635 174.801 200.137C172.755 200.638 171.165 201.298 171.125 201.206C172.23 200.525 173.448 200.048 174.722 199.8C175.967 199.443 177.265 199.307 178.557 199.398Z" fill="white"/>
<path d="M188.573 197.18C188.025 197.409 187.438 197.532 186.844 197.543C186.263 197.659 185.664 197.659 185.082 197.543C186.21 197.188 187.396 197.058 188.573 197.16V197.18Z" fill="white"/>
<path d="M176.594 131.424C176.555 131.51 176.02 131.318 175.36 131.094C174.7 130.87 174.159 130.711 174.172 130.612C174.618 130.52 175.081 130.576 175.492 130.771C176.159 131.002 176.641 131.345 176.594 131.424Z" fill="#263238"/>
<path d="M149.224 181.749C148.017 181.796 146.808 181.728 145.614 181.545C144.409 181.476 143.214 181.295 142.043 181.003C143.248 180.952 144.455 181.021 145.647 181.208C146.853 181.277 148.051 181.458 149.224 181.749Z" fill="white"/>
<path d="M160.248 180.225C159.339 180.343 158.419 180.343 157.509 180.225C156.595 180.22 155.684 180.105 154.797 179.881C155.706 179.762 156.627 179.762 157.536 179.881C158.451 179.886 159.361 180.001 160.248 180.225Z" fill="white"/>
<path d="M177.706 178.997C177.706 179.096 176.142 179.083 174.235 179.254C172.327 179.426 170.789 179.697 170.77 179.598C171.872 179.199 173.03 178.976 174.202 178.938C175.365 178.77 176.549 178.79 177.706 178.997Z" fill="white"/>
<path d="M185.625 185.194C184.019 185.344 182.404 185.379 180.793 185.3C179.181 185.331 177.569 185.25 175.969 185.056C177.574 184.902 179.189 184.867 180.8 184.95C182.412 184.919 184.024 185 185.625 185.194Z" fill="white"/>
<path d="M186.247 177.255C185.154 177.861 183.889 178.079 182.656 177.875C183.238 177.695 183.838 177.58 184.445 177.532C185.034 177.375 185.638 177.282 186.247 177.255Z" fill="white"/>
<path d="M167.044 185.016C166.149 185.363 165.188 185.503 164.232 185.425C163.271 185.46 162.315 185.28 161.434 184.897C161.434 184.798 162.694 185.056 164.239 185.082C165.783 185.108 167.024 184.917 167.044 185.016Z" fill="white"/>
<path d="M156.902 186.171C155.094 186.4 153.265 186.4 151.457 186.171C153.265 185.942 155.094 185.942 156.902 186.171Z" fill="white"/>
<path d="M149.595 190.012C148.154 190.195 146.694 190.153 145.266 189.887C145.979 189.734 146.712 189.696 147.437 189.775C148.165 189.736 148.894 189.816 149.595 190.012Z" fill="white"/>
<path d="M165.198 191.392C164.046 191.526 162.883 191.544 161.727 191.445C160.565 191.46 159.405 191.362 158.262 191.154C159.417 191.024 160.582 191.006 161.74 191.101C162.899 191.086 164.058 191.183 165.198 191.392Z" fill="white"/>
<path d="M178.811 189.399C177.801 189.434 176.79 189.41 175.782 189.326C174.769 189.353 173.755 189.323 172.746 189.234C173.739 188.98 174.768 188.895 175.789 188.983C176.812 188.954 177.834 189.094 178.811 189.399Z" fill="white"/>
<path d="M188.593 192.237C187.568 192.364 186.537 192.43 185.504 192.435C184.475 192.554 183.439 192.612 182.402 192.606C184.416 192.044 186.527 191.918 188.593 192.237Z" fill="white"/>
<path d="M141.901 186.422C141.901 186.514 141.406 186.673 140.752 186.772C140.099 186.871 139.564 186.884 139.551 186.772C139.538 186.659 140.053 186.521 140.699 186.415C141.346 186.31 141.901 186.323 141.901 186.422Z" fill="white"/>
<path d="M143.036 166.483C143.036 166.582 142.416 166.714 141.63 166.78C141.154 166.878 140.661 166.863 140.191 166.734C141.106 166.423 142.081 166.337 143.036 166.483Z" fill="white"/>
<path d="M152.2 151.977C151.725 152.088 151.23 152.088 150.755 151.977C149.969 151.871 149.342 151.713 149.356 151.614C149.831 151.502 150.326 151.502 150.801 151.614C151.586 151.719 152.213 151.878 152.2 151.977Z" fill="white"/>
<path d="M186.621 150.538C185.584 150.887 184.514 151.128 183.427 151.257C182.361 151.498 181.273 151.627 180.18 151.64C181.217 151.29 182.287 151.047 183.374 150.914C184.44 150.673 185.529 150.547 186.621 150.538Z" fill="white"/>
<g opacity="0.3">
<path d="M138 194.137C138.964 195.741 140.977 196.401 142.851 196.507C144.725 196.612 146.606 196.289 148.468 196.507C151.385 196.863 153.985 198.526 156.843 199.246C163.344 200.869 170.043 197.404 176.722 197.378C178.999 197.378 181.263 197.761 183.54 197.853C185.817 197.945 188.193 197.714 190.14 196.573L189.975 194.131L138 194.137Z" fill="black"/>
</g>
<path d="M184.51 228.576H145.887V237.862H184.51V228.576Z" fill="#455A64"/>
<path d="M137.779 200.295C137.779 200.295 116.818 220.999 121.2 235.816C124.692 247.525 155.038 296.629 155.038 296.629L173.261 284.709L149.547 240.542C149.302 238.381 148.86 236.247 148.227 234.166L149.547 232.404C149.547 232.404 157.408 228.682 164.008 229.104L164.595 200.5L137.779 200.295Z" fill="#263238"/>
<path d="M164.012 229.117C164.012 229.117 176.288 232.16 178.862 232.16C180.485 232.16 179.594 237.018 180.472 238.998V239.427L163.246 285.066L181.02 295.553C181.02 295.553 194.451 261.741 197.315 256.026C200.18 250.31 204.78 237.011 206.555 233.058C208.331 229.104 205.895 222.267 202.82 216.327C199.744 210.387 190.062 200.487 190.062 200.487H164.599L164.012 229.117Z" fill="#263238"/>
<path d="M199.539 221.448C198.461 221.095 197.358 220.824 196.239 220.636C193.553 220.229 190.806 220.634 188.352 221.801C185.899 222.968 183.85 224.843 182.471 227.184C181.921 228.162 181.442 229.179 181.039 230.226C181.074 229.923 181.148 229.626 181.257 229.342C181.512 228.547 181.85 227.781 182.267 227.058C183.619 224.628 185.696 222.681 188.207 221.487C190.719 220.294 193.54 219.913 196.278 220.399C197.1 220.534 197.905 220.756 198.681 221.059C198.981 221.155 199.269 221.286 199.539 221.448Z" fill="#455A64"/>
<path d="M149.597 232.384C149.537 232.424 148.937 231.48 147.742 230.206C147.027 229.459 146.245 228.779 145.406 228.174C143.356 226.684 141.007 225.655 138.522 225.157C137.509 224.948 136.48 224.825 135.446 224.788C133.684 224.728 132.589 224.893 132.582 224.827C132.827 224.743 133.082 224.692 133.341 224.676C133.64 224.626 133.942 224.595 134.245 224.583C134.602 224.583 135.004 224.524 135.453 224.544C136.503 224.547 137.55 224.646 138.581 224.841C139.845 225.092 141.08 225.475 142.264 225.982C143.43 226.508 144.536 227.157 145.564 227.916C146.405 228.546 147.183 229.255 147.887 230.035C148.198 230.358 148.429 230.695 148.653 230.972C148.845 231.206 149.022 231.453 149.181 231.711C149.345 231.919 149.484 232.145 149.597 232.384Z" fill="#455A64"/>
<path d="M149.596 232.384C149.448 231.879 149.327 231.365 149.233 230.847C148.913 229.624 148.471 228.437 147.913 227.302C147.081 225.718 146.135 224.196 145.082 222.748C145.499 223.078 145.868 223.464 146.178 223.897C146.979 224.901 147.666 225.993 148.224 227.151C148.789 228.308 149.199 229.536 149.445 230.8C149.584 231.316 149.635 231.852 149.596 232.384Z" fill="#455A64"/>
<path d="M155.04 296.629C155.04 296.629 155.04 296.629 155.12 296.563L155.357 296.391L156.314 295.731L159.964 293.296L173.025 284.683L172.979 284.874L162.921 265.846C157.68 255.867 152.915 246.779 149.364 240.027V239.994C148.924 237.843 148.517 235.926 148.143 234.246C147.476 232.375 146.227 230.767 144.579 229.659C144.139 229.37 143.678 229.115 143.2 228.893L142.83 228.735C142.751 228.695 142.705 228.675 142.712 228.669C143.392 228.875 144.039 229.18 144.632 229.573C146.337 230.666 147.636 232.289 148.328 234.193L149.595 239.928V239.895L163.231 265.668L173.25 284.722L173.309 284.841L173.197 284.914L160.063 293.428L156.367 295.797L155.39 296.411L155.139 296.563L155.04 296.629Z" fill="#455A64"/>
<path d="M163.633 221.778C163.633 221.844 162.683 221.778 161.158 221.864C159.172 221.986 157.204 222.311 155.284 222.834C153.361 223.34 151.506 224.078 149.76 225.032C148.44 225.778 147.708 226.398 147.668 226.352C147.809 226.179 147.971 226.024 148.15 225.89C148.345 225.713 148.552 225.55 148.77 225.402C149.049 225.194 149.34 225.002 149.641 224.827C151.372 223.794 153.241 223.014 155.192 222.511C157.129 221.979 159.124 221.682 161.132 221.626C161.742 221.607 162.353 221.627 162.96 221.686C163.188 221.686 163.414 221.717 163.633 221.778Z" fill="#455A64"/>
<path d="M163.391 218.115C163.246 217.927 163.131 217.718 163.048 217.495L162.223 215.759C161.358 213.843 160.27 212.035 158.982 210.373C157.673 208.733 155.96 207.459 154.012 206.677C153.19 206.397 152.344 206.191 151.484 206.064C151.721 206.028 151.961 206.028 152.197 206.064C152.845 206.116 153.483 206.249 154.098 206.46C156.123 207.198 157.905 208.482 159.246 210.169C160.56 211.848 161.637 213.7 162.447 215.673C162.77 216.419 163.015 217.033 163.173 217.455C163.269 217.667 163.342 217.888 163.391 218.115Z" fill="#455A64"/>
<path d="M178.862 207.898C178.862 207.971 177.898 208.017 176.4 208.42C175.528 208.662 174.678 208.978 173.859 209.364C171.853 210.318 170.072 211.685 168.632 213.376C168.048 214.064 167.524 214.802 167.068 215.581C166.289 216.901 165.992 217.845 165.926 217.825C165.96 217.598 166.022 217.376 166.111 217.165C166.185 216.909 166.28 216.66 166.394 216.419C166.526 216.135 166.658 215.805 166.856 215.462C167.293 214.65 167.808 213.883 168.394 213.172C169.831 211.413 171.656 210.012 173.727 209.08C174.575 208.694 175.459 208.396 176.367 208.189C176.711 208.104 177.059 208.038 177.41 207.991C177.671 207.941 177.936 207.912 178.202 207.905C178.421 207.878 178.642 207.875 178.862 207.898Z" fill="#455A64"/>
<path d="M181.772 227.448C181.72 227.494 181.073 226.788 179.792 225.936C178.083 224.866 176.244 224.017 174.321 223.408C172.409 222.76 170.433 222.318 168.427 222.088L167.391 222.016H166.586C166.367 222.042 166.145 222.042 165.926 222.016C166.137 221.932 166.359 221.878 166.586 221.858C166.804 221.858 167.074 221.818 167.384 221.798H168.44C170.479 221.965 172.49 222.381 174.427 223.039C176.376 223.651 178.228 224.54 179.924 225.679C180.218 225.88 180.498 226.101 180.763 226.339C180.971 226.503 181.165 226.684 181.343 226.88C181.509 227.051 181.653 227.242 181.772 227.448Z" fill="#455A64"/>
<path d="M164.153 217.825C164.303 219.711 164.336 221.604 164.252 223.494C164.284 225.385 164.2 227.276 164.001 229.157C163.856 227.271 163.826 225.377 163.909 223.488C163.877 221.597 163.959 219.706 164.153 217.825Z" fill="#455A64"/>
<path d="M182.582 109.869C181.764 110.324 180.668 109.73 180.298 108.872C180.002 107.976 180.03 107.004 180.378 106.126C180.731 105.26 180.977 104.353 181.11 103.427C181.146 102.574 180.906 101.731 180.424 101.026C179.942 100.321 179.245 99.79 178.437 99.5132C178.815 99.183 179.122 98.78 179.34 98.3285C179.558 97.8769 179.683 97.3859 179.707 96.885C179.731 96.3841 179.654 95.8834 179.48 95.413C179.306 94.9426 179.039 94.5122 178.695 94.1474C177.952 93.5613 177.154 93.0485 176.312 92.6162C175.859 92.3157 175.436 91.9708 175.051 91.5866C175.76 91.7654 176.498 91.7902 177.216 91.6592C177.794 91.5318 178.329 91.2605 178.774 90.8705C179.218 90.4804 179.556 89.9843 179.757 89.4284C179.945 88.8685 179.973 88.2673 179.837 87.6925C179.702 87.1177 179.409 86.592 178.992 86.1746C178.558 85.7649 178.008 85.4989 177.418 85.4127C176.827 85.3265 176.225 85.4243 175.692 85.6928C174.669 86.234 174.101 87.3494 173.606 88.3988C173.448 88.7222 173.296 89.0588 173.144 89.369C171.699 87.455 170.339 85.4816 168.108 84.8084C166.089 84.1946 163.917 84.8744 161.812 84.7226C160.281 84.6104 158.809 84.0626 157.278 83.891C155.746 83.7194 153.978 84.0494 153.113 85.2968C152.578 86.0228 152.413 86.9732 151.879 87.6992C150.77 89.1974 148.387 89.402 147.477 90.9992C146.737 92.3192 147.305 93.989 146.988 95.474C146.645 97.0844 145.318 98.2592 144.229 99.4934C143.14 100.728 142.197 102.43 142.804 103.962C143.338 105.282 144.909 106.034 145.444 107.387C145.813 108.377 145.543 109.479 145.523 110.535C145.503 111.591 145.932 112.845 146.962 113.083L158.677 116.178C162.716 117.822 166.881 119.478 171.217 119.478C175.553 119.478 180.219 117.386 181.942 113.38C181.306 113.352 180.704 113.083 180.259 112.627C180.826 112.368 181.329 111.986 181.731 111.509C182.133 111.032 182.423 110.472 182.582 109.869Z" fill="#263238"/>
<path d="M172.974 113.545C174.023 110.598 174.813 107.566 175.337 104.483C175.857 101.389 175.601 98.2138 174.591 95.243C174.426 94.8008 173.02 91.8242 172.552 91.8704C172.215 91.9034 173.08 94.682 172.908 94.9724C171.284 97.7642 170.842 101.124 171.1 104.351C171.383 107.48 172.012 110.567 172.974 113.558" fill="#263238"/>
<path d="M162.625 139.522C167.47 139.417 172.968 128.83 172.968 128.83L173.284 101.618C173.542 93.7843 169.192 87.0985 161.352 87.0655L160.626 87.1051C157.109 87.2944 153.793 88.8002 151.336 91.323C148.88 93.8458 147.462 97.2008 147.366 100.721C147.181 107.512 147.069 115.023 147.307 118.646C147.802 126.151 155.379 126.916 155.379 126.916C155.379 126.916 155.418 128.659 155.445 130.876C155.497 135.833 160.685 139.694 162.625 139.529V139.522Z" fill="#FFBE9D"/>
<path d="M155.375 126.916C158.843 126.723 162.183 125.539 164.998 123.504C164.998 123.504 162.906 129.094 155.375 128.784V126.916Z" fill="#EB996E"/>
<path d="M150.605 106.615C150.619 106.895 150.741 107.159 150.945 107.351C151.15 107.543 151.421 107.648 151.701 107.644C151.838 107.647 151.974 107.622 152.101 107.572C152.228 107.521 152.344 107.446 152.442 107.35C152.54 107.254 152.617 107.14 152.67 107.013C152.723 106.887 152.75 106.752 152.75 106.615C152.74 106.335 152.62 106.071 152.416 105.879C152.212 105.688 151.941 105.585 151.661 105.592C151.525 105.588 151.388 105.612 151.261 105.662C151.133 105.712 151.017 105.786 150.919 105.881C150.82 105.977 150.742 106.091 150.688 106.217C150.634 106.342 150.606 106.478 150.605 106.615Z" fill="#263238"/>
<path d="M149.158 103.75C149.297 103.889 150.076 103.242 151.231 103.183C152.386 103.123 153.263 103.658 153.382 103.506C153.501 103.354 153.29 103.196 152.907 102.945C152.389 102.626 151.785 102.477 151.178 102.516C150.573 102.552 149.996 102.784 149.534 103.176C149.158 103.46 149.066 103.691 149.158 103.75Z" fill="#263238"/>
<path d="M161.039 106.337C161.049 106.618 161.169 106.882 161.373 107.075C161.577 107.268 161.848 107.372 162.128 107.367C162.265 107.371 162.402 107.347 162.53 107.296C162.658 107.246 162.775 107.171 162.873 107.075C162.972 106.979 163.05 106.864 163.103 106.738C163.157 106.611 163.184 106.475 163.184 106.337C163.17 106.059 163.049 105.797 162.846 105.606C162.643 105.415 162.374 105.311 162.095 105.314C161.958 105.31 161.821 105.333 161.693 105.383C161.565 105.432 161.449 105.507 161.35 105.602C161.252 105.698 161.173 105.812 161.12 105.938C161.067 106.064 161.039 106.2 161.039 106.337Z" fill="#263238"/>
<path d="M160.464 103.612C160.609 103.744 161.388 103.103 162.543 103.044C163.698 102.985 164.575 103.513 164.694 103.367C164.813 103.222 164.602 103.057 164.219 102.806C163.701 102.488 163.097 102.338 162.49 102.377C161.889 102.404 161.313 102.624 160.846 103.004C160.503 103.295 160.378 103.552 160.464 103.612Z" fill="#263238"/>
<path d="M156.802 112.7C156.183 112.542 155.547 112.462 154.908 112.462C154.617 112.462 154.334 112.403 154.248 112.205C154.201 111.902 154.252 111.593 154.393 111.321C154.637 110.595 154.881 109.829 155.145 109.03C156.188 105.77 156.921 103.09 156.789 103.051C156.657 103.011 155.706 105.625 154.67 108.885C154.419 109.686 154.182 110.452 153.957 111.182C153.793 111.549 153.76 111.962 153.865 112.35C153.913 112.452 153.984 112.541 154.072 112.611C154.16 112.681 154.263 112.729 154.373 112.753C154.537 112.792 154.706 112.808 154.875 112.799C155.519 112.849 156.167 112.816 156.802 112.7Z" fill="#263238"/>
<path d="M160.242 113.32C160.057 113.32 160.123 114.574 159.093 115.518C158.064 116.462 156.73 116.403 156.73 116.574C156.73 116.746 157.041 116.805 157.602 116.792C158.336 116.759 159.036 116.472 159.582 115.98C160.105 115.505 160.422 114.844 160.466 114.139C160.486 113.611 160.327 113.307 160.242 113.32Z" fill="#263238"/>
<path d="M160.282 98.9257C160.414 99.2359 161.556 99.0247 162.922 99.1171C164.289 99.2095 165.397 99.5131 165.562 99.2227C165.635 99.0841 165.43 98.8003 164.975 98.5231C164.371 98.1734 163.692 97.9742 162.995 97.9423C162.297 97.8959 161.598 98.0158 160.956 98.2921C160.461 98.5231 160.223 98.7805 160.282 98.9257Z" fill="#263238"/>
<path d="M149.411 99.8893C149.629 100.14 150.408 99.8299 151.391 99.7639C152.375 99.6979 153.167 99.8431 153.338 99.5593C153.411 99.4207 153.272 99.1699 152.903 98.9389C152.411 98.6682 151.851 98.5489 151.292 98.5959C150.733 98.6428 150.2 98.854 149.761 99.2029C149.411 99.4999 149.312 99.7705 149.411 99.8893Z" fill="#263238"/>
<path d="M172.965 107.215C173.09 107.149 178.047 105.414 178.159 110.555C178.271 115.696 173.084 114.746 173.07 114.601C173.057 114.456 172.965 107.215 172.965 107.215Z" fill="#FFBE9D"/>
<path d="M174.597 112.621C174.597 112.621 174.689 112.68 174.841 112.746C175.053 112.83 175.289 112.83 175.501 112.746C176.042 112.535 176.478 111.664 176.484 110.766C176.486 110.326 176.391 109.892 176.207 109.492C176.152 109.335 176.061 109.194 175.94 109.079C175.82 108.964 175.674 108.88 175.514 108.832C175.411 108.809 175.303 108.822 175.208 108.869C175.113 108.916 175.037 108.994 174.993 109.09C174.927 109.235 174.96 109.341 174.933 109.347C174.907 109.354 174.821 109.268 174.861 109.05C174.885 108.924 174.953 108.809 175.052 108.727C175.121 108.671 175.2 108.629 175.285 108.604C175.37 108.579 175.459 108.571 175.547 108.582C175.759 108.62 175.957 108.711 176.124 108.847C176.29 108.984 176.419 109.16 176.497 109.36C176.733 109.776 176.864 110.242 176.88 110.72C176.88 111.756 176.359 112.74 175.62 112.971C175.483 113.015 175.338 113.027 175.197 113.006C175.055 112.986 174.919 112.933 174.801 112.852C174.61 112.746 174.583 112.627 174.597 112.621Z" fill="#EB996E"/>
<path d="M150.586 92.1542C149.748 91.7054 152.21 88.9796 154.243 88.0226C157.318 86.5838 162.031 85.6598 164.895 86.432C168.34 87.3626 171.211 89.0324 172.973 92.1344C174.676 95.294 175.505 98.8503 175.376 102.437C175.441 103.527 175.213 104.614 174.716 105.585C174.01 106.734 172.637 107.466 172.736 109.037C172.758 109.321 172.724 109.606 172.636 109.877C172.548 110.148 172.407 110.398 172.221 110.614C171.29 111.624 170.129 110.7 169.581 109.763C168.426 107.783 168.261 105.361 168.136 103.051C167.955 101.415 168.044 99.7606 168.4 98.1536C168.637 97.2956 169.06 96.4772 169.225 95.606C169.351 95.1763 169.381 94.7241 169.312 94.2815C169.244 93.8389 169.079 93.4168 168.829 93.0452C168.703 92.8921 168.561 92.7527 168.406 92.6294C167.682 92.0122 166.806 91.5989 165.869 91.4319C164.931 91.2649 163.967 91.3502 163.073 91.679C160.189 92.7416 155.259 94.319 153.952 93.3686C152.078 91.9826 151.622 91.0652 151.622 91.0652L150.586 92.1542Z" fill="#263238"/>
<path d="M164.609 85.7325C163.195 85.2524 161.7 85.0577 160.21 85.1596C158.721 85.2616 157.266 85.6582 155.93 86.3264C155.214 86.6656 154.573 87.1462 154.046 87.7394C153.52 88.3326 153.119 89.0261 152.868 89.7783C152.459 91.3095 153.132 93.1773 154.61 93.7383L154.709 93.8043C156.914 94.5105 158.339 94.2003 160.517 93.4149C162.352 92.7549 163.969 91.5932 165.797 90.9464C167.762 90.2488 169.892 90.1591 171.909 90.6891C169.954 88.4233 167.436 86.7135 164.609 85.7325Z" fill="#263238"/>
<path d="M174.399 90.8209C174.353 90.8605 173.937 90.3655 173.079 89.7913C172.593 89.4509 172.068 89.1696 171.515 88.9531C170.852 88.6821 170.138 88.5626 169.423 88.6033C168.113 88.7497 166.871 89.2621 165.839 90.0817C165.04 90.7417 164.671 91.2433 164.625 91.2037C164.578 91.1641 164.677 91.0453 164.849 90.8077C165.091 90.4741 165.37 90.1686 165.681 89.8969C166.729 88.9804 168.037 88.4149 169.423 88.2799C170.189 88.2339 170.956 88.3696 171.66 88.6759C172.229 88.9124 172.764 89.2231 173.251 89.5999C173.716 89.9203 174.108 90.3367 174.399 90.8209Z" fill="#455A64"/>
<path d="M174.901 92.6425C174.863 93.1529 174.731 93.6518 174.511 94.1143C173.59 96.42 171.893 98.3318 169.713 99.5197C169.279 99.79 168.801 99.9821 168.301 100.087C171.383 98.5559 173.75 95.8864 174.901 92.6425Z" fill="#455A64"/>
<path d="M177.005 93.4806C177.035 93.6731 177.035 93.869 177.005 94.0614C176.973 94.5946 176.898 95.1244 176.781 95.6454C176.386 97.3764 175.569 98.9827 174.403 100.321C173.236 101.659 171.756 102.688 170.095 103.315C169.596 103.502 169.081 103.648 168.557 103.75C168.368 103.801 168.172 103.821 167.977 103.81C167.977 103.75 168.782 103.605 170.003 103.084C171.593 102.416 173.009 101.393 174.142 100.093C175.276 98.7935 176.097 97.2518 176.543 95.586C176.913 94.3056 176.939 93.474 177.005 93.4806Z" fill="#455A64"/>
<path d="M158.722 85.2636C158.277 85.4614 157.82 85.6333 157.355 85.7784C156.28 86.2122 155.276 86.8063 154.379 87.5406C153.484 88.2791 152.709 89.1519 152.082 90.1278C151.594 90.8802 151.369 91.3884 151.316 91.3686C151.412 90.8818 151.6 90.418 151.871 90.0024C152.459 88.96 153.236 88.0357 154.161 87.2766C155.083 86.5127 156.139 85.9283 157.276 85.554C157.736 85.3707 158.226 85.2723 158.722 85.2636Z" fill="#455A64"/>
<path d="M178.617 85.9106C178.504 86.9845 178.04 87.9913 177.297 88.775C176.649 89.6346 175.738 90.26 174.703 90.5569C175.549 89.9805 176.332 89.3169 177.04 88.5769C177.662 87.7488 178.191 86.8546 178.617 85.9106Z" fill="#455A64"/>
<path d="M122.1 160.781L115.13 174.74C114.355 176.297 113.991 178.026 114.074 179.763C114.201 182.367 115.325 184.824 117.214 186.622C119.102 188.421 121.61 189.425 124.218 189.425L144.117 188.27L144.988 179.188L129.848 175.539L135.583 164.688L122.1 160.781Z" fill="#FFBE9D"/>
<path d="M141.094 179.155H144.988C144.988 179.155 153.779 175.981 155.587 176.284C157.218 176.555 163.177 180.515 164.346 181.3C164.475 181.39 164.574 181.516 164.629 181.663C164.743 181.974 164.732 182.316 164.6 182.618C164.467 182.921 164.222 183.161 163.917 183.287L163.791 183.333L163.844 183.511C163.915 183.742 163.946 183.983 163.936 184.224C163.923 184.407 163.852 184.581 163.732 184.72C163.613 184.859 163.453 184.957 163.274 184.998C163.096 185.039 162.908 185.022 162.74 184.95C162.572 184.877 162.431 184.752 162.339 184.594L162.564 184.996C162.654 185.159 162.698 185.345 162.689 185.531V185.894C162.678 186.088 162.61 186.275 162.492 186.43C162.375 186.586 162.213 186.702 162.029 186.765C161.851 186.825 161.66 186.831 161.478 186.785C161.297 186.738 161.133 186.639 161.006 186.501C160.247 185.67 158.617 184 157.508 183.815C156.312 183.673 155.108 183.614 153.904 183.637C153.658 183.635 153.418 183.709 153.215 183.849C153.012 183.988 152.857 184.186 152.769 184.416C153.429 184.462 157.99 186.844 159.607 187.716C159.86 187.841 160.078 188.027 160.242 188.258C160.405 188.488 160.509 188.755 160.544 189.036C160.603 189.537 160.353 190.072 159.349 189.834C157.293 189.221 155.283 188.46 153.337 187.557C153.337 187.557 151.357 186.99 150.037 187.9C148.222 189.181 147.397 189.649 145.826 189.135C144.88 188.816 143.972 188.394 143.12 187.874L140.044 187.57C140.044 187.57 137.121 180.271 141.094 179.155Z" fill="#FFBE9D"/>
<path d="M152.703 180.64C153.249 180.536 153.8 180.459 154.353 180.409C155.693 180.321 157.035 180.55 158.27 181.077C159.505 181.605 160.599 182.416 161.461 183.445C162.121 184.231 162.405 184.812 162.438 184.798C162.385 184.656 162.318 184.519 162.24 184.389C162.05 184.032 161.829 183.692 161.58 183.373C160.729 182.303 159.625 181.462 158.368 180.926C157.111 180.389 155.741 180.173 154.38 180.297C153.969 180.329 153.563 180.397 153.165 180.502C153.006 180.529 152.851 180.576 152.703 180.64Z" fill="#EB996E"/>
<path d="M153.634 178.509C154.191 178.335 154.767 178.233 155.35 178.205C156.763 178.198 158.15 178.591 159.349 179.34C160.538 180.104 161.62 181.02 162.57 182.066L163.454 183.003C163.554 183.125 163.667 183.236 163.791 183.333C163.705 183.2 163.608 183.074 163.501 182.957C163.309 182.726 163.025 182.389 162.656 181.987C161.723 180.906 160.638 179.965 159.435 179.195C158.209 178.432 156.786 178.047 155.343 178.086C154.91 178.109 154.481 178.189 154.069 178.324C153.924 178.363 153.818 178.423 153.739 178.449C153.66 178.476 153.627 178.502 153.634 178.509Z" fill="#EB996E"/>
<path d="M129.85 175.505C129.85 175.565 129.157 175.453 128.061 175.459C126.632 175.49 125.216 175.741 123.864 176.205C122.507 176.648 121.235 177.317 120.102 178.185C119.244 178.845 118.835 179.419 118.782 179.386C118.729 179.353 118.854 179.221 119.033 178.964C119.302 178.612 119.607 178.289 119.943 178C121.06 177.047 122.351 176.321 123.745 175.862C125.129 175.382 126.59 175.158 128.055 175.202C128.498 175.218 128.939 175.269 129.375 175.354C129.54 175.38 129.7 175.431 129.85 175.505Z" fill="#EB996E"/>
<path d="M207.09 158.379C207.09 158.379 211.439 170.919 216.132 182.528C216.223 182.764 216.298 183.007 216.356 183.254C216.504 183.997 216.485 184.764 216.299 185.499C216.113 186.234 215.766 186.919 215.282 187.502C214.799 188.086 214.191 188.554 213.503 188.873C212.815 189.192 212.065 189.354 211.307 189.346H183.891V180.522L200.773 176.938L194.662 163.368L207.09 158.379Z" fill="#FFBE9D"/>
<path d="M189.598 179.433H185.704C185.704 179.433 176.913 176.258 175.105 176.562C173.474 176.832 167.515 180.792 166.346 181.578C166.216 181.663 166.116 181.788 166.063 181.934C165.949 182.244 165.96 182.587 166.092 182.889C166.225 183.192 166.47 183.431 166.775 183.558L166.901 183.61L166.841 183.789C166.772 184.02 166.743 184.261 166.756 184.501C166.769 184.684 166.84 184.858 166.959 184.997C167.079 185.136 167.239 185.234 167.418 185.275C167.596 185.317 167.783 185.3 167.952 185.227C168.12 185.154 168.26 185.029 168.353 184.871L168.128 185.267C168.035 185.429 167.992 185.615 168.003 185.802V186.165C168.012 186.36 168.08 186.549 168.198 186.705C168.316 186.862 168.478 186.979 168.663 187.042C168.841 187.1 169.033 187.106 169.214 187.058C169.396 187.01 169.559 186.91 169.686 186.772C170.445 185.94 172.075 184.277 173.177 184.092C174.375 183.947 175.581 183.888 176.788 183.914C177.033 183.915 177.273 183.989 177.475 184.128C177.678 184.267 177.834 184.464 177.923 184.693C177.263 184.739 172.702 187.122 171.085 187.993C170.832 188.119 170.613 188.305 170.449 188.535C170.284 188.765 170.179 189.032 170.141 189.313C170.082 189.821 170.339 190.349 171.343 190.118C173.399 189.505 175.409 188.744 177.355 187.841C177.355 187.841 179.335 187.267 180.655 188.178C182.477 189.465 183.295 189.933 184.866 189.412C185.815 189.098 186.725 188.678 187.579 188.158L190.654 187.848C190.654 187.848 193.571 180.548 189.598 179.433Z" fill="#FFBE9D"/>
<path d="M177.989 180.918C177.443 180.813 176.892 180.736 176.339 180.687C174.999 180.597 173.656 180.825 172.421 181.352C171.185 181.88 170.092 182.692 169.231 183.723C168.571 184.508 168.287 185.089 168.254 185.043C168.304 184.901 168.371 184.766 168.452 184.64C168.643 184.281 168.863 183.939 169.112 183.617C169.968 182.551 171.073 181.713 172.33 181.176C173.587 180.64 174.957 180.422 176.319 180.541C176.729 180.578 177.135 180.648 177.534 180.753C177.692 180.786 177.846 180.841 177.989 180.918Z" fill="#EB996E"/>
<path d="M177.06 178.779C176.5 178.611 175.921 178.511 175.337 178.482C173.927 178.476 172.543 178.867 171.344 179.611C170.154 180.375 169.069 181.291 168.117 182.337L167.239 183.28C167.135 183.398 167.022 183.508 166.902 183.61C166.984 183.476 167.079 183.35 167.186 183.234C167.384 183.003 167.668 182.667 168.031 182.257C168.967 181.178 170.054 180.24 171.258 179.472C172.481 178.707 173.902 178.321 175.344 178.363C175.779 178.383 176.21 178.463 176.624 178.601C176.735 178.633 176.844 178.675 176.948 178.726L177.06 178.779Z" fill="#EB996E"/>
<path d="M211.511 179.532C211.478 179.578 210.943 179.155 210.006 178.621C207.554 177.206 204.731 176.566 201.908 176.786C200.826 176.865 200.166 177.017 200.152 176.958C200.291 176.877 200.443 176.821 200.601 176.793C201.021 176.678 201.449 176.595 201.882 176.542C204.765 176.181 207.684 176.842 210.132 178.41C210.5 178.643 210.851 178.903 211.181 179.188C211.405 179.393 211.531 179.512 211.511 179.532Z" fill="#EB996E"/>
<path d="M281.319 189.689H48.4844V194.131H281.319V189.689Z" fill="#455A64"/>
<path d="M57.9417 314.192H54.7539V193.834H61.5717L57.9417 314.192Z" fill="#455A64"/>
<path d="M98.9468 314.132H95.7656V193.92H102.583L98.9468 314.132Z" fill="#263238"/>
<path d="M232.543 314H229.355V193.933H236.173L232.543 314Z" fill="#263238"/>
<path d="M266.871 314.132H263.684V193.88H270.501L266.871 314.132Z" fill="#455A64"/>
<path d="M184.061 189.643H143.174C142.616 189.642 142.079 189.426 141.675 189.04C141.271 188.655 141.03 188.128 141.003 187.57L139.775 159.421C139.763 159.129 139.81 158.836 139.913 158.562C140.017 158.288 140.175 158.037 140.378 157.826C140.581 157.614 140.824 157.446 141.094 157.331C141.364 157.216 141.654 157.157 141.947 157.158H185.21C185.502 157.158 185.791 157.218 186.06 157.333C186.329 157.447 186.572 157.615 186.774 157.826C186.977 158.036 187.135 158.286 187.239 158.559C187.344 158.832 187.392 159.123 187.381 159.415L186.233 187.564C186.211 188.124 185.972 188.654 185.567 189.042C185.162 189.429 184.622 189.645 184.061 189.643Z" fill="#E0E0E0"/>
<path d="M165.815 173.895C165.815 174.338 165.683 174.77 165.438 175.138C165.192 175.506 164.842 175.793 164.433 175.962C164.025 176.132 163.575 176.176 163.141 176.09C162.707 176.003 162.308 175.79 161.995 175.477C161.682 175.164 161.469 174.766 161.383 174.332C161.297 173.898 161.341 173.448 161.51 173.039C161.68 172.63 161.966 172.281 162.334 172.035C162.702 171.789 163.135 171.658 163.577 171.658C164.17 171.66 164.738 171.896 165.157 172.315C165.577 172.734 165.813 173.302 165.815 173.895Z" fill="white"/>
<path d="M261.536 139.899C261.564 139.674 261.637 139.457 261.75 139.26C261.863 139.064 262.014 138.892 262.195 138.755C262.376 138.618 262.582 138.518 262.801 138.463C263.021 138.407 263.25 138.395 263.474 138.429C263.698 138.463 263.913 138.542 264.107 138.66C264.3 138.779 264.467 138.935 264.599 139.119C264.731 139.304 264.825 139.513 264.875 139.734C264.924 139.955 264.929 140.184 264.889 140.407L257.458 185.782H254.059L261.536 139.899Z" fill="#263238"/>
<path d="M264.192 140.46L233.541 106.8L233.317 107.169L231.832 109.631L261.677 142.75C261.98 143.08 262.401 143.277 262.849 143.298C263.296 143.319 263.734 143.162 264.066 142.861C264.398 142.56 264.598 142.14 264.621 141.693C264.645 141.245 264.491 140.807 264.192 140.473V140.46Z" fill="#263238"/>
<path d="M261.94 141.331C261.94 141.331 261.887 141.258 261.901 141.12C261.92 140.916 262.02 140.728 262.178 140.598C262.298 140.494 262.444 140.424 262.6 140.394C262.757 140.363 262.918 140.375 263.069 140.427C263.257 140.49 263.421 140.611 263.538 140.773C263.654 140.934 263.716 141.128 263.716 141.327C263.716 141.527 263.654 141.721 263.538 141.882C263.421 142.044 263.257 142.165 263.069 142.228C262.918 142.279 262.758 142.291 262.602 142.262C262.446 142.233 262.3 142.165 262.178 142.063C262.02 141.933 261.92 141.746 261.901 141.542C261.901 141.403 261.901 141.331 261.94 141.331C261.98 141.331 261.993 141.641 262.33 141.872C262.421 141.933 262.526 141.971 262.636 141.981C262.745 141.992 262.855 141.975 262.957 141.931C263.076 141.882 263.179 141.799 263.251 141.692C263.324 141.586 263.364 141.46 263.366 141.331C263.365 141.2 263.326 141.073 263.253 140.965C263.18 140.857 263.077 140.773 262.957 140.724C262.855 140.681 262.744 140.665 262.635 140.677C262.525 140.688 262.42 140.727 262.33 140.79C262.019 141.014 262.019 141.344 261.94 141.331Z" fill="#455A64"/>
<path d="M262.402 138.499C262.749 138.735 263.06 139.02 263.326 139.344C263.652 139.666 263.961 140.005 264.25 140.36C264.444 140.589 264.587 140.856 264.67 141.144C264.753 141.432 264.774 141.734 264.732 142.03C264.654 142.328 264.497 142.6 264.277 142.816C264.058 143.032 263.784 143.185 263.485 143.258C263.248 143.32 263.001 143.335 262.758 143.301C262.516 143.267 262.283 143.185 262.072 143.06C261.689 142.862 261.375 142.554 261.168 142.175C261.208 142.123 261.531 142.505 262.191 142.835C262.562 143.028 262.992 143.068 263.392 142.948C263.632 142.884 263.851 142.758 264.027 142.583C264.203 142.408 264.33 142.19 264.395 141.951C264.426 141.701 264.406 141.447 264.337 141.204C264.267 140.962 264.151 140.735 263.993 140.539C263.709 140.143 263.386 139.799 263.148 139.502C262.855 139.204 262.604 138.866 262.402 138.499Z" fill="#455A64"/>
<path d="M240.609 189.788H268.514C268.514 189.788 264.95 185.346 255.664 185.346C247.011 185.346 241.857 187.887 240.609 189.788Z" fill="#263238"/>
<path d="M233.72 101.454L235.139 99.3218L233.384 97.9754L231.879 100.12L233.72 101.454Z" fill="#263238"/>
<path d="M236.121 102.734L230.009 98.3054L224.148 105.361C213.978 106.998 209.879 113.393 209.879 113.393L228.082 127.332C234.312 120.448 231.382 110.608 231.382 110.608L236.121 102.734Z" fill="#FFBE00"/>
<path d="M231.362 110.608C230.065 109.876 228.825 109.046 227.653 108.126C226.418 107.293 225.246 106.369 224.148 105.361C225.446 106.092 226.686 106.922 227.858 107.842C229.096 108.671 230.268 109.596 231.362 110.608Z" fill="#263238"/>
<path d="M209.101 118.244C209.141 118.33 206.026 119.861 202.145 121.663C198.264 123.465 195.083 124.851 195.043 124.765C195.004 124.679 198.119 123.148 202 121.346C205.881 119.544 209.062 118.158 209.101 118.244Z" fill="#263238"/>
<path d="M216.125 124.316C216.198 124.382 213.796 126.956 210.773 130.064C207.75 133.173 205.235 135.641 205.169 135.575C205.103 135.509 207.499 132.935 210.522 129.827C213.545 126.718 216.059 124.25 216.125 124.316Z" fill="#263238"/>
<path d="M220.758 142.532C220.665 142.532 220.857 139.404 221.193 135.562C221.53 131.721 221.853 128.613 221.972 128.626C221.945 130.955 221.799 133.281 221.536 135.595C221.2 139.437 220.85 142.539 220.758 142.532Z" fill="#263238"/>
<path d="M115.868 44.3925L98.1484 44.9153L98.5663 59.0793L116.286 58.5565L115.868 44.3925Z" fill="#EBEBEB"/>
<path d="M115.869 44.3899H115.532L114.569 44.4295L110.945 44.5483L98.148 44.9443L98.1942 44.8981C98.3196 49.1155 98.4648 53.9467 98.6232 59.0617L98.5704 59.0155L116.285 58.5007L116.245 58.5469C116.126 54.2767 116.027 50.7391 115.961 48.2707C115.961 47.0299 115.909 46.0597 115.889 45.3997V44.6407V44.3767C115.889 44.3767 115.889 44.4625 115.889 44.6341C115.889 44.8057 115.889 45.0565 115.889 45.3799C115.889 46.0399 115.942 47.0101 115.981 48.2443C116.06 50.7193 116.173 54.2635 116.311 58.5403V58.5799H116.265L98.5506 59.1079H98.4978V59.0551C98.346 53.9401 98.2074 49.1023 98.082 44.8915V44.8453H98.1282L110.952 44.4955L114.569 44.3965H115.526H115.849L115.869 44.3899Z" fill="#263238"/>
<path d="M115.262 45.3085L98.7891 45.7945L99.1544 58.1773L115.627 57.6913L115.262 45.3085Z" fill="#FFBE00"/>
<g opacity="0.3">
<path d="M99.1523 58.1708L104.683 50.3036L108.386 55.016L110.729 52.3694L115.626 57.6824L99.1523 58.1708Z" fill="black"/>
</g>
<g opacity="0.3">
<path d="M109.73 49.2079C109.73 49.5479 109.599 49.875 109.364 50.1209C109.13 50.3668 108.809 50.5126 108.469 50.5279C108.206 50.5398 107.945 50.4725 107.72 50.3349C107.496 50.1972 107.317 49.9955 107.208 49.7556C107.099 49.5156 107.064 49.2486 107.108 48.9887C107.152 48.7289 107.273 48.4882 107.455 48.2976C107.637 48.107 107.872 47.9752 108.13 47.9193C108.387 47.8634 108.656 47.8858 108.9 47.9837C109.145 48.0817 109.355 48.2506 109.503 48.4688C109.65 48.6869 109.73 48.9444 109.73 49.2079Z" fill="black"/>
</g>
<path d="M107.846 53.8197L81.4648 58.4382L85.157 79.5279L111.539 74.9093L107.846 53.8197Z" fill="#EBEBEB"/>
<path d="M107.851 53.8148H107.726L107.356 53.8808L105.924 54.1382L100.525 55.1018L81.4776 58.4744L81.537 58.3952C82.6392 64.6718 83.8998 71.8658 85.2396 79.4822L85.1472 79.4162L111.547 74.7962L111.494 74.8688C110.399 68.513 109.514 63.2528 108.854 59.5634C108.538 57.722 108.293 56.2634 108.122 55.2866C108.036 54.7982 107.977 54.4154 107.93 54.158L107.871 53.7686C107.871 53.7686 107.871 53.894 107.944 54.1448C108.016 54.3956 108.056 54.8048 108.148 55.2602C108.32 56.2436 108.577 57.6824 108.907 59.5172L111.626 74.849V74.9084H111.56L85.1604 79.5284H85.0878V79.4558C83.7678 71.8394 82.494 64.6454 81.3984 58.3688V58.2962H81.471L100.571 54.9962L105.957 54.0722L107.383 53.828L107.746 53.7686L107.851 53.8148Z" fill="#263238"/>
<path d="M107.134 55.3174L82.6055 59.6116L85.8332 78.0488L110.362 73.7546L107.134 55.3174Z" fill="#FFBE00"/>
<g opacity="0.4">
<path d="M85.8398 78.0369L92.4002 65.0745L98.9606 71.3181L101.891 66.8565L110.365 73.7403L85.8398 78.0369Z" fill="black"/>
</g>
<g opacity="0.4">
<path d="M99.7116 62.3486C99.7837 62.7352 99.739 63.1345 99.5832 63.4956C99.4274 63.8568 99.1676 64.1633 98.8369 64.3762C98.5062 64.589 98.1196 64.6986 97.7264 64.6909C97.3332 64.6832 96.9512 64.5586 96.6291 64.3329C96.307 64.1073 96.0594 63.7908 95.9178 63.4239C95.7763 63.0569 95.7472 62.6562 95.8344 62.2726C95.9215 61.8891 96.1209 61.5403 96.407 61.2705C96.6932 61.0007 97.0533 60.8223 97.4412 60.758C97.9526 60.6732 98.4767 60.7923 98.9012 61.0897C99.3257 61.3871 99.6167 61.839 99.7116 62.3486Z" fill="black"/>
</g>
<path d="M53.1682 91.514L57.2866 107.308C57.3556 107.579 57.5261 107.814 57.7631 107.964C58 108.114 58.2854 108.167 58.5604 108.113L87.343 102.477C87.4843 102.449 87.6188 102.394 87.7388 102.314C87.8587 102.234 87.9618 102.132 88.0421 102.012C88.1224 101.893 88.1784 101.759 88.2068 101.617C88.2352 101.476 88.2354 101.331 88.2076 101.19L85.7986 88.7354C85.7696 88.5915 85.7122 88.4548 85.63 88.3332C85.5477 88.2117 85.4421 88.1077 85.3193 88.0272C85.1965 87.9468 85.0589 87.8916 84.9146 87.8647C84.7703 87.8378 84.6221 87.8399 84.4786 87.8708L66.8038 91.448C66.5187 91.5061 66.2221 91.4492 65.9788 91.2896L62.3092 88.8608C62.0678 88.7025 61.7747 88.6434 61.4908 88.6958L54.0262 90.161C53.8785 90.1887 53.7381 90.2465 53.6137 90.3308C53.4894 90.4151 53.3836 90.5241 53.3032 90.651C53.2227 90.7779 53.1692 90.92 53.146 91.0684C53.1228 91.2169 53.1303 91.3685 53.1682 91.514Z" fill="#FFBE00"/>
<path d="M85.1957 85.7593L53.75 91.9173L57.4296 110.707L88.8753 104.549L85.1957 85.7593Z" fill="#F5F5F5"/>
<path d="M51.5718 94.1013L57.8088 113.241C57.8645 113.405 57.9772 113.543 58.1263 113.63C58.2753 113.717 58.4508 113.748 58.6206 113.716L89.2644 107.717C89.44 107.683 89.5963 107.584 89.7017 107.44C89.807 107.295 89.8536 107.116 89.832 106.938L87.5418 87.0393C87.5309 86.9423 87.4999 86.8486 87.451 86.7641C87.402 86.6797 87.336 86.6063 87.2573 86.5486C87.1785 86.4909 87.0886 86.4502 86.9933 86.429C86.898 86.4078 86.7994 86.4066 86.7036 86.4255L52.1394 93.1839C52.0383 93.2 51.9419 93.2378 51.8567 93.2945C51.7715 93.3512 51.6996 93.4257 51.6457 93.5127C51.5918 93.5998 51.5574 93.6974 51.5446 93.7989C51.5319 93.9005 51.5411 94.0036 51.5718 94.1013Z" fill="#FFBE00"/>
<g opacity="0.3">
<path d="M51.5718 94.1013L57.8088 113.241C57.8645 113.405 57.9772 113.543 58.1263 113.63C58.2753 113.717 58.4508 113.748 58.6206 113.716L89.2644 107.717C89.44 107.683 89.5963 107.584 89.7017 107.44C89.807 107.295 89.8536 107.116 89.832 106.938L87.5418 87.0393C87.5309 86.9423 87.4999 86.8486 87.451 86.7641C87.402 86.6797 87.336 86.6063 87.2573 86.5486C87.1785 86.4909 87.0886 86.4502 86.9933 86.429C86.898 86.4078 86.7994 86.4066 86.7036 86.4255L52.1394 93.1839C52.0383 93.2 51.9419 93.2378 51.8567 93.2945C51.7715 93.3512 51.6996 93.4257 51.6457 93.5127C51.5918 93.5998 51.5574 93.6974 51.5446 93.7989C51.5319 93.9005 51.5411 94.0036 51.5718 94.1013Z" fill="black"/>
</g>
<path d="M63.914 76.5915L43.3683 69.0741C43.0153 68.901 42.7416 68.5998 42.603 68.2319C42.4645 67.864 42.4714 67.4571 42.6225 67.0941L47.7243 53.7489C47.8405 53.3813 48.0917 53.0715 48.4272 52.8817C48.7627 52.6918 49.1577 52.6362 49.5327 52.7259L70.1049 60.4281C70.8243 60.6987 70.9035 61.4709 70.6329 62.1903L65.2868 75.9645C65.2384 76.0962 65.1643 76.2169 65.0689 76.3199C64.9736 76.4228 64.8587 76.5058 64.7311 76.564C64.6035 76.6223 64.4656 76.6548 64.3253 76.6595C64.1851 76.6642 64.0453 76.6411 63.914 76.5915Z" fill="#FAFAFA"/>
<path d="M63.7099 76.5121C63.9736 76.5827 64.2513 76.5827 64.5151 76.5121C64.8303 76.4179 65.1046 76.2203 65.2939 75.9511C65.4042 75.7741 65.4908 75.5832 65.5513 75.3835C65.6371 75.1723 65.7163 74.9413 65.8087 74.7235C66.5413 72.7831 67.5907 70.0045 68.8777 66.5725C69.2077 65.7079 69.5377 64.8103 69.9007 63.8731L70.4485 62.4343C70.5495 62.1994 70.6312 61.9566 70.6927 61.7083C70.7276 61.464 70.6933 61.2148 70.5937 60.9889C70.4928 60.7577 70.322 60.5638 70.1053 60.4345C69.8612 60.3192 69.6099 60.22 69.3529 60.1375L67.7557 59.5567L64.4161 58.3357L49.5595 52.9039C49.2601 52.8071 48.936 52.8204 48.6456 52.9414C48.3552 53.0624 48.1175 53.2832 47.9755 53.5639L47.2363 55.4779L45.7909 59.2531C44.8801 61.7413 43.9297 64.1239 43.0585 66.3943C42.9463 66.6781 42.8407 66.9619 42.7351 67.2391C42.6206 67.4912 42.5883 67.7729 42.6427 68.0443C42.6996 68.3014 42.8386 68.5331 43.0387 68.7043C43.259 68.8709 43.5103 68.9921 43.7779 69.0607L46.9195 70.2223L52.5625 72.3013L60.7201 75.3637L62.9377 76.2019L63.5053 76.4263C63.5737 76.4488 63.64 76.4775 63.7033 76.5121C63.6326 76.5022 63.5637 76.4822 63.4987 76.4527L62.9179 76.2547L60.7201 75.4627L52.5295 72.5125L46.8601 70.4599L43.7119 69.3181C43.4176 69.2382 43.1418 69.1014 42.9001 68.9155C42.6567 68.7045 42.4897 68.4192 42.4249 68.1037C42.3544 67.7884 42.382 67.4591 42.5041 67.1599C42.6097 66.8761 42.7153 66.5923 42.8275 66.3085L45.5401 59.1739C46.0087 57.9397 46.4905 56.6791 46.9789 55.4053C47.2231 54.7453 47.4739 54.0853 47.7247 53.4715C47.8844 53.1176 48.1706 52.8362 48.5271 52.6824C48.8837 52.5285 49.2848 52.5134 49.6519 52.6399L64.5019 58.0849L67.8019 59.3125L69.3991 59.8999C69.6703 59.9889 69.935 60.097 70.1911 60.2233C70.4458 60.3791 70.6463 60.6095 70.7653 60.8833C70.8807 61.1513 70.9195 61.446 70.8775 61.7347C70.8136 61.9968 70.7275 62.2529 70.6201 62.5003C70.4287 62.9887 70.2439 63.4639 70.0657 63.9325C69.7027 64.8697 69.3595 65.7673 69.0229 66.6253L65.8747 74.7433C65.7823 74.9875 65.6899 75.2119 65.6107 75.4033C65.5416 75.6084 65.4462 75.8036 65.3269 75.9841C65.1212 76.2613 64.8283 76.4612 64.4953 76.5517C64.2912 76.5993 64.0789 76.5993 63.8749 76.5517C63.8182 76.5467 63.7626 76.5333 63.7099 76.5121Z" fill="#FFBE00"/>
<path d="M58.0285 63.5696L60.1669 66.2492L56.7481 66.8696L53.3359 67.49L54.6097 64.19L55.8835 60.89L58.0285 63.5696Z" fill="#FFBE00"/>
<path d="M74.4607 168.226C74.5554 168.226 74.6323 167.856 74.6323 167.401C74.6323 166.945 74.5554 166.576 74.4607 166.576C74.3659 166.576 74.2891 166.945 74.2891 167.401C74.2891 167.856 74.3659 168.226 74.4607 168.226Z" fill="#263238"/>
<path d="M74.4607 175.671C74.2319 174.44 74.2319 173.178 74.4607 171.948C74.6895 173.178 74.6895 174.44 74.4607 175.671Z" fill="#263238"/>
<path d="M76.1107 181.043C75.5777 181.21 75.0166 181.269 74.4607 181.215L74.2891 181.043V180.68V180.377C74.2891 180.179 74.2891 180 74.2891 179.848C74.3221 179.551 74.3683 179.367 74.4145 179.367C74.4607 179.367 74.5003 179.551 74.5333 179.848C74.5333 180 74.5333 180.179 74.5729 180.377V180.997L74.4013 180.825C74.9801 180.774 75.5632 180.848 76.1107 181.043Z" fill="#263238"/>
<path d="M82.739 181.043C82.2038 181.211 81.6405 181.269 81.0824 181.215C80.5243 181.269 79.9609 181.211 79.4258 181.043C79.9601 180.872 80.5243 180.813 81.0824 180.871C81.6405 180.813 82.2046 180.872 82.739 181.043Z" fill="#263238"/>
<path d="M89.3703 181.043C88.282 181.27 87.1586 181.27 86.0703 181.043C87.1586 180.816 88.282 180.816 89.3703 181.043Z" fill="#263238"/>
<path d="M95.9953 181.043C94.907 181.27 93.7836 181.27 92.6953 181.043C93.7836 180.816 94.907 180.816 95.9953 181.043Z" fill="#263238"/>
<path d="M102.628 181.043C101.54 181.27 100.416 181.27 99.3281 181.043C100.416 180.816 101.54 180.816 102.628 181.043Z" fill="#263238"/>
<path d="M109.261 181.043C108.173 181.269 107.049 181.269 105.961 181.043C107.049 180.817 108.173 180.817 109.261 181.043Z" fill="#263238"/>
<path d="M115.89 181.043C114.802 181.27 113.678 181.27 112.59 181.043C113.678 180.816 114.802 180.816 115.89 181.043Z" fill="#263238"/>
<path d="M122.523 181.043C121.434 181.27 120.311 181.27 119.223 181.043C120.311 180.816 121.434 180.816 122.523 181.043Z" fill="#263238"/>
<path d="M129.148 181.043C128.059 181.27 126.936 181.27 125.848 181.043C126.936 180.816 128.059 180.816 129.148 181.043Z" fill="#263238"/>
<path d="M135.78 181.043C134.692 181.27 133.569 181.27 132.48 181.043C133.569 180.816 134.692 180.816 135.78 181.043Z" fill="#263238"/>
<path d="M140.744 181.043C140.744 181.135 140.374 181.215 139.919 181.215C139.463 181.215 139.094 181.135 139.094 181.043C139.094 180.951 139.463 180.871 139.919 180.871C140.374 180.871 140.744 180.944 140.744 181.043Z" fill="#263238"/>
<path d="M96.1682 108.344H49.0244C46.5494 108.344 44.543 110.35 44.543 112.825V159.969C44.543 162.444 46.5494 164.45 49.0244 164.45H96.1682C98.6432 164.45 100.65 162.444 100.65 159.969V112.825C100.65 110.35 98.6432 108.344 96.1682 108.344Z" fill="#FFBE00"/>
<rect x="58" y="131" width="30" height="13" rx="6.5" fill="white"/>
</svg>
